<svg xmlns="http://www.w3.org/2000/svg" xmlns:xlink="http://www.w3.org/1999/xlink" width="500" zoomAndPan="magnify" viewBox="0 0 375 374.999991" height="500" preserveAspectRatio="xMidYMid meet" version="1.0"><defs><g/><clipPath id="f7393537f2"><path d="M 3 22 L 44.414062 22 L 44.414062 73.578125 L 3 73.578125 Z M 3 22 " clip-rule="nonzero"/></clipPath><clipPath id="8f14864d6c"><path d="M 42.925781 56.390625 C 43.824219 53.746094 44.414062 50.742188 44.414062 47.796875 C 44.414062 44.847656 43.910156 42.011719 43.011719 39.394531 C 42.980469 39.339844 42.980469 39.285156 42.953125 39.230469 C 39.359375 29.410156 29.871094 22.179688 19.265625 22.039062 L 7.5 22.039062 C 6.308594 22.039062 5.164062 22.515625 4.320312 23.359375 C 3.472656 24.203125 3 25.347656 3 26.539062 L 3 69.078125 C 3 70.273438 3.472656 71.417969 4.320312 72.261719 C 5.164062 73.105469 6.308594 73.578125 7.5 73.578125 L 19.253906 73.578125 C 29.925781 73.4375 39.417969 66.320312 42.925781 56.390625 Z M 42.925781 56.390625 " clip-rule="nonzero"/></clipPath><clipPath id="e27acf9c9d"><path d="M 0 0 L 41.414062 0 L 41.414062 51.578125 L 0 51.578125 Z M 0 0 " clip-rule="nonzero"/></clipPath><clipPath id="2a763987a5"><path d="M 39.925781 34.390625 C 40.824219 31.746094 41.414062 28.742188 41.414062 25.796875 C 41.414062 22.847656 40.910156 20.011719 40.011719 17.394531 C 39.980469 17.339844 39.980469 17.285156 39.953125 17.230469 C 36.359375 7.410156 26.871094 0.179688 16.265625 0.0390625 L 4.5 0.0390625 C 3.308594 0.0390625 2.164062 0.515625 1.320312 1.359375 C 0.472656 2.203125 0 3.347656 0 4.539062 L 0 47.078125 C 0 48.273438 0.472656 49.417969 1.320312 50.261719 C 2.164062 51.105469 3.308594 51.578125 4.5 51.578125 L 16.253906 51.578125 C 26.925781 51.4375 36.417969 44.320312 39.925781 34.390625 Z M 39.925781 34.390625 " clip-rule="nonzero"/></clipPath><clipPath id="71f24a39d2"><rect x="0" width="42" y="0" height="52"/></clipPath><clipPath id="b14c38b276"><path d="M 4.699219 27.875 L 43.464844 27.875 L 43.464844 67.910156 L 4.699219 67.910156 Z M 4.699219 27.875 " clip-rule="nonzero"/></clipPath><clipPath id="ac1bd4dcf1"><path d="M 25.316406 28.898438 L 27.554688 37.96875 C 28.316406 41.054688 30.703125 43.476562 33.777344 44.285156 L 42.28125 46.527344 C 42.878906 46.683594 43.292969 47.222656 43.292969 47.839844 C 43.292969 48.453125 42.878906 48.992188 42.28125 49.152344 L 33.777344 51.390625 C 30.703125 52.199219 28.316406 54.621094 27.554688 57.707031 L 25.316406 66.78125 C 25.175781 67.347656 24.667969 67.746094 24.082031 67.746094 C 23.496094 67.746094 22.988281 67.347656 22.847656 66.78125 L 20.609375 57.707031 C 19.847656 54.621094 17.460938 52.199219 14.386719 51.390625 L 5.882812 49.152344 C 5.285156 48.992188 4.871094 48.453125 4.871094 47.839844 C 4.871094 47.222656 5.285156 46.683594 5.882812 46.527344 L 14.386719 44.285156 C 17.460938 43.476562 19.847656 41.054688 20.609375 37.96875 L 22.847656 28.898438 C 22.988281 28.328125 23.496094 27.929688 24.082031 27.929688 C 24.667969 27.929688 25.175781 28.328125 25.316406 28.898438 Z M 25.316406 28.898438 " clip-rule="nonzero"/></clipPath><clipPath id="7f80a3fe58"><path d="M 0.839844 0.921875 L 39.464844 0.921875 L 39.464844 40.761719 L 0.839844 40.761719 Z M 0.839844 0.921875 " clip-rule="nonzero"/></clipPath><clipPath id="a482ad6d44"><path d="M 21.316406 1.898438 L 23.554688 10.96875 C 24.316406 14.054688 26.703125 16.476562 29.777344 17.285156 L 38.28125 19.527344 C 38.878906 19.683594 39.292969 20.222656 39.292969 20.839844 C 39.292969 21.453125 38.878906 21.992188 38.28125 22.152344 L 29.777344 24.390625 C 26.703125 25.199219 24.316406 27.621094 23.554688 30.707031 L 21.316406 39.78125 C 21.175781 40.347656 20.667969 40.746094 20.082031 40.746094 C 19.496094 40.746094 18.988281 40.347656 18.847656 39.78125 L 16.609375 30.707031 C 15.847656 27.621094 13.460938 25.199219 10.386719 24.390625 L 1.882812 22.152344 C 1.285156 21.992188 0.871094 21.453125 0.871094 20.839844 C 0.871094 20.222656 1.285156 19.683594 1.882812 19.527344 L 10.386719 17.285156 C 13.460938 16.476562 15.847656 14.054688 16.609375 10.96875 L 18.847656 1.898438 C 18.988281 1.328125 19.496094 0.929688 20.082031 0.929688 C 20.667969 0.929688 21.175781 1.328125 21.316406 1.898438 Z M 21.316406 1.898438 " clip-rule="nonzero"/></clipPath><clipPath id="ddd64a6e6a"><rect x="0" width="40" y="0" height="41"/></clipPath><clipPath id="4743b53e13"><rect x="0" width="353" y="0" height="90"/></clipPath></defs><g transform="matrix(1, 0, 0, 1, 11, 142)"><g clip-path="url(#4743b53e13)"><g clip-path="url(#f7393537f2)"><g clip-path="url(#8f14864d6c)"><g transform="matrix(1, 0, 0, 1, 3, 22)"><g clip-path="url(#71f24a39d2)"><g clip-path="url(#e27acf9c9d)"><g clip-path="url(#2a763987a5)"><path fill="#5087ff" d="M 0 51.578125 L 0 -0.0273438 L 41.414062 -0.0273438 L 41.414062 51.578125 Z M 0 51.578125 " fill-opacity="1" fill-rule="nonzero"/></g></g></g></g></g></g><g clip-path="url(#b14c38b276)"><g clip-path="url(#ac1bd4dcf1)"><g transform="matrix(1, 0, 0, 1, 4, 27)"><g clip-path="url(#ddd64a6e6a)"><g clip-path="url(#7f80a3fe58)"><g clip-path="url(#a482ad6d44)"><rect x="-151.5" width="648" fill="#f4f4f4" y="-305.499997" height="647.999984" fill-opacity="1"/></g></g></g></g></g></g><g fill="#5087ff" fill-opacity="1"><g transform="translate(45.637266, 72.711568)"><g><path d="M 22.921875 -47.296875 L 22.921875 -45.96875 C 21.492188 -45.925781 20.410156 -45.757812 19.671875 -45.46875 C 18.941406 -45.175781 18.460938 -44.640625 18.234375 -43.859375 C 18.015625 -43.078125 17.90625 -41.863281 17.90625 -40.21875 L 17.90625 -7.078125 C 17.90625 -5.472656 18.023438 -4.269531 18.265625 -3.46875 C 18.515625 -2.664062 18.992188 -2.128906 19.703125 -1.859375 C 20.421875 -1.597656 21.492188 -1.425781 22.921875 -1.34375 L 22.921875 0 C 21.710938 -0.09375 20.195312 -0.148438 18.375 -0.171875 C 16.550781 -0.191406 14.703125 -0.203125 12.828125 -0.203125 C 10.640625 -0.203125 8.625 -0.191406 6.78125 -0.171875 C 4.9375 -0.148438 3.429688 -0.09375 2.265625 0 L 2.265625 -1.34375 C 3.691406 -1.425781 4.757812 -1.597656 5.46875 -1.859375 C 6.1875 -2.128906 6.664062 -2.664062 6.90625 -3.46875 C 7.15625 -4.269531 7.28125 -5.472656 7.28125 -7.078125 L 7.28125 -40.21875 C 7.28125 -41.863281 7.15625 -43.078125 6.90625 -43.859375 C 6.664062 -44.640625 6.175781 -45.175781 5.4375 -45.46875 C 4.707031 -45.757812 3.648438 -45.925781 2.265625 -45.96875 L 2.265625 -47.296875 C 3.429688 -47.253906 4.9375 -47.210938 6.78125 -47.171875 C 8.625 -47.128906 10.640625 -47.109375 12.828125 -47.109375 C 14.703125 -47.109375 16.550781 -47.128906 18.375 -47.171875 C 20.195312 -47.210938 21.710938 -47.253906 22.921875 -47.296875 Z M 22.921875 -47.296875 "/></g></g></g><g fill="#5087ff" fill-opacity="1"><g transform="translate(70.755358, 72.711568)"><g><path d="M 18.96875 -48.171875 C 21.601562 -48.171875 23.628906 -47.890625 25.046875 -47.328125 C 26.472656 -46.773438 27.703125 -46.1875 28.734375 -45.5625 C 29.265625 -45.25 29.695312 -45.015625 30.03125 -44.859375 C 30.363281 -44.703125 30.6875 -44.625 31 -44.625 C 31.445312 -44.625 31.769531 -44.867188 31.96875 -45.359375 C 32.164062 -45.847656 32.332031 -46.585938 32.46875 -47.578125 L 34 -47.578125 C 33.957031 -46.722656 33.898438 -45.707031 33.828125 -44.53125 C 33.765625 -43.351562 33.722656 -41.804688 33.703125 -39.890625 C 33.679688 -37.972656 33.671875 -35.457031 33.671875 -32.34375 L 32.140625 -32.34375 C 31.960938 -34.65625 31.425781 -36.898438 30.53125 -39.078125 C 29.644531 -41.265625 28.382812 -43.054688 26.75 -44.453125 C 25.125 -45.859375 23.132812 -46.5625 20.78125 -46.5625 C 18.644531 -46.5625 16.882812 -45.957031 15.5 -44.75 C 14.113281 -43.550781 13.421875 -41.882812 13.421875 -39.75 C 13.421875 -37.96875 13.867188 -36.441406 14.765625 -35.171875 C 15.660156 -33.898438 16.960938 -32.664062 18.671875 -31.46875 C 20.390625 -30.269531 22.472656 -28.820312 24.921875 -27.125 C 27.054688 -25.75 28.96875 -24.367188 30.65625 -22.984375 C 32.351562 -21.597656 33.710938 -20.035156 34.734375 -18.296875 C 35.765625 -16.566406 36.28125 -14.5 36.28125 -12.09375 C 36.28125 -9.15625 35.507812 -6.726562 33.96875 -4.8125 C 32.4375 -2.894531 30.421875 -1.457031 27.921875 -0.5 C 25.429688 0.457031 22.691406 0.9375 19.703125 0.9375 C 16.941406 0.9375 14.738281 0.664062 13.09375 0.125 C 11.445312 -0.40625 10.066406 -0.957031 8.953125 -1.53125 C 7.972656 -2.15625 7.21875 -2.46875 6.6875 -2.46875 C 6.238281 -2.46875 5.910156 -2.222656 5.703125 -1.734375 C 5.503906 -1.242188 5.34375 -0.507812 5.21875 0.46875 L 3.671875 0.46875 C 3.765625 -0.601562 3.820312 -1.847656 3.84375 -3.265625 C 3.863281 -4.691406 3.882812 -6.550781 3.90625 -8.84375 C 3.925781 -11.144531 3.9375 -14.054688 3.9375 -17.578125 L 5.484375 -17.578125 C 5.660156 -14.628906 6.160156 -11.875 6.984375 -9.3125 C 7.804688 -6.757812 9.070312 -4.703125 10.78125 -3.140625 C 12.5 -1.578125 14.785156 -0.796875 17.640625 -0.796875 C 19.203125 -0.796875 20.59375 -1.070312 21.8125 -1.625 C 23.039062 -2.1875 24.03125 -3.023438 24.78125 -4.140625 C 25.539062 -5.253906 25.921875 -6.632812 25.921875 -8.28125 C 25.921875 -10.15625 25.484375 -11.78125 24.609375 -13.15625 C 23.742188 -14.539062 22.566406 -15.832031 21.078125 -17.03125 C 19.585938 -18.238281 17.863281 -19.46875 15.90625 -20.71875 C 13.8125 -22.09375 11.847656 -23.46875 10.015625 -24.84375 C 8.191406 -26.226562 6.734375 -27.8125 5.640625 -29.59375 C 4.554688 -31.375 4.015625 -33.488281 4.015625 -35.9375 C 4.015625 -38.75 4.710938 -41.054688 6.109375 -42.859375 C 7.515625 -44.660156 9.363281 -45.992188 11.65625 -46.859375 C 13.945312 -47.734375 16.382812 -48.171875 18.96875 -48.171875 Z M 18.96875 -48.171875 "/></g></g></g><g fill="#5087ff" fill-opacity="1"><g transform="translate(109.768576, 72.711568)"><g><path d="M 18.96875 -48.171875 C 21.601562 -48.171875 23.628906 -47.890625 25.046875 -47.328125 C 26.472656 -46.773438 27.703125 -46.1875 28.734375 -45.5625 C 29.265625 -45.25 29.695312 -45.015625 30.03125 -44.859375 C 30.363281 -44.703125 30.6875 -44.625 31 -44.625 C 31.445312 -44.625 31.769531 -44.867188 31.96875 -45.359375 C 32.164062 -45.847656 32.332031 -46.585938 32.46875 -47.578125 L 34 -47.578125 C 33.957031 -46.722656 33.898438 -45.707031 33.828125 -44.53125 C 33.765625 -43.351562 33.722656 -41.804688 33.703125 -39.890625 C 33.679688 -37.972656 33.671875 -35.457031 33.671875 -32.34375 L 32.140625 -32.34375 C 31.960938 -34.65625 31.425781 -36.898438 30.53125 -39.078125 C 29.644531 -41.265625 28.382812 -43.054688 26.75 -44.453125 C 25.125 -45.859375 23.132812 -46.5625 20.78125 -46.5625 C 18.644531 -46.5625 16.882812 -45.957031 15.5 -44.75 C 14.113281 -43.550781 13.421875 -41.882812 13.421875 -39.75 C 13.421875 -37.96875 13.867188 -36.441406 14.765625 -35.171875 C 15.660156 -33.898438 16.960938 -32.664062 18.671875 -31.46875 C 20.390625 -30.269531 22.472656 -28.820312 24.921875 -27.125 C 27.054688 -25.75 28.96875 -24.367188 30.65625 -22.984375 C 32.351562 -21.597656 33.710938 -20.035156 34.734375 -18.296875 C 35.765625 -16.566406 36.28125 -14.5 36.28125 -12.09375 C 36.28125 -9.15625 35.507812 -6.726562 33.96875 -4.8125 C 32.4375 -2.894531 30.421875 -1.457031 27.921875 -0.5 C 25.429688 0.457031 22.691406 0.9375 19.703125 0.9375 C 16.941406 0.9375 14.738281 0.664062 13.09375 0.125 C 11.445312 -0.40625 10.066406 -0.957031 8.953125 -1.53125 C 7.972656 -2.15625 7.21875 -2.46875 6.6875 -2.46875 C 6.238281 -2.46875 5.910156 -2.222656 5.703125 -1.734375 C 5.503906 -1.242188 5.34375 -0.507812 5.21875 0.46875 L 3.671875 0.46875 C 3.765625 -0.601562 3.820312 -1.847656 3.84375 -3.265625 C 3.863281 -4.691406 3.882812 -6.550781 3.90625 -8.84375 C 3.925781 -11.144531 3.9375 -14.054688 3.9375 -17.578125 L 5.484375 -17.578125 C 5.660156 -14.628906 6.160156 -11.875 6.984375 -9.3125 C 7.804688 -6.757812 9.070312 -4.703125 10.78125 -3.140625 C 12.5 -1.578125 14.785156 -0.796875 17.640625 -0.796875 C 19.203125 -0.796875 20.59375 -1.070312 21.8125 -1.625 C 23.039062 -2.1875 24.03125 -3.023438 24.78125 -4.140625 C 25.539062 -5.253906 25.921875 -6.632812 25.921875 -8.28125 C 25.921875 -10.15625 25.484375 -11.78125 24.609375 -13.15625 C 23.742188 -14.539062 22.566406 -15.832031 21.078125 -17.03125 C 19.585938 -18.238281 17.863281 -19.46875 15.90625 -20.71875 C 13.8125 -22.09375 11.847656 -23.46875 10.015625 -24.84375 C 8.191406 -26.226562 6.734375 -27.8125 5.640625 -29.59375 C 4.554688 -31.375 4.015625 -33.488281 4.015625 -35.9375 C 4.015625 -38.75 4.710938 -41.054688 6.109375 -42.859375 C 7.515625 -44.660156 9.363281 -45.992188 11.65625 -46.859375 C 13.945312 -47.734375 16.382812 -48.171875 18.96875 -48.171875 Z M 18.96875 -48.171875 "/></g></g></g><g fill="#5087ff" fill-opacity="1"><g transform="translate(148.781793, 72.711568)"><g><path d="M 38.015625 -47.296875 C 37.835938 -45.335938 37.710938 -43.445312 37.640625 -41.625 C 37.578125 -39.800781 37.546875 -38.398438 37.546875 -37.421875 C 37.546875 -36.523438 37.566406 -35.675781 37.609375 -34.875 C 37.660156 -34.070312 37.707031 -33.40625 37.75 -32.875 L 36.21875 -32.875 C 35.769531 -36.125 35.078125 -38.691406 34.140625 -40.578125 C 33.203125 -42.472656 31.988281 -43.8125 30.5 -44.59375 C 29.007812 -45.375 27.257812 -45.765625 25.25 -45.765625 L 22.515625 -45.765625 C 21.222656 -45.765625 20.242188 -45.648438 19.578125 -45.421875 C 18.910156 -45.203125 18.460938 -44.757812 18.234375 -44.09375 C 18.015625 -43.425781 17.90625 -42.398438 17.90625 -41.015625 L 17.90625 -6.28125 C 17.90625 -4.894531 18.015625 -3.867188 18.234375 -3.203125 C 18.460938 -2.535156 18.910156 -2.085938 19.578125 -1.859375 C 20.242188 -1.640625 21.222656 -1.53125 22.515625 -1.53125 L 25.796875 -1.53125 C 27.796875 -1.53125 29.5625 -1.960938 31.09375 -2.828125 C 32.632812 -3.703125 33.953125 -5.1875 35.046875 -7.28125 C 36.140625 -9.375 36.972656 -12.203125 37.546875 -15.765625 L 39.078125 -15.765625 C 38.953125 -14.335938 38.890625 -12.46875 38.890625 -10.15625 C 38.890625 -9.132812 38.910156 -7.6875 38.953125 -5.8125 C 38.992188 -3.9375 39.128906 -2 39.359375 0 C 37.078125 -0.09375 34.507812 -0.148438 31.65625 -0.171875 C 28.8125 -0.191406 26.273438 -0.203125 24.046875 -0.203125 C 22.929688 -0.203125 21.503906 -0.203125 19.765625 -0.203125 C 18.035156 -0.203125 16.164062 -0.191406 14.15625 -0.171875 C 12.15625 -0.148438 10.128906 -0.125 8.078125 -0.09375 C 6.035156 -0.0703125 4.097656 -0.0390625 2.265625 0 L 2.265625 -1.34375 C 3.691406 -1.425781 4.757812 -1.597656 5.46875 -1.859375 C 6.1875 -2.128906 6.664062 -2.664062 6.90625 -3.46875 C 7.15625 -4.269531 7.28125 -5.472656 7.28125 -7.078125 L 7.28125 -40.21875 C 7.28125 -41.863281 7.15625 -43.078125 6.90625 -43.859375 C 6.664062 -44.640625 6.175781 -45.175781 5.4375 -45.46875 C 4.707031 -45.757812 3.648438 -45.925781 2.265625 -45.96875 L 2.265625 -47.296875 C 4.097656 -47.253906 6.035156 -47.222656 8.078125 -47.203125 C 10.128906 -47.179688 12.15625 -47.160156 14.15625 -47.140625 C 16.164062 -47.117188 18.035156 -47.109375 19.765625 -47.109375 C 21.503906 -47.109375 22.929688 -47.109375 24.046875 -47.109375 C 26.097656 -47.109375 28.425781 -47.117188 31.03125 -47.140625 C 33.632812 -47.160156 35.960938 -47.210938 38.015625 -47.296875 Z M 27.59375 -24.453125 C 27.59375 -24.453125 27.59375 -24.226562 27.59375 -23.78125 C 27.59375 -23.332031 27.59375 -23.109375 27.59375 -23.109375 L 15.90625 -23.109375 C 15.90625 -23.109375 15.90625 -23.332031 15.90625 -23.78125 C 15.90625 -24.226562 15.90625 -24.453125 15.90625 -24.453125 Z M 29.53125 -33.265625 C 29.351562 -30.734375 29.273438 -28.796875 29.296875 -27.453125 C 29.316406 -26.117188 29.328125 -24.894531 29.328125 -23.78125 C 29.328125 -22.664062 29.347656 -21.441406 29.390625 -20.109375 C 29.441406 -18.773438 29.554688 -16.835938 29.734375 -14.296875 L 28.1875 -14.296875 C 27.96875 -15.859375 27.554688 -17.304688 26.953125 -18.640625 C 26.359375 -19.972656 25.503906 -21.050781 24.390625 -21.875 C 23.273438 -22.695312 21.828125 -23.109375 20.046875 -23.109375 L 20.046875 -24.453125 C 21.378906 -24.453125 22.515625 -24.726562 23.453125 -25.28125 C 24.390625 -25.84375 25.15625 -26.578125 25.75 -27.484375 C 26.351562 -28.398438 26.832031 -29.367188 27.1875 -30.390625 C 27.550781 -31.421875 27.820312 -32.378906 28 -33.265625 Z M 29.53125 -33.265625 "/></g></g></g><g fill="#5087ff" fill-opacity="1"><g transform="translate(191.135182, 72.711568)"><g><path d="M 2.265625 -47.296875 C 3.378906 -47.253906 4.882812 -47.210938 6.78125 -47.171875 C 8.675781 -47.128906 10.554688 -47.109375 12.421875 -47.109375 C 14.566406 -47.109375 16.640625 -47.128906 18.640625 -47.171875 C 20.640625 -47.210938 22.066406 -47.234375 22.921875 -47.234375 C 27.054688 -47.234375 30.492188 -46.773438 33.234375 -45.859375 C 35.972656 -44.953125 38.019531 -43.628906 39.375 -41.890625 C 40.738281 -40.148438 41.421875 -38.054688 41.421875 -35.609375 C 41.421875 -34.097656 41.109375 -32.570312 40.484375 -31.03125 C 39.859375 -29.5 38.800781 -28.070312 37.3125 -26.75 C 35.820312 -25.4375 33.785156 -24.390625 31.203125 -23.609375 C 28.617188 -22.835938 25.367188 -22.453125 21.453125 -22.453125 L 15.03125 -22.453125 L 15.03125 -23.78125 L 20.78125 -23.78125 C 23.40625 -23.78125 25.394531 -24.28125 26.75 -25.28125 C 28.113281 -26.289062 29.050781 -27.628906 29.5625 -29.296875 C 30.070312 -30.960938 30.328125 -32.820312 30.328125 -34.875 C 30.328125 -38.394531 29.703125 -41.125 28.453125 -43.0625 C 27.210938 -45 25.078125 -45.96875 22.046875 -45.96875 C 20.304688 -45.96875 19.179688 -45.585938 18.671875 -44.828125 C 18.160156 -44.078125 17.90625 -42.539062 17.90625 -40.21875 L 17.90625 -7.078125 C 17.90625 -5.472656 18.023438 -4.269531 18.265625 -3.46875 C 18.515625 -2.664062 18.992188 -2.128906 19.703125 -1.859375 C 20.421875 -1.597656 21.492188 -1.425781 22.921875 -1.34375 L 22.921875 0 C 21.710938 -0.09375 20.195312 -0.148438 18.375 -0.171875 C 16.550781 -0.191406 14.703125 -0.203125 12.828125 -0.203125 C 10.691406 -0.203125 8.675781 -0.191406 6.78125 -0.171875 C 4.882812 -0.148438 3.378906 -0.09375 2.265625 0 L 2.265625 -1.34375 C 3.691406 -1.425781 4.757812 -1.597656 5.46875 -1.859375 C 6.1875 -2.128906 6.664062 -2.664062 6.90625 -3.46875 C 7.15625 -4.269531 7.28125 -5.472656 7.28125 -7.078125 L 7.28125 -40.21875 C 7.28125 -41.863281 7.15625 -43.078125 6.90625 -43.859375 C 6.664062 -44.640625 6.175781 -45.175781 5.4375 -45.46875 C 4.707031 -45.757812 3.648438 -45.925781 2.265625 -45.96875 Z M 14.90625 -23.578125 C 16.8125 -23.535156 18.46875 -23.445312 19.875 -23.3125 C 21.28125 -23.175781 22.515625 -23.050781 23.578125 -22.9375 C 24.648438 -22.832031 25.609375 -22.757812 26.453125 -22.71875 C 30.503906 -22.363281 33.5 -21.492188 35.4375 -20.109375 C 37.375 -18.734375 38.632812 -16.660156 39.21875 -13.890625 L 40.75 -7.015625 C 41.15625 -5.234375 41.578125 -3.984375 42.015625 -3.265625 C 42.460938 -2.554688 43.113281 -2.203125 43.96875 -2.203125 C 44.539062 -2.242188 45.015625 -2.382812 45.390625 -2.625 C 45.773438 -2.875 46.191406 -3.242188 46.640625 -3.734375 L 47.578125 -2.9375 C 46.367188 -1.5625 45.070312 -0.570312 43.6875 0.03125 C 42.3125 0.632812 40.644531 0.9375 38.6875 0.9375 C 36.28125 0.9375 34.296875 0.425781 32.734375 -0.59375 C 31.179688 -1.625 30.160156 -3.519531 29.671875 -6.28125 L 28.46875 -12.96875 C 28.15625 -14.832031 27.773438 -16.46875 27.328125 -17.875 C 26.878906 -19.28125 26.265625 -20.394531 25.484375 -21.21875 C 24.703125 -22.039062 23.625 -22.453125 22.25 -22.453125 L 15.03125 -22.453125 Z M 14.90625 -23.578125 "/></g></g></g><g fill="#5087ff" fill-opacity="1"><g transform="translate(237.363173, 72.711568)"><g><path d="M 42.890625 -47.296875 C 42.710938 -45.023438 42.585938 -42.84375 42.515625 -40.75 C 42.453125 -38.65625 42.421875 -37.050781 42.421875 -35.9375 C 42.421875 -34.957031 42.441406 -34.019531 42.484375 -33.125 C 42.535156 -32.238281 42.582031 -31.488281 42.625 -30.875 L 41.09375 -30.875 C 40.375 -34.613281 39.46875 -37.570312 38.375 -39.75 C 37.289062 -41.9375 35.988281 -43.484375 34.46875 -44.390625 C 32.957031 -45.304688 31.175781 -45.765625 29.125 -45.765625 L 27.59375 -45.765625 L 27.59375 -7.609375 C 27.59375 -5.828125 27.78125 -4.488281 28.15625 -3.59375 C 28.539062 -2.707031 29.242188 -2.117188 30.265625 -1.828125 C 31.285156 -1.546875 32.78125 -1.382812 34.75 -1.34375 L 34.75 0 C 33.363281 -0.0390625 31.523438 -0.0820312 29.234375 -0.125 C 26.941406 -0.175781 24.546875 -0.203125 22.046875 -0.203125 C 19.597656 -0.203125 17.28125 -0.175781 15.09375 -0.125 C 12.914062 -0.0820312 11.160156 -0.0390625 9.828125 0 L 9.828125 -1.34375 C 11.828125 -1.382812 13.335938 -1.546875 14.359375 -1.828125 C 15.390625 -2.117188 16.082031 -2.707031 16.4375 -3.59375 C 16.789062 -4.488281 16.96875 -5.828125 16.96875 -7.609375 L 16.96875 -45.765625 L 15.5 -45.765625 C 13.445312 -45.765625 11.664062 -45.304688 10.15625 -44.390625 C 8.644531 -43.484375 7.351562 -41.945312 6.28125 -39.78125 C 5.207031 -37.625 4.269531 -34.65625 3.46875 -30.875 L 1.9375 -30.875 C 2.03125 -31.488281 2.085938 -32.238281 2.109375 -33.125 C 2.128906 -34.019531 2.140625 -34.957031 2.140625 -35.9375 C 2.140625 -37.050781 2.101562 -38.65625 2.03125 -40.75 C 1.96875 -42.84375 1.847656 -45.023438 1.671875 -47.296875 C 3.722656 -47.253906 5.960938 -47.210938 8.390625 -47.171875 C 10.816406 -47.128906 13.253906 -47.109375 15.703125 -47.109375 C 18.148438 -47.109375 20.351562 -47.109375 22.3125 -47.109375 C 24.320312 -47.109375 26.539062 -47.109375 28.96875 -47.109375 C 31.394531 -47.109375 33.832031 -47.128906 36.28125 -47.171875 C 38.726562 -47.210938 40.929688 -47.253906 42.890625 -47.296875 Z M 42.890625 -47.296875 "/></g></g></g><g fill="#f4f4f4" fill-opacity="1"><g transform="translate(281.988125, 72.711568)"><g><path d="M 24.59375 -47.4375 L 40.828125 -5.609375 C 41.453125 -4.003906 42.148438 -2.898438 42.921875 -2.296875 C 43.703125 -1.703125 44.40625 -1.382812 45.03125 -1.34375 L 45.03125 0 C 43.695312 -0.09375 42.125 -0.148438 40.3125 -0.171875 C 38.507812 -0.191406 36.695312 -0.203125 34.875 -0.203125 C 32.820312 -0.203125 30.882812 -0.191406 29.0625 -0.171875 C 27.238281 -0.148438 25.789062 -0.09375 24.71875 0 L 24.71875 -1.34375 C 26.988281 -1.425781 28.425781 -1.8125 29.03125 -2.5 C 29.632812 -3.195312 29.488281 -4.679688 28.59375 -6.953125 L 17.234375 -38.015625 L 18.4375 -39.75 L 8.28125 -13.296875 C 7.300781 -10.847656 6.710938 -8.84375 6.515625 -7.28125 C 6.316406 -5.71875 6.425781 -4.515625 6.84375 -3.671875 C 7.269531 -2.828125 7.960938 -2.238281 8.921875 -1.90625 C 9.878906 -1.570312 11.023438 -1.382812 12.359375 -1.34375 L 12.359375 0 C 10.890625 -0.09375 9.484375 -0.148438 8.140625 -0.171875 C 6.804688 -0.191406 5.453125 -0.203125 4.078125 -0.203125 C 3.097656 -0.203125 2.171875 -0.191406 1.296875 -0.171875 C 0.429688 -0.148438 -0.332031 -0.09375 -1 0 L -1 -1.34375 C -0.0625 -1.519531 0.894531 -2.117188 1.875 -3.140625 C 2.851562 -4.160156 3.8125 -5.898438 4.75 -8.359375 L 19.984375 -47.4375 C 20.691406 -47.394531 21.457031 -47.375 22.28125 -47.375 C 23.101562 -47.375 23.875 -47.394531 24.59375 -47.4375 Z M 29.265625 -19.234375 L 29.265625 -17.90625 L 9.359375 -17.90625 L 10.015625 -19.234375 Z M 29.265625 -19.234375 "/></g></g></g><g fill="#f4f4f4" fill-opacity="1"><g transform="translate(326.546018, 72.711568)"><g><path d="M 22.921875 -47.296875 L 22.921875 -45.96875 C 21.492188 -45.925781 20.410156 -45.757812 19.671875 -45.46875 C 18.941406 -45.175781 18.460938 -44.640625 18.234375 -43.859375 C 18.015625 -43.078125 17.90625 -41.863281 17.90625 -40.21875 L 17.90625 -7.078125 C 17.90625 -5.472656 18.023438 -4.269531 18.265625 -3.46875 C 18.515625 -2.664062 18.992188 -2.128906 19.703125 -1.859375 C 20.421875 -1.597656 21.492188 -1.425781 22.921875 -1.34375 L 22.921875 0 C 21.710938 -0.09375 20.195312 -0.148438 18.375 -0.171875 C 16.550781 -0.191406 14.703125 -0.203125 12.828125 -0.203125 C 10.640625 -0.203125 8.625 -0.191406 6.78125 -0.171875 C 4.9375 -0.148438 3.429688 -0.09375 2.265625 0 L 2.265625 -1.34375 C 3.691406 -1.425781 4.757812 -1.597656 5.46875 -1.859375 C 6.1875 -2.128906 6.664062 -2.664062 6.90625 -3.46875 C 7.15625 -4.269531 7.28125 -5.472656 7.28125 -7.078125 L 7.28125 -40.21875 C 7.28125 -41.863281 7.15625 -43.078125 6.90625 -43.859375 C 6.664062 -44.640625 6.175781 -45.175781 5.4375 -45.46875 C 4.707031 -45.757812 3.648438 -45.925781 2.265625 -45.96875 L 2.265625 -47.296875 C 3.429688 -47.253906 4.9375 -47.210938 6.78125 -47.171875 C 8.625 -47.128906 10.640625 -47.109375 12.828125 -47.109375 C 14.703125 -47.109375 16.550781 -47.128906 18.375 -47.171875 C 20.195312 -47.210938 21.710938 -47.253906 22.921875 -47.296875 Z M 22.921875 -47.296875 "/></g></g></g></g></g></svg>