<svg xmlns="http://www.w3.org/2000/svg" xmlns:xlink="http://www.w3.org/1999/xlink" width="500" zoomAndPan="magnify" viewBox="0 0 375 374.999991" height="500" preserveAspectRatio="xMidYMid meet" version="1.0"><defs><g/><clipPath id="19ea44209a"><path d="M 24.914062 160.660156 L 63.722656 160.660156 L 63.722656 209.019531 L 24.914062 209.019531 Z M 24.914062 160.660156 " clip-rule="nonzero"/></clipPath><clipPath id="873a07e69d"><path d="M 62.328125 192.910156 C 63.171875 190.433594 63.722656 187.621094 63.722656 184.855469 C 63.722656 182.09375 63.25 179.4375 62.40625 176.984375 C 62.378906 176.933594 62.378906 176.882812 62.355469 176.828125 C 58.984375 167.628906 50.09375 160.851562 40.15625 160.722656 L 29.414062 160.722656 C 28.21875 160.722656 27.074219 161.195312 26.230469 162.039062 C 25.386719 162.882812 24.914062 164.027344 24.914062 165.222656 L 24.914062 204.519531 C 24.914062 205.710938 25.386719 206.855469 26.230469 207.699219 C 27.074219 208.542969 28.21875 209.019531 29.414062 209.019531 L 40.144531 209.019531 C 50.144531 208.886719 59.039062 202.214844 62.328125 192.910156 Z M 62.328125 192.910156 " clip-rule="nonzero"/></clipPath><clipPath id="383fcebfa2"><path d="M 0.914062 0.660156 L 39.722656 0.660156 L 39.722656 49.019531 L 0.914062 49.019531 Z M 0.914062 0.660156 " clip-rule="nonzero"/></clipPath><clipPath id="51b65df1cb"><path d="M 38.328125 32.910156 C 39.171875 30.433594 39.722656 27.621094 39.722656 24.855469 C 39.722656 22.09375 39.25 19.4375 38.40625 16.984375 C 38.378906 16.933594 38.378906 16.882812 38.355469 16.828125 C 34.984375 7.628906 26.09375 0.851562 16.15625 0.722656 L 5.414062 0.722656 C 4.21875 0.722656 3.074219 1.195312 2.230469 2.039062 C 1.386719 2.882812 0.914062 4.027344 0.914062 5.222656 L 0.914062 44.519531 C 0.914062 45.710938 1.386719 46.855469 2.230469 47.699219 C 3.074219 48.542969 4.21875 49.019531 5.414062 49.019531 L 16.144531 49.019531 C 26.144531 48.886719 35.039062 42.214844 38.328125 32.910156 Z M 38.328125 32.910156 " clip-rule="nonzero"/></clipPath><clipPath id="be1c6334bf"><rect x="0" width="40" y="0" height="50"/></clipPath><clipPath id="f357c484d1"><path d="M 26.847656 166.363281 L 62.492188 166.363281 L 62.492188 203.367188 L 26.847656 203.367188 Z M 26.847656 166.363281 " clip-rule="nonzero"/></clipPath><clipPath id="668a288653"><path d="M 45.90625 167.464844 L 47.847656 175.332031 C 48.609375 178.417969 50.996094 180.84375 54.070312 181.652344 L 61.410156 183.585938 C 62.007812 183.742188 62.421875 184.28125 62.421875 184.898438 C 62.421875 185.515625 62.007812 186.054688 61.410156 186.210938 L 54.070312 188.144531 C 50.996094 188.953125 48.609375 191.375 47.847656 194.460938 L 45.90625 202.332031 C 45.765625 202.902344 45.253906 203.300781 44.667969 203.300781 C 44.085938 203.300781 43.574219 202.902344 43.433594 202.332031 L 41.492188 194.460938 C 40.730469 191.375 38.34375 188.953125 35.269531 188.144531 L 27.929688 186.210938 C 27.332031 186.054688 26.914062 185.515625 26.914062 184.898438 C 26.914062 184.28125 27.332031 183.742188 27.929688 183.585938 L 35.269531 181.652344 C 38.34375 180.84375 40.730469 178.417969 41.492188 175.332031 L 43.433594 167.464844 C 43.574219 166.894531 44.085938 166.496094 44.667969 166.496094 C 45.253906 166.496094 45.765625 166.894531 45.90625 167.464844 Z M 45.90625 167.464844 " clip-rule="nonzero"/></clipPath><clipPath id="a35121d4c9"><path d="M 0.878906 0.363281 L 36.492188 0.363281 L 36.492188 37.367188 L 0.878906 37.367188 Z M 0.878906 0.363281 " clip-rule="nonzero"/></clipPath><clipPath id="b606709aee"><path d="M 19.90625 1.464844 L 21.847656 9.332031 C 22.609375 12.417969 24.996094 14.84375 28.070312 15.652344 L 35.410156 17.585938 C 36.007812 17.742188 36.421875 18.28125 36.421875 18.898438 C 36.421875 19.515625 36.007812 20.054688 35.410156 20.210938 L 28.070312 22.144531 C 24.996094 22.953125 22.609375 25.375 21.847656 28.460938 L 19.90625 36.332031 C 19.765625 36.902344 19.253906 37.300781 18.667969 37.300781 C 18.085938 37.300781 17.574219 36.902344 17.433594 36.332031 L 15.492188 28.460938 C 14.730469 25.375 12.34375 22.953125 9.269531 22.144531 L 1.929688 20.210938 C 1.332031 20.054688 0.914062 19.515625 0.914062 18.898438 C 0.914062 18.28125 1.332031 17.742188 1.929688 17.585938 L 9.269531 15.652344 C 12.34375 14.84375 14.730469 12.417969 15.492188 9.332031 L 17.433594 1.464844 C 17.574219 0.894531 18.085938 0.496094 18.667969 0.496094 C 19.253906 0.496094 19.765625 0.894531 19.90625 1.464844 Z M 19.90625 1.464844 " clip-rule="nonzero"/></clipPath><clipPath id="97cb939ef0"><rect x="0" width="37" y="0" height="38"/></clipPath><clipPath id="1cf6a2fbcc"><rect x="0" width="318" y="0" height="28"/></clipPath></defs><g clip-path="url(#19ea44209a)"><g clip-path="url(#873a07e69d)"><g transform="matrix(1, 0, 0, 1, 24, 160)"><g clip-path="url(#be1c6334bf)"><g clip-path="url(#383fcebfa2)"><g clip-path="url(#51b65df1cb)"><path fill="#5087ff" d="M 0.914062 49.019531 L 0.914062 0.660156 L 39.722656 0.660156 L 39.722656 49.019531 Z M 0.914062 49.019531 " fill-opacity="1" fill-rule="nonzero"/></g></g></g></g></g></g><g clip-path="url(#f357c484d1)"><g clip-path="url(#668a288653)"><g transform="matrix(1, 0, 0, 1, 26, 166)"><g clip-path="url(#97cb939ef0)"><g clip-path="url(#a35121d4c9)"><g clip-path="url(#b606709aee)"><rect x="-108.5" width="540" fill="#f4f4f4" height="539.999987" y="-248.499998" fill-opacity="1"/></g></g></g></g></g></g><g fill="#5087ff" fill-opacity="1"><g transform="translate(64.868555, 208.20649)"><g><path d="M 21.46875 -44.328125 L 21.46875 -43.078125 C 20.132812 -43.035156 19.125 -42.878906 18.4375 -42.609375 C 17.75 -42.335938 17.300781 -41.832031 17.09375 -41.09375 C 16.882812 -40.363281 16.78125 -39.226562 16.78125 -37.6875 L 16.78125 -6.640625 C 16.78125 -5.128906 16.894531 -4 17.125 -3.25 C 17.351562 -2.5 17.800781 -2 18.46875 -1.75 C 19.132812 -1.5 20.132812 -1.332031 21.46875 -1.25 L 21.46875 0 C 20.34375 -0.0820312 18.925781 -0.132812 17.21875 -0.15625 C 15.507812 -0.175781 13.773438 -0.1875 12.015625 -0.1875 C 9.972656 -0.1875 8.082031 -0.175781 6.34375 -0.15625 C 4.613281 -0.132812 3.207031 -0.0820312 2.125 0 L 2.125 -1.25 C 3.457031 -1.332031 4.457031 -1.5 5.125 -1.75 C 5.800781 -2 6.253906 -2.5 6.484375 -3.25 C 6.710938 -4 6.828125 -5.128906 6.828125 -6.640625 L 6.828125 -37.6875 C 6.828125 -39.226562 6.710938 -40.363281 6.484375 -41.09375 C 6.253906 -41.832031 5.789062 -42.335938 5.09375 -42.609375 C 4.40625 -42.878906 3.414062 -43.035156 2.125 -43.078125 L 2.125 -44.328125 C 3.207031 -44.285156 4.613281 -44.242188 6.34375 -44.203125 C 8.082031 -44.160156 9.972656 -44.140625 12.015625 -44.140625 C 13.773438 -44.140625 15.507812 -44.160156 17.21875 -44.203125 C 18.925781 -44.242188 20.34375 -44.285156 21.46875 -44.328125 Z M 21.46875 -44.328125 "/></g></g></g><g fill="#5087ff" fill-opacity="1"><g transform="translate(88.406716, 208.20649)"><g><path d="M 17.78125 -45.140625 C 20.238281 -45.140625 22.132812 -44.878906 23.46875 -44.359375 C 24.8125 -43.835938 25.960938 -43.285156 26.921875 -42.703125 C 27.421875 -42.410156 27.828125 -42.191406 28.140625 -42.046875 C 28.453125 -41.898438 28.753906 -41.828125 29.046875 -41.828125 C 29.460938 -41.828125 29.765625 -42.054688 29.953125 -42.515625 C 30.140625 -42.972656 30.296875 -43.660156 30.421875 -44.578125 L 31.875 -44.578125 C 31.832031 -43.785156 31.78125 -42.832031 31.71875 -41.71875 C 31.65625 -40.613281 31.613281 -39.164062 31.59375 -37.375 C 31.570312 -35.582031 31.5625 -33.222656 31.5625 -30.296875 L 30.109375 -30.296875 C 29.941406 -32.472656 29.441406 -34.582031 28.609375 -36.625 C 27.773438 -38.664062 26.597656 -40.34375 25.078125 -41.65625 C 23.554688 -42.976562 21.6875 -43.640625 19.46875 -43.640625 C 17.46875 -43.640625 15.816406 -43.078125 14.515625 -41.953125 C 13.222656 -40.828125 12.578125 -39.257812 12.578125 -37.25 C 12.578125 -35.582031 12.992188 -34.148438 13.828125 -32.953125 C 14.671875 -31.765625 15.894531 -30.609375 17.5 -29.484375 C 19.101562 -28.359375 21.054688 -27.003906 23.359375 -25.421875 C 25.359375 -24.128906 27.148438 -22.832031 28.734375 -21.53125 C 30.316406 -20.238281 31.585938 -18.78125 32.546875 -17.15625 C 33.515625 -15.53125 34 -13.585938 34 -11.328125 C 34 -8.578125 33.273438 -6.300781 31.828125 -4.5 C 30.390625 -2.707031 28.503906 -1.363281 26.171875 -0.46875 C 23.835938 0.425781 21.269531 0.875 18.46875 0.875 C 15.882812 0.875 13.816406 0.625 12.265625 0.125 C 10.722656 -0.375 9.429688 -0.894531 8.390625 -1.4375 C 7.472656 -2.019531 6.765625 -2.3125 6.265625 -2.3125 C 5.847656 -2.3125 5.546875 -2.082031 5.359375 -1.625 C 5.171875 -1.164062 5.015625 -0.476562 4.890625 0.4375 L 3.4375 0.4375 C 3.519531 -0.5625 3.570312 -1.726562 3.59375 -3.0625 C 3.613281 -4.40625 3.632812 -6.148438 3.65625 -8.296875 C 3.675781 -10.441406 3.6875 -13.164062 3.6875 -16.46875 L 5.140625 -16.46875 C 5.304688 -13.707031 5.773438 -11.128906 6.546875 -8.734375 C 7.316406 -6.335938 8.503906 -4.40625 10.109375 -2.9375 C 11.710938 -1.476562 13.851562 -0.75 16.53125 -0.75 C 17.988281 -0.75 19.289062 -1.007812 20.4375 -1.53125 C 21.582031 -2.050781 22.507812 -2.832031 23.21875 -3.875 C 23.9375 -4.925781 24.296875 -6.222656 24.296875 -7.765625 C 24.296875 -9.515625 23.882812 -11.035156 23.0625 -12.328125 C 22.25 -13.628906 21.144531 -14.84375 19.75 -15.96875 C 18.351562 -17.09375 16.738281 -18.238281 14.90625 -19.40625 C 12.9375 -20.695312 11.097656 -21.988281 9.390625 -23.28125 C 7.679688 -24.582031 6.3125 -26.066406 5.28125 -27.734375 C 4.257812 -29.398438 3.75 -31.382812 3.75 -33.6875 C 3.75 -36.3125 4.40625 -38.46875 5.71875 -40.15625 C 7.039062 -41.851562 8.773438 -43.109375 10.921875 -43.921875 C 13.078125 -44.734375 15.363281 -45.140625 17.78125 -45.140625 Z M 17.78125 -45.140625 "/></g></g></g><g fill="#5087ff" fill-opacity="1"><g transform="translate(124.965997, 208.20649)"><g><path d="M 17.78125 -45.140625 C 20.238281 -45.140625 22.132812 -44.878906 23.46875 -44.359375 C 24.8125 -43.835938 25.960938 -43.285156 26.921875 -42.703125 C 27.421875 -42.410156 27.828125 -42.191406 28.140625 -42.046875 C 28.453125 -41.898438 28.753906 -41.828125 29.046875 -41.828125 C 29.460938 -41.828125 29.765625 -42.054688 29.953125 -42.515625 C 30.140625 -42.972656 30.296875 -43.660156 30.421875 -44.578125 L 31.875 -44.578125 C 31.832031 -43.785156 31.78125 -42.832031 31.71875 -41.71875 C 31.65625 -40.613281 31.613281 -39.164062 31.59375 -37.375 C 31.570312 -35.582031 31.5625 -33.222656 31.5625 -30.296875 L 30.109375 -30.296875 C 29.941406 -32.472656 29.441406 -34.582031 28.609375 -36.625 C 27.773438 -38.664062 26.597656 -40.34375 25.078125 -41.65625 C 23.554688 -42.976562 21.6875 -43.640625 19.46875 -43.640625 C 17.46875 -43.640625 15.816406 -43.078125 14.515625 -41.953125 C 13.222656 -40.828125 12.578125 -39.257812 12.578125 -37.25 C 12.578125 -35.582031 12.992188 -34.148438 13.828125 -32.953125 C 14.671875 -31.765625 15.894531 -30.609375 17.5 -29.484375 C 19.101562 -28.359375 21.054688 -27.003906 23.359375 -25.421875 C 25.359375 -24.128906 27.148438 -22.832031 28.734375 -21.53125 C 30.316406 -20.238281 31.585938 -18.78125 32.546875 -17.15625 C 33.515625 -15.53125 34 -13.585938 34 -11.328125 C 34 -8.578125 33.273438 -6.300781 31.828125 -4.5 C 30.390625 -2.707031 28.503906 -1.363281 26.171875 -0.46875 C 23.835938 0.425781 21.269531 0.875 18.46875 0.875 C 15.882812 0.875 13.816406 0.625 12.265625 0.125 C 10.722656 -0.375 9.429688 -0.894531 8.390625 -1.4375 C 7.472656 -2.019531 6.765625 -2.3125 6.265625 -2.3125 C 5.847656 -2.3125 5.546875 -2.082031 5.359375 -1.625 C 5.171875 -1.164062 5.015625 -0.476562 4.890625 0.4375 L 3.4375 0.4375 C 3.519531 -0.5625 3.570312 -1.726562 3.59375 -3.0625 C 3.613281 -4.40625 3.632812 -6.148438 3.65625 -8.296875 C 3.675781 -10.441406 3.6875 -13.164062 3.6875 -16.46875 L 5.140625 -16.46875 C 5.304688 -13.707031 5.773438 -11.128906 6.546875 -8.734375 C 7.316406 -6.335938 8.503906 -4.40625 10.109375 -2.9375 C 11.710938 -1.476562 13.851562 -0.75 16.53125 -0.75 C 17.988281 -0.75 19.289062 -1.007812 20.4375 -1.53125 C 21.582031 -2.050781 22.507812 -2.832031 23.21875 -3.875 C 23.9375 -4.925781 24.296875 -6.222656 24.296875 -7.765625 C 24.296875 -9.515625 23.882812 -11.035156 23.0625 -12.328125 C 22.25 -13.628906 21.144531 -14.84375 19.75 -15.96875 C 18.351562 -17.09375 16.738281 -18.238281 14.90625 -19.40625 C 12.9375 -20.695312 11.097656 -21.988281 9.390625 -23.28125 C 7.679688 -24.582031 6.3125 -26.066406 5.28125 -27.734375 C 4.257812 -29.398438 3.75 -31.382812 3.75 -33.6875 C 3.75 -36.3125 4.40625 -38.46875 5.71875 -40.15625 C 7.039062 -41.851562 8.773438 -43.109375 10.921875 -43.921875 C 13.078125 -44.734375 15.363281 -45.140625 17.78125 -45.140625 Z M 17.78125 -45.140625 "/></g></g></g><g fill="#5087ff" fill-opacity="1"><g transform="translate(161.525279, 208.20649)"><g><path d="M 35.625 -44.328125 C 35.457031 -42.492188 35.34375 -40.71875 35.28125 -39 C 35.21875 -37.289062 35.1875 -35.976562 35.1875 -35.0625 C 35.1875 -34.226562 35.207031 -33.4375 35.25 -32.6875 C 35.289062 -31.9375 35.332031 -31.304688 35.375 -30.796875 L 33.9375 -30.796875 C 33.519531 -33.847656 32.867188 -36.257812 31.984375 -38.03125 C 31.109375 -39.8125 29.972656 -41.066406 28.578125 -41.796875 C 27.179688 -42.523438 25.546875 -42.890625 23.671875 -42.890625 L 21.09375 -42.890625 C 19.882812 -42.890625 18.96875 -42.785156 18.34375 -42.578125 C 17.71875 -42.367188 17.300781 -41.953125 17.09375 -41.328125 C 16.882812 -40.703125 16.78125 -39.738281 16.78125 -38.4375 L 16.78125 -5.890625 C 16.78125 -4.585938 16.882812 -3.625 17.09375 -3 C 17.300781 -2.375 17.71875 -1.957031 18.34375 -1.75 C 18.96875 -1.539062 19.882812 -1.4375 21.09375 -1.4375 L 24.171875 -1.4375 C 26.046875 -1.4375 27.703125 -1.84375 29.140625 -2.65625 C 30.585938 -3.46875 31.820312 -4.851562 32.84375 -6.8125 C 33.863281 -8.78125 34.644531 -11.4375 35.1875 -14.78125 L 36.625 -14.78125 C 36.5 -13.4375 36.4375 -11.679688 36.4375 -9.515625 C 36.4375 -8.554688 36.457031 -7.195312 36.5 -5.4375 C 36.539062 -3.6875 36.664062 -1.875 36.875 0 C 34.75 -0.0820312 32.347656 -0.132812 29.671875 -0.15625 C 27.003906 -0.175781 24.628906 -0.1875 22.546875 -0.1875 C 21.492188 -0.1875 20.15625 -0.1875 18.53125 -0.1875 C 16.90625 -0.1875 15.148438 -0.175781 13.265625 -0.15625 C 11.390625 -0.132812 9.492188 -0.113281 7.578125 -0.09375 C 5.660156 -0.0703125 3.84375 -0.0390625 2.125 0 L 2.125 -1.25 C 3.457031 -1.332031 4.457031 -1.5 5.125 -1.75 C 5.800781 -2 6.253906 -2.5 6.484375 -3.25 C 6.710938 -4 6.828125 -5.128906 6.828125 -6.640625 L 6.828125 -37.6875 C 6.828125 -39.226562 6.710938 -40.363281 6.484375 -41.09375 C 6.253906 -41.832031 5.789062 -42.335938 5.09375 -42.609375 C 4.40625 -42.878906 3.414062 -43.035156 2.125 -43.078125 L 2.125 -44.328125 C 3.84375 -44.285156 5.660156 -44.253906 7.578125 -44.234375 C 9.492188 -44.210938 11.390625 -44.191406 13.265625 -44.171875 C 15.148438 -44.148438 16.90625 -44.140625 18.53125 -44.140625 C 20.15625 -44.140625 21.492188 -44.140625 22.546875 -44.140625 C 24.460938 -44.140625 26.640625 -44.148438 29.078125 -44.171875 C 31.523438 -44.191406 33.707031 -44.242188 35.625 -44.328125 Z M 25.859375 -22.921875 C 25.859375 -22.921875 25.859375 -22.707031 25.859375 -22.28125 C 25.859375 -21.863281 25.859375 -21.65625 25.859375 -21.65625 L 14.90625 -21.65625 C 14.90625 -21.65625 14.90625 -21.863281 14.90625 -22.28125 C 14.90625 -22.707031 14.90625 -22.921875 14.90625 -22.921875 Z M 27.671875 -31.171875 C 27.503906 -28.796875 27.429688 -26.984375 27.453125 -25.734375 C 27.472656 -24.484375 27.484375 -23.332031 27.484375 -22.28125 C 27.484375 -21.238281 27.503906 -20.09375 27.546875 -18.84375 C 27.585938 -17.59375 27.691406 -15.773438 27.859375 -13.390625 L 26.421875 -13.390625 C 26.210938 -14.859375 25.828125 -16.21875 25.265625 -17.46875 C 24.703125 -18.71875 23.894531 -19.726562 22.84375 -20.5 C 21.800781 -21.269531 20.445312 -21.65625 18.78125 -21.65625 L 18.78125 -22.921875 C 20.03125 -22.921875 21.09375 -23.179688 21.96875 -23.703125 C 22.851562 -24.222656 23.578125 -24.910156 24.140625 -25.765625 C 24.703125 -26.617188 25.148438 -27.523438 25.484375 -28.484375 C 25.816406 -29.441406 26.066406 -30.335938 26.234375 -31.171875 Z M 27.671875 -31.171875 "/></g></g></g><g fill="#5087ff" fill-opacity="1"><g transform="translate(201.214634, 208.20649)"><g><path d="M 2.125 -44.328125 C 3.164062 -44.285156 4.570312 -44.242188 6.34375 -44.203125 C 8.125 -44.160156 9.890625 -44.140625 11.640625 -44.140625 C 13.648438 -44.140625 15.59375 -44.160156 17.46875 -44.203125 C 19.34375 -44.242188 20.675781 -44.265625 21.46875 -44.265625 C 25.351562 -44.265625 28.578125 -43.835938 31.140625 -42.984375 C 33.710938 -42.128906 35.632812 -40.882812 36.90625 -39.25 C 38.175781 -37.625 38.8125 -35.664062 38.8125 -33.375 C 38.8125 -31.945312 38.519531 -30.515625 37.9375 -29.078125 C 37.351562 -27.640625 36.363281 -26.304688 34.96875 -25.078125 C 33.570312 -23.847656 31.660156 -22.863281 29.234375 -22.125 C 26.816406 -21.394531 23.769531 -21.03125 20.09375 -21.03125 L 14.09375 -21.03125 L 14.09375 -22.28125 L 19.46875 -22.28125 C 21.9375 -22.28125 23.804688 -22.75 25.078125 -23.6875 C 26.347656 -24.632812 27.222656 -25.890625 27.703125 -27.453125 C 28.179688 -29.015625 28.421875 -30.757812 28.421875 -32.6875 C 28.421875 -35.976562 27.835938 -38.53125 26.671875 -40.34375 C 25.503906 -42.164062 23.5 -43.078125 20.65625 -43.078125 C 19.03125 -43.078125 17.976562 -42.722656 17.5 -42.015625 C 17.019531 -41.304688 16.78125 -39.863281 16.78125 -37.6875 L 16.78125 -6.640625 C 16.78125 -5.128906 16.894531 -4 17.125 -3.25 C 17.351562 -2.5 17.800781 -2 18.46875 -1.75 C 19.132812 -1.5 20.132812 -1.332031 21.46875 -1.25 L 21.46875 0 C 20.34375 -0.0820312 18.925781 -0.132812 17.21875 -0.15625 C 15.507812 -0.175781 13.773438 -0.1875 12.015625 -0.1875 C 10.015625 -0.1875 8.125 -0.175781 6.34375 -0.15625 C 4.570312 -0.132812 3.164062 -0.0820312 2.125 0 L 2.125 -1.25 C 3.457031 -1.332031 4.457031 -1.5 5.125 -1.75 C 5.800781 -2 6.253906 -2.5 6.484375 -3.25 C 6.710938 -4 6.828125 -5.128906 6.828125 -6.640625 L 6.828125 -37.6875 C 6.828125 -39.226562 6.710938 -40.363281 6.484375 -41.09375 C 6.253906 -41.832031 5.789062 -42.335938 5.09375 -42.609375 C 4.40625 -42.878906 3.414062 -43.035156 2.125 -43.078125 Z M 13.96875 -22.09375 C 15.757812 -22.050781 17.3125 -21.96875 18.625 -21.84375 C 19.9375 -21.71875 21.09375 -21.601562 22.09375 -21.5 C 23.101562 -21.394531 24.003906 -21.320312 24.796875 -21.28125 C 28.585938 -20.945312 31.390625 -20.132812 33.203125 -18.84375 C 35.023438 -17.550781 36.207031 -15.609375 36.75 -13.015625 L 38.1875 -6.578125 C 38.5625 -4.898438 38.957031 -3.726562 39.375 -3.0625 C 39.789062 -2.394531 40.398438 -2.0625 41.203125 -2.0625 C 41.742188 -2.101562 42.191406 -2.238281 42.546875 -2.46875 C 42.898438 -2.695312 43.285156 -3.039062 43.703125 -3.5 L 44.578125 -2.75 C 43.453125 -1.457031 42.238281 -0.53125 40.9375 0.03125 C 39.644531 0.59375 38.082031 0.875 36.25 0.875 C 34 0.875 32.140625 0.394531 30.671875 -0.5625 C 29.210938 -1.519531 28.253906 -3.296875 27.796875 -5.890625 L 26.671875 -12.140625 C 26.378906 -13.898438 26.023438 -15.4375 25.609375 -16.75 C 25.191406 -18.0625 24.617188 -19.101562 23.890625 -19.875 C 23.160156 -20.644531 22.144531 -21.03125 20.84375 -21.03125 L 14.09375 -21.03125 Z M 13.96875 -22.09375 "/></g></g></g><g fill="#5087ff" fill-opacity="1"><g transform="translate(244.534879, 208.20649)"><g><path d="M 40.1875 -44.328125 C 40.019531 -42.203125 39.90625 -40.15625 39.84375 -38.1875 C 39.78125 -36.226562 39.75 -34.726562 39.75 -33.6875 C 39.75 -32.769531 39.769531 -31.890625 39.8125 -31.046875 C 39.851562 -30.210938 39.894531 -29.503906 39.9375 -28.921875 L 38.5 -28.921875 C 37.832031 -32.429688 36.988281 -35.207031 35.96875 -37.25 C 34.945312 -39.300781 33.722656 -40.753906 32.296875 -41.609375 C 30.878906 -42.460938 29.210938 -42.890625 27.296875 -42.890625 L 25.859375 -42.890625 L 25.859375 -7.140625 C 25.859375 -5.472656 26.035156 -4.21875 26.390625 -3.375 C 26.742188 -2.539062 27.398438 -1.988281 28.359375 -1.71875 C 29.316406 -1.445312 30.71875 -1.289062 32.5625 -1.25 L 32.5625 0 C 31.257812 -0.0390625 29.535156 -0.0820312 27.390625 -0.125 C 25.242188 -0.164062 23 -0.1875 20.65625 -0.1875 C 18.363281 -0.1875 16.191406 -0.164062 14.140625 -0.125 C 12.097656 -0.0820312 10.453125 -0.0390625 9.203125 0 L 9.203125 -1.25 C 11.078125 -1.289062 12.492188 -1.445312 13.453125 -1.71875 C 14.421875 -1.988281 15.070312 -2.539062 15.40625 -3.375 C 15.738281 -4.21875 15.90625 -5.472656 15.90625 -7.140625 L 15.90625 -42.890625 L 14.53125 -42.890625 C 12.601562 -42.890625 10.929688 -42.460938 9.515625 -41.609375 C 8.097656 -40.753906 6.882812 -39.3125 5.875 -37.28125 C 4.875 -35.257812 4 -32.472656 3.25 -28.921875 L 1.8125 -28.921875 C 1.894531 -29.503906 1.945312 -30.210938 1.96875 -31.046875 C 1.988281 -31.890625 2 -32.769531 2 -33.6875 C 2 -34.726562 1.96875 -36.226562 1.90625 -38.1875 C 1.84375 -40.15625 1.726562 -42.203125 1.5625 -44.328125 C 3.476562 -44.285156 5.570312 -44.242188 7.84375 -44.203125 C 10.125 -44.160156 12.410156 -44.140625 14.703125 -44.140625 C 17.003906 -44.140625 19.070312 -44.140625 20.90625 -44.140625 C 22.789062 -44.140625 24.867188 -44.140625 27.140625 -44.140625 C 29.410156 -44.140625 31.691406 -44.160156 33.984375 -44.203125 C 36.285156 -44.242188 38.351562 -44.285156 40.1875 -44.328125 Z M 40.1875 -44.328125 "/></g></g></g><g fill="#f4f4f4" fill-opacity="1"><g transform="translate(286.352916, 208.20649)"><g><path d="M 23.046875 -44.453125 L 38.25 -5.265625 C 38.832031 -3.753906 39.488281 -2.71875 40.21875 -2.15625 C 40.957031 -1.59375 41.617188 -1.289062 42.203125 -1.25 L 42.203125 0 C 40.953125 -0.0820312 39.476562 -0.132812 37.78125 -0.15625 C 36.09375 -0.175781 34.394531 -0.1875 32.6875 -0.1875 C 30.757812 -0.1875 28.941406 -0.175781 27.234375 -0.15625 C 25.523438 -0.132812 24.171875 -0.0820312 23.171875 0 L 23.171875 -1.25 C 25.296875 -1.332031 26.640625 -1.695312 27.203125 -2.34375 C 27.765625 -2.988281 27.628906 -4.378906 26.796875 -6.515625 L 16.15625 -35.625 L 17.28125 -37.25 L 7.765625 -12.453125 C 6.847656 -10.160156 6.296875 -8.285156 6.109375 -6.828125 C 5.921875 -5.367188 6.023438 -4.238281 6.421875 -3.4375 C 6.816406 -2.644531 7.460938 -2.09375 8.359375 -1.78125 C 9.253906 -1.46875 10.328125 -1.289062 11.578125 -1.25 L 11.578125 0 C 10.203125 -0.0820312 8.890625 -0.132812 7.640625 -0.15625 C 6.390625 -0.175781 5.113281 -0.1875 3.8125 -0.1875 C 2.894531 -0.1875 2.03125 -0.175781 1.21875 -0.15625 C 0.40625 -0.132812 -0.3125 -0.0820312 -0.9375 0 L -0.9375 -1.25 C -0.0625 -1.414062 0.832031 -1.976562 1.75 -2.9375 C 2.664062 -3.894531 3.5625 -5.523438 4.4375 -7.828125 L 18.71875 -44.453125 C 19.382812 -44.410156 20.101562 -44.390625 20.875 -44.390625 C 21.644531 -44.390625 22.367188 -44.410156 23.046875 -44.453125 Z M 27.421875 -18.03125 L 27.421875 -16.78125 L 8.765625 -16.78125 L 9.390625 -18.03125 Z M 27.421875 -18.03125 "/></g></g></g><g fill="#f4f4f4" fill-opacity="1"><g transform="translate(328.108112, 208.20649)"><g><path d="M 21.46875 -44.328125 L 21.46875 -43.078125 C 20.132812 -43.035156 19.125 -42.878906 18.4375 -42.609375 C 17.75 -42.335938 17.300781 -41.832031 17.09375 -41.09375 C 16.882812 -40.363281 16.78125 -39.226562 16.78125 -37.6875 L 16.78125 -6.640625 C 16.78125 -5.128906 16.894531 -4 17.125 -3.25 C 17.351562 -2.5 17.800781 -2 18.46875 -1.75 C 19.132812 -1.5 20.132812 -1.332031 21.46875 -1.25 L 21.46875 0 C 20.34375 -0.0820312 18.925781 -0.132812 17.21875 -0.15625 C 15.507812 -0.175781 13.773438 -0.1875 12.015625 -0.1875 C 9.972656 -0.1875 8.082031 -0.175781 6.34375 -0.15625 C 4.613281 -0.132812 3.207031 -0.0820312 2.125 0 L 2.125 -1.25 C 3.457031 -1.332031 4.457031 -1.5 5.125 -1.75 C 5.800781 -2 6.253906 -2.5 6.484375 -3.25 C 6.710938 -4 6.828125 -5.128906 6.828125 -6.640625 L 6.828125 -37.6875 C 6.828125 -39.226562 6.710938 -40.363281 6.484375 -41.09375 C 6.253906 -41.832031 5.789062 -42.335938 5.09375 -42.609375 C 4.40625 -42.878906 3.414062 -43.035156 2.125 -43.078125 L 2.125 -44.328125 C 3.207031 -44.285156 4.613281 -44.242188 6.34375 -44.203125 C 8.082031 -44.160156 9.972656 -44.140625 12.015625 -44.140625 C 13.773438 -44.140625 15.507812 -44.160156 17.21875 -44.203125 C 18.925781 -44.242188 20.34375 -44.285156 21.46875 -44.328125 Z M 21.46875 -44.328125 "/></g></g></g><g transform="matrix(1, 0, 0, 1, 38, 225)"><g clip-path="url(#1cf6a2fbcc)"><g fill="#5087ff" fill-opacity="1"><g transform="translate(0.45049, 19.327724)"><g><path d="M 6.1875 0.234375 C 5.21875 0.234375 4.367188 0.0703125 3.640625 -0.25 C 2.910156 -0.582031 2.34375 -1.050781 1.9375 -1.65625 C 1.539062 -2.269531 1.320312 -2.988281 1.28125 -3.8125 L 2.375 -3.8125 C 2.4375 -2.875 2.8125 -2.140625 3.5 -1.609375 C 4.1875 -1.085938 5.082031 -0.828125 6.1875 -0.828125 C 7.238281 -0.828125 8.070312 -1.039062 8.6875 -1.46875 C 9.300781 -1.90625 9.609375 -2.5 9.609375 -3.25 C 9.609375 -3.914062 9.328125 -4.457031 8.765625 -4.875 C 8.203125 -5.300781 7.269531 -5.65625 5.96875 -5.9375 C 4.394531 -6.300781 3.253906 -6.769531 2.546875 -7.34375 C 1.835938 -7.925781 1.484375 -8.695312 1.484375 -9.65625 C 1.484375 -10.6875 1.875 -11.507812 2.65625 -12.125 C 3.4375 -12.75 4.515625 -13.0625 5.890625 -13.0625 C 7.304688 -13.0625 8.421875 -12.71875 9.234375 -12.03125 C 10.046875 -11.351562 10.472656 -10.398438 10.515625 -9.171875 L 9.421875 -9.171875 C 9.367188 -10.066406 9.035156 -10.757812 8.421875 -11.25 C 7.804688 -11.75 6.960938 -12 5.890625 -12 C 4.847656 -12 4.039062 -11.785156 3.46875 -11.359375 C 2.894531 -10.929688 2.609375 -10.363281 2.609375 -9.65625 C 2.609375 -9.019531 2.878906 -8.488281 3.421875 -8.0625 C 3.960938 -7.644531 4.90625 -7.285156 6.25 -6.984375 C 7.875 -6.609375 9.023438 -6.125 9.703125 -5.53125 C 10.390625 -4.9375 10.734375 -4.179688 10.734375 -3.265625 C 10.734375 -2.191406 10.320312 -1.335938 9.5 -0.703125 C 8.6875 -0.078125 7.582031 0.234375 6.1875 0.234375 Z M 6.1875 0.234375 "/></g></g></g><g fill="#5087ff" fill-opacity="1"><g transform="translate(12.675024, 19.327724)"><g><path d="M 2.078125 0 L 2.078125 -12.828125 L 9.625 -12.828125 L 9.625 -11.78125 L 3.1875 -11.78125 L 3.1875 -7.0625 L 9.140625 -7.0625 L 9.140625 -6.03125 L 3.1875 -6.03125 L 3.1875 -1.046875 L 9.828125 -1.046875 L 9.828125 0 Z M 2.078125 0 "/></g></g></g><g fill="#5087ff" fill-opacity="1"><g transform="translate(24.019846, 19.327724)"><g><path d="M 6.75 0.21875 C 5.238281 0.21875 4.050781 -0.242188 3.1875 -1.171875 C 2.332031 -2.109375 1.90625 -3.40625 1.90625 -5.0625 L 1.90625 -12.828125 L 3 -12.828125 L 3 -5.109375 C 3 -3.742188 3.328125 -2.691406 3.984375 -1.953125 C 4.640625 -1.222656 5.5625 -0.859375 6.75 -0.859375 C 7.945312 -0.859375 8.867188 -1.222656 9.515625 -1.953125 C 10.160156 -2.691406 10.484375 -3.742188 10.484375 -5.109375 L 10.484375 -12.828125 L 11.578125 -12.828125 L 11.578125 -5.0625 C 11.578125 -3.40625 11.144531 -2.109375 10.28125 -1.171875 C 9.425781 -0.242188 8.25 0.21875 6.75 0.21875 Z M 6.75 0.21875 "/></g></g></g><g fill="#5087ff" fill-opacity="1"><g transform="translate(37.692255, 19.327724)"><g/></g></g><g fill="#5087ff" fill-opacity="1"><g transform="translate(42.787397, 19.327724)"><g><path d="M 5.109375 0 L 5.109375 -11.765625 L 0.703125 -11.765625 L 0.703125 -12.828125 L 10.65625 -12.828125 L 10.65625 -11.765625 L 6.21875 -11.765625 L 6.21875 0 Z M 5.109375 0 "/></g></g></g><g fill="#5087ff" fill-opacity="1"><g transform="translate(54.315485, 19.327724)"><g><path d="M 6.75 0.21875 C 5.238281 0.21875 4.050781 -0.242188 3.1875 -1.171875 C 2.332031 -2.109375 1.90625 -3.40625 1.90625 -5.0625 L 1.90625 -12.828125 L 3 -12.828125 L 3 -5.109375 C 3 -3.742188 3.328125 -2.691406 3.984375 -1.953125 C 4.640625 -1.222656 5.5625 -0.859375 6.75 -0.859375 C 7.945312 -0.859375 8.867188 -1.222656 9.515625 -1.953125 C 10.160156 -2.691406 10.484375 -3.742188 10.484375 -5.109375 L 10.484375 -12.828125 L 11.578125 -12.828125 L 11.578125 -5.0625 C 11.578125 -3.40625 11.144531 -2.109375 10.28125 -1.171875 C 9.425781 -0.242188 8.25 0.21875 6.75 0.21875 Z M 6.75 0.21875 "/></g></g></g><g fill="#5087ff" fill-opacity="1"><g transform="translate(67.987894, 19.327724)"><g><path d="M 5.109375 0 L 5.109375 -11.765625 L 0.703125 -11.765625 L 0.703125 -12.828125 L 10.65625 -12.828125 L 10.65625 -11.765625 L 6.21875 -11.765625 L 6.21875 0 Z M 5.109375 0 "/></g></g></g><g fill="#5087ff" fill-opacity="1"><g transform="translate(79.515982, 19.327724)"><g><path d="M 7.796875 0.234375 C 6.492188 0.234375 5.34375 -0.046875 4.34375 -0.609375 C 3.351562 -1.171875 2.578125 -1.953125 2.015625 -2.953125 C 1.453125 -3.953125 1.171875 -5.109375 1.171875 -6.421875 C 1.171875 -7.722656 1.453125 -8.875 2.015625 -9.875 C 2.578125 -10.875 3.351562 -11.65625 4.34375 -12.21875 C 5.34375 -12.78125 6.492188 -13.0625 7.796875 -13.0625 C 9.097656 -13.0625 10.242188 -12.78125 11.234375 -12.21875 C 12.234375 -11.65625 13.007812 -10.875 13.5625 -9.875 C 14.125 -8.875 14.40625 -7.722656 14.40625 -6.421875 C 14.40625 -5.109375 14.125 -3.953125 13.5625 -2.953125 C 13.007812 -1.953125 12.234375 -1.171875 11.234375 -0.609375 C 10.242188 -0.046875 9.097656 0.234375 7.796875 0.234375 Z M 2.3125 -6.421875 C 2.3125 -5.328125 2.539062 -4.359375 3 -3.515625 C 3.46875 -2.679688 4.113281 -2.03125 4.9375 -1.5625 C 5.757812 -1.101562 6.710938 -0.875 7.796875 -0.875 C 8.878906 -0.875 9.832031 -1.101562 10.65625 -1.5625 C 11.476562 -2.03125 12.117188 -2.679688 12.578125 -3.515625 C 13.046875 -4.359375 13.28125 -5.328125 13.28125 -6.421875 C 13.28125 -7.515625 13.046875 -8.476562 12.578125 -9.3125 C 12.117188 -10.144531 11.476562 -10.789062 10.65625 -11.25 C 9.832031 -11.71875 8.878906 -11.953125 7.796875 -11.953125 C 6.710938 -11.953125 5.757812 -11.71875 4.9375 -11.25 C 4.113281 -10.789062 3.46875 -10.144531 3 -9.3125 C 2.539062 -8.476562 2.3125 -7.515625 2.3125 -6.421875 Z M 2.3125 -6.421875 "/></g></g></g><g fill="#5087ff" fill-opacity="1"><g transform="translate(95.277729, 19.327724)"><g><path d="M 2.078125 0 L 2.078125 -12.828125 L 6.8125 -12.828125 C 7.6875 -12.828125 8.441406 -12.660156 9.078125 -12.328125 C 9.710938 -12.003906 10.207031 -11.546875 10.5625 -10.953125 C 10.914062 -10.359375 11.09375 -9.648438 11.09375 -8.828125 C 11.09375 -7.765625 10.796875 -6.890625 10.203125 -6.203125 C 9.617188 -5.515625 8.820312 -5.082031 7.8125 -4.90625 L 11.296875 0 L 9.953125 0 L 6.5 -4.828125 L 3.1875 -4.828125 L 3.1875 0 Z M 3.1875 -5.890625 L 6.703125 -5.890625 C 7.722656 -5.890625 8.519531 -6.148438 9.09375 -6.671875 C 9.664062 -7.191406 9.953125 -7.910156 9.953125 -8.828125 C 9.953125 -9.734375 9.664062 -10.445312 9.09375 -10.96875 C 8.519531 -11.5 7.722656 -11.765625 6.703125 -11.765625 L 3.1875 -11.765625 Z M 3.1875 -5.890625 "/></g></g></g><g fill="#5087ff" fill-opacity="1"><g transform="translate(107.997109, 19.327724)"><g/></g></g><g fill="#5087ff" fill-opacity="1"><g transform="translate(113.092252, 19.327724)"><g><path d="M 2.078125 0 L 2.078125 -12.828125 L 6.140625 -12.828125 C 7.628906 -12.828125 8.789062 -12.457031 9.625 -11.71875 C 10.457031 -10.976562 10.875 -9.941406 10.875 -8.609375 C 10.875 -7.273438 10.457031 -6.238281 9.625 -5.5 C 8.789062 -4.769531 7.628906 -4.40625 6.140625 -4.40625 L 3.1875 -4.40625 L 3.1875 0 Z M 3.1875 -5.421875 L 6.125 -5.421875 C 8.539062 -5.421875 9.75 -6.476562 9.75 -8.59375 C 9.75 -10.707031 8.539062 -11.765625 6.125 -11.765625 L 3.1875 -11.765625 Z M 3.1875 -5.421875 "/></g></g></g><g fill="#5087ff" fill-opacity="1"><g transform="translate(125.005221, 19.327724)"><g><path d="M 2.078125 0 L 2.078125 -12.828125 L 9.625 -12.828125 L 9.625 -11.78125 L 3.1875 -11.78125 L 3.1875 -7.0625 L 9.140625 -7.0625 L 9.140625 -6.03125 L 3.1875 -6.03125 L 3.1875 -1.046875 L 9.828125 -1.046875 L 9.828125 0 Z M 2.078125 0 "/></g></g></g><g fill="#5087ff" fill-opacity="1"><g transform="translate(136.350043, 19.327724)"><g><path d="M 6.1875 0.234375 C 5.21875 0.234375 4.367188 0.0703125 3.640625 -0.25 C 2.910156 -0.582031 2.34375 -1.050781 1.9375 -1.65625 C 1.539062 -2.269531 1.320312 -2.988281 1.28125 -3.8125 L 2.375 -3.8125 C 2.4375 -2.875 2.8125 -2.140625 3.5 -1.609375 C 4.1875 -1.085938 5.082031 -0.828125 6.1875 -0.828125 C 7.238281 -0.828125 8.070312 -1.039062 8.6875 -1.46875 C 9.300781 -1.90625 9.609375 -2.5 9.609375 -3.25 C 9.609375 -3.914062 9.328125 -4.457031 8.765625 -4.875 C 8.203125 -5.300781 7.269531 -5.65625 5.96875 -5.9375 C 4.394531 -6.300781 3.253906 -6.769531 2.546875 -7.34375 C 1.835938 -7.925781 1.484375 -8.695312 1.484375 -9.65625 C 1.484375 -10.6875 1.875 -11.507812 2.65625 -12.125 C 3.4375 -12.75 4.515625 -13.0625 5.890625 -13.0625 C 7.304688 -13.0625 8.421875 -12.71875 9.234375 -12.03125 C 10.046875 -11.351562 10.472656 -10.398438 10.515625 -9.171875 L 9.421875 -9.171875 C 9.367188 -10.066406 9.035156 -10.757812 8.421875 -11.25 C 7.804688 -11.75 6.960938 -12 5.890625 -12 C 4.847656 -12 4.039062 -11.785156 3.46875 -11.359375 C 2.894531 -10.929688 2.609375 -10.363281 2.609375 -9.65625 C 2.609375 -9.019531 2.878906 -8.488281 3.421875 -8.0625 C 3.960938 -7.644531 4.90625 -7.285156 6.25 -6.984375 C 7.875 -6.609375 9.023438 -6.125 9.703125 -5.53125 C 10.390625 -4.9375 10.734375 -4.179688 10.734375 -3.265625 C 10.734375 -2.191406 10.320312 -1.335938 9.5 -0.703125 C 8.6875 -0.078125 7.582031 0.234375 6.1875 0.234375 Z M 6.1875 0.234375 "/></g></g></g><g fill="#5087ff" fill-opacity="1"><g transform="translate(148.574577, 19.327724)"><g><path d="M 6.1875 0.234375 C 5.21875 0.234375 4.367188 0.0703125 3.640625 -0.25 C 2.910156 -0.582031 2.34375 -1.050781 1.9375 -1.65625 C 1.539062 -2.269531 1.320312 -2.988281 1.28125 -3.8125 L 2.375 -3.8125 C 2.4375 -2.875 2.8125 -2.140625 3.5 -1.609375 C 4.1875 -1.085938 5.082031 -0.828125 6.1875 -0.828125 C 7.238281 -0.828125 8.070312 -1.039062 8.6875 -1.46875 C 9.300781 -1.90625 9.609375 -2.5 9.609375 -3.25 C 9.609375 -3.914062 9.328125 -4.457031 8.765625 -4.875 C 8.203125 -5.300781 7.269531 -5.65625 5.96875 -5.9375 C 4.394531 -6.300781 3.253906 -6.769531 2.546875 -7.34375 C 1.835938 -7.925781 1.484375 -8.695312 1.484375 -9.65625 C 1.484375 -10.6875 1.875 -11.507812 2.65625 -12.125 C 3.4375 -12.75 4.515625 -13.0625 5.890625 -13.0625 C 7.304688 -13.0625 8.421875 -12.71875 9.234375 -12.03125 C 10.046875 -11.351562 10.472656 -10.398438 10.515625 -9.171875 L 9.421875 -9.171875 C 9.367188 -10.066406 9.035156 -10.757812 8.421875 -11.25 C 7.804688 -11.75 6.960938 -12 5.890625 -12 C 4.847656 -12 4.039062 -11.785156 3.46875 -11.359375 C 2.894531 -10.929688 2.609375 -10.363281 2.609375 -9.65625 C 2.609375 -9.019531 2.878906 -8.488281 3.421875 -8.0625 C 3.960938 -7.644531 4.90625 -7.285156 6.25 -6.984375 C 7.875 -6.609375 9.023438 -6.125 9.703125 -5.53125 C 10.390625 -4.9375 10.734375 -4.179688 10.734375 -3.265625 C 10.734375 -2.191406 10.320312 -1.335938 9.5 -0.703125 C 8.6875 -0.078125 7.582031 0.234375 6.1875 0.234375 Z M 6.1875 0.234375 "/></g></g></g><g fill="#5087ff" fill-opacity="1"><g transform="translate(160.799111, 19.327724)"><g><path d="M 7.796875 0.234375 C 6.492188 0.234375 5.34375 -0.046875 4.34375 -0.609375 C 3.351562 -1.171875 2.578125 -1.953125 2.015625 -2.953125 C 1.453125 -3.953125 1.171875 -5.109375 1.171875 -6.421875 C 1.171875 -7.722656 1.453125 -8.875 2.015625 -9.875 C 2.578125 -10.875 3.351562 -11.65625 4.34375 -12.21875 C 5.34375 -12.78125 6.492188 -13.0625 7.796875 -13.0625 C 9.097656 -13.0625 10.242188 -12.78125 11.234375 -12.21875 C 12.234375 -11.65625 13.007812 -10.875 13.5625 -9.875 C 14.125 -8.875 14.40625 -7.722656 14.40625 -6.421875 C 14.40625 -5.109375 14.125 -3.953125 13.5625 -2.953125 C 13.007812 -1.953125 12.234375 -1.171875 11.234375 -0.609375 C 10.242188 -0.046875 9.097656 0.234375 7.796875 0.234375 Z M 2.3125 -6.421875 C 2.3125 -5.328125 2.539062 -4.359375 3 -3.515625 C 3.46875 -2.679688 4.113281 -2.03125 4.9375 -1.5625 C 5.757812 -1.101562 6.710938 -0.875 7.796875 -0.875 C 8.878906 -0.875 9.832031 -1.101562 10.65625 -1.5625 C 11.476562 -2.03125 12.117188 -2.679688 12.578125 -3.515625 C 13.046875 -4.359375 13.28125 -5.328125 13.28125 -6.421875 C 13.28125 -7.515625 13.046875 -8.476562 12.578125 -9.3125 C 12.117188 -10.144531 11.476562 -10.789062 10.65625 -11.25 C 9.832031 -11.71875 8.878906 -11.953125 7.796875 -11.953125 C 6.710938 -11.953125 5.757812 -11.71875 4.9375 -11.25 C 4.113281 -10.789062 3.46875 -10.144531 3 -9.3125 C 2.539062 -8.476562 2.3125 -7.515625 2.3125 -6.421875 Z M 2.3125 -6.421875 "/></g></g></g><g fill="#5087ff" fill-opacity="1"><g transform="translate(176.560857, 19.327724)"><g><path d="M 0.40625 0 L 5.71875 -12.828125 L 6.78125 -12.828125 L 12.09375 0 L 10.921875 0 L 9.578125 -3.21875 L 2.921875 -3.21875 L 1.59375 0 Z M 3.359375 -4.25 L 9.171875 -4.25 L 6.25 -11.3125 Z M 3.359375 -4.25 "/></g></g></g><g fill="#5087ff" fill-opacity="1"><g transform="translate(189.261905, 19.327724)"><g><path d="M 2.078125 0 L 2.078125 -12.828125 L 3.1875 -12.828125 L 3.1875 -1.0625 L 9.703125 -1.0625 L 9.703125 0 Z M 2.078125 0 "/></g></g></g><g fill="#5087ff" fill-opacity="1"><g transform="translate(199.76365, 19.327724)"><g/></g></g><g fill="#5087ff" fill-opacity="1"><g transform="translate(204.858792, 19.327724)"><g><path d="M 2.078125 0 L 2.078125 -12.828125 L 6.125 -12.828125 C 7.488281 -12.828125 8.664062 -12.5625 9.65625 -12.03125 C 10.65625 -11.5 11.425781 -10.753906 11.96875 -9.796875 C 12.519531 -8.835938 12.796875 -7.710938 12.796875 -6.421875 C 12.796875 -5.128906 12.519531 -4 11.96875 -3.03125 C 11.425781 -2.070312 10.65625 -1.328125 9.65625 -0.796875 C 8.664062 -0.265625 7.488281 0 6.125 0 Z M 3.1875 -1.0625 L 6.125 -1.0625 C 7.257812 -1.0625 8.238281 -1.28125 9.0625 -1.71875 C 9.894531 -2.15625 10.535156 -2.773438 10.984375 -3.578125 C 11.429688 -4.378906 11.65625 -5.328125 11.65625 -6.421875 C 11.65625 -7.503906 11.425781 -8.445312 10.96875 -9.25 C 10.519531 -10.050781 9.878906 -10.671875 9.046875 -11.109375 C 8.222656 -11.546875 7.234375 -11.765625 6.078125 -11.765625 L 3.1875 -11.765625 Z M 3.1875 -1.0625 "/></g></g></g><g fill="#5087ff" fill-opacity="1"><g transform="translate(219.007715, 19.327724)"><g><path d="M 2.078125 0 L 2.078125 -12.828125 L 9.625 -12.828125 L 9.625 -11.78125 L 3.1875 -11.78125 L 3.1875 -7.0625 L 9.140625 -7.0625 L 9.140625 -6.03125 L 3.1875 -6.03125 L 3.1875 -1.046875 L 9.828125 -1.046875 L 9.828125 0 Z M 2.078125 0 "/></g></g></g><g fill="#5087ff" fill-opacity="1"><g transform="translate(230.352537, 19.327724)"><g/></g></g><g fill="#5087ff" fill-opacity="1"><g transform="translate(235.447679, 19.327724)"><g><path d="M 2.078125 0 L 2.078125 -12.828125 L 9.625 -12.828125 L 9.625 -11.78125 L 3.1875 -11.78125 L 3.1875 -7.0625 L 9.140625 -7.0625 L 9.140625 -6.03125 L 3.1875 -6.03125 L 3.1875 -1.046875 L 9.828125 -1.046875 L 9.828125 0 Z M 2.078125 0 "/></g></g></g><g fill="#5087ff" fill-opacity="1"><g transform="translate(246.792501, 19.327724)"><g><path d="M 6.1875 0.234375 C 5.21875 0.234375 4.367188 0.0703125 3.640625 -0.25 C 2.910156 -0.582031 2.34375 -1.050781 1.9375 -1.65625 C 1.539062 -2.269531 1.320312 -2.988281 1.28125 -3.8125 L 2.375 -3.8125 C 2.4375 -2.875 2.8125 -2.140625 3.5 -1.609375 C 4.1875 -1.085938 5.082031 -0.828125 6.1875 -0.828125 C 7.238281 -0.828125 8.070312 -1.039062 8.6875 -1.46875 C 9.300781 -1.90625 9.609375 -2.5 9.609375 -3.25 C 9.609375 -3.914062 9.328125 -4.457031 8.765625 -4.875 C 8.203125 -5.300781 7.269531 -5.65625 5.96875 -5.9375 C 4.394531 -6.300781 3.253906 -6.769531 2.546875 -7.34375 C 1.835938 -7.925781 1.484375 -8.695312 1.484375 -9.65625 C 1.484375 -10.6875 1.875 -11.507812 2.65625 -12.125 C 3.4375 -12.75 4.515625 -13.0625 5.890625 -13.0625 C 7.304688 -13.0625 8.421875 -12.71875 9.234375 -12.03125 C 10.046875 -11.351562 10.472656 -10.398438 10.515625 -9.171875 L 9.421875 -9.171875 C 9.367188 -10.066406 9.035156 -10.757812 8.421875 -11.25 C 7.804688 -11.75 6.960938 -12 5.890625 -12 C 4.847656 -12 4.039062 -11.785156 3.46875 -11.359375 C 2.894531 -10.929688 2.609375 -10.363281 2.609375 -9.65625 C 2.609375 -9.019531 2.878906 -8.488281 3.421875 -8.0625 C 3.960938 -7.644531 4.90625 -7.285156 6.25 -6.984375 C 7.875 -6.609375 9.023438 -6.125 9.703125 -5.53125 C 10.390625 -4.9375 10.734375 -4.179688 10.734375 -3.265625 C 10.734375 -2.191406 10.320312 -1.335938 9.5 -0.703125 C 8.6875 -0.078125 7.582031 0.234375 6.1875 0.234375 Z M 6.1875 0.234375 "/></g></g></g><g fill="#5087ff" fill-opacity="1"><g transform="translate(259.01705, 19.327724)"><g><path d="M 7.671875 0.234375 C 6.421875 0.234375 5.304688 -0.046875 4.328125 -0.609375 C 3.347656 -1.179688 2.578125 -1.96875 2.015625 -2.96875 C 1.453125 -3.96875 1.171875 -5.117188 1.171875 -6.421875 C 1.171875 -7.722656 1.453125 -8.867188 2.015625 -9.859375 C 2.578125 -10.859375 3.347656 -11.640625 4.328125 -12.203125 C 5.304688 -12.773438 6.421875 -13.0625 7.671875 -13.0625 C 8.648438 -13.0625 9.554688 -12.878906 10.390625 -12.515625 C 11.222656 -12.160156 11.9375 -11.65625 12.53125 -11 C 13.132812 -10.351562 13.578125 -9.578125 13.859375 -8.671875 L 12.6875 -8.671875 C 12.320312 -9.679688 11.691406 -10.476562 10.796875 -11.0625 C 9.898438 -11.65625 8.867188 -11.953125 7.703125 -11.953125 C 6.660156 -11.953125 5.734375 -11.71875 4.921875 -11.25 C 4.109375 -10.789062 3.46875 -10.144531 3 -9.3125 C 2.539062 -8.476562 2.3125 -7.515625 2.3125 -6.421875 C 2.3125 -5.328125 2.539062 -4.359375 3 -3.515625 C 3.46875 -2.679688 4.109375 -2.03125 4.921875 -1.5625 C 5.734375 -1.101562 6.660156 -0.875 7.703125 -0.875 C 8.898438 -0.875 9.957031 -1.179688 10.875 -1.796875 C 11.800781 -2.410156 12.441406 -3.25 12.796875 -4.3125 L 13.96875 -4.3125 C 13.707031 -3.394531 13.269531 -2.59375 12.65625 -1.90625 C 12.050781 -1.21875 11.320312 -0.6875 10.46875 -0.3125 C 9.625 0.0507812 8.691406 0.234375 7.671875 0.234375 Z M 7.671875 0.234375 "/></g></g></g><g fill="#5087ff" fill-opacity="1"><g transform="translate(274.265617, 19.327724)"><g><path d="M 2.078125 0 L 2.078125 -12.828125 L 6.8125 -12.828125 C 7.6875 -12.828125 8.441406 -12.660156 9.078125 -12.328125 C 9.710938 -12.003906 10.207031 -11.546875 10.5625 -10.953125 C 10.914062 -10.359375 11.09375 -9.648438 11.09375 -8.828125 C 11.09375 -7.765625 10.796875 -6.890625 10.203125 -6.203125 C 9.617188 -5.515625 8.820312 -5.082031 7.8125 -4.90625 L 11.296875 0 L 9.953125 0 L 6.5 -4.828125 L 3.1875 -4.828125 L 3.1875 0 Z M 3.1875 -5.890625 L 6.703125 -5.890625 C 7.722656 -5.890625 8.519531 -6.148438 9.09375 -6.671875 C 9.664062 -7.191406 9.953125 -7.910156 9.953125 -8.828125 C 9.953125 -9.734375 9.664062 -10.445312 9.09375 -10.96875 C 8.519531 -11.5 7.722656 -11.765625 6.703125 -11.765625 L 3.1875 -11.765625 Z M 3.1875 -5.890625 "/></g></g></g><g fill="#5087ff" fill-opacity="1"><g transform="translate(286.984968, 19.327724)"><g><path d="M 2.078125 0 L 2.078125 -12.828125 L 3.1875 -12.828125 L 3.1875 0 Z M 2.078125 0 "/></g></g></g><g fill="#5087ff" fill-opacity="1"><g transform="translate(292.428341, 19.327724)"><g><path d="M 5.109375 0 L 5.109375 -11.765625 L 0.703125 -11.765625 L 0.703125 -12.828125 L 10.65625 -12.828125 L 10.65625 -11.765625 L 6.21875 -11.765625 L 6.21875 0 Z M 5.109375 0 "/></g></g></g><g fill="#5087ff" fill-opacity="1"><g transform="translate(303.956414, 19.327724)"><g><path d="M 0.40625 0 L 5.71875 -12.828125 L 6.78125 -12.828125 L 12.09375 0 L 10.921875 0 L 9.578125 -3.21875 L 2.921875 -3.21875 L 1.59375 0 Z M 3.359375 -4.25 L 9.171875 -4.25 L 6.25 -11.3125 Z M 3.359375 -4.25 "/></g></g></g></g></g></svg>