<svg xmlns="http://www.w3.org/2000/svg" xmlns:xlink="http://www.w3.org/1999/xlink" width="500" zoomAndPan="magnify" viewBox="0 0 375 374.999991" height="500" preserveAspectRatio="xMidYMid meet" version="1.0"><defs><clipPath id="fdf2907661"><path d="M 63.507812 33 L 311.492188 33 L 311.492188 342 L 63.507812 342 Z M 63.507812 33 " clip-rule="nonzero"/></clipPath><clipPath id="3ea5db484f"><path d="M 302.582031 238.875 C 307.960938 223.054688 311.492188 205.066406 311.492188 187.414062 C 311.492188 169.757812 308.464844 152.769531 303.082031 137.117188 C 302.917969 136.78125 302.917969 136.449219 302.75 136.117188 C 281.226562 77.328125 224.394531 34.027344 160.910156 33.191406 L 112.207031 33.191406 C 99.292969 33.191406 86.90625 38.324219 77.773438 47.457031 C 68.636719 56.589844 63.507812 68.976562 63.507812 81.894531 L 63.507812 293.132812 C 63.507812 306.039062 68.632812 318.417969 77.761719 327.546875 C 86.886719 336.671875 99.265625 341.800781 112.171875 341.800781 L 160.835938 341.800781 C 224.730469 340.964844 281.5625 298.332031 302.582031 238.875 Z M 302.582031 238.875 " clip-rule="nonzero"/></clipPath><clipPath id="afa40b93c2"><path d="M 0.507812 0.121094 L 248.492188 0.121094 L 248.492188 309 L 0.507812 309 Z M 0.507812 0.121094 " clip-rule="nonzero"/></clipPath><clipPath id="7ecd986f64"><path d="M 239.582031 205.875 C 244.960938 190.054688 248.492188 172.066406 248.492188 154.414062 C 248.492188 136.757812 245.464844 119.769531 240.082031 104.117188 C 239.917969 103.78125 239.917969 103.449219 239.75 103.117188 C 218.226562 44.328125 161.394531 1.027344 97.910156 0.191406 L 49.207031 0.191406 C 36.292969 0.191406 23.90625 5.324219 14.773438 14.457031 C 5.636719 23.589844 0.507812 35.976562 0.507812 48.894531 L 0.507812 260.132812 C 0.507812 273.039062 5.632812 285.417969 14.761719 294.546875 C 23.886719 303.671875 36.265625 308.800781 49.171875 308.800781 L 97.835938 308.800781 C 161.730469 307.964844 218.5625 265.332031 239.582031 205.875 Z M 239.582031 205.875 " clip-rule="nonzero"/></clipPath><clipPath id="bf79ee1bfe"><rect x="0" width="249" y="0" height="309"/></clipPath><clipPath id="03bccc878d"><path d="M 62.480469 58.207031 L 311.953125 58.207031 L 311.953125 316.359375 L 62.480469 316.359375 Z M 62.480469 58.207031 " clip-rule="nonzero"/></clipPath><clipPath id="da2a3f8513"><path d="M 192.871094 63.175781 L 214.105469 134.824219 C 217.640625 146.746094 226.863281 156.136719 238.71875 159.886719 L 307.09375 181.503906 C 309.707031 182.332031 311.484375 184.757812 311.484375 187.5 C 311.484375 190.242188 309.707031 192.667969 307.09375 193.496094 L 238.71875 215.113281 C 226.863281 218.863281 217.640625 228.253906 214.105469 240.175781 L 192.871094 311.824219 C 192.128906 314.328125 189.828125 316.046875 187.21875 316.046875 C 184.609375 316.046875 182.308594 314.328125 181.566406 311.824219 L 160.328125 240.175781 C 156.796875 228.253906 147.574219 218.863281 135.714844 215.113281 L 67.34375 193.496094 C 64.726562 192.667969 62.949219 190.242188 62.949219 187.5 C 62.949219 184.757812 64.726562 182.332031 67.34375 181.503906 L 135.714844 159.886719 C 147.574219 156.136719 156.796875 146.746094 160.328125 134.824219 L 181.566406 63.175781 C 182.308594 60.671875 184.609375 58.953125 187.21875 58.953125 C 189.828125 58.953125 192.128906 60.671875 192.871094 63.175781 Z M 192.871094 63.175781 " clip-rule="nonzero"/></clipPath><clipPath id="cb62b97c1f"><path d="M 0.878906 0.800781 L 249.519531 0.800781 L 249.519531 258.078125 L 0.878906 258.078125 Z M 0.878906 0.800781 " clip-rule="nonzero"/></clipPath><clipPath id="03c00aa7f6"><path d="M 130.871094 5.175781 L 152.105469 76.824219 C 155.640625 88.746094 164.863281 98.136719 176.71875 101.886719 L 245.09375 123.503906 C 247.707031 124.332031 249.484375 126.757812 249.484375 129.5 C 249.484375 132.242188 247.707031 134.667969 245.09375 135.496094 L 176.71875 157.113281 C 164.863281 160.863281 155.640625 170.253906 152.105469 182.175781 L 130.871094 253.824219 C 130.128906 256.328125 127.828125 258.046875 125.21875 258.046875 C 122.609375 258.046875 120.308594 256.328125 119.566406 253.824219 L 98.328125 182.175781 C 94.796875 170.253906 85.574219 160.863281 73.714844 157.113281 L 5.34375 135.496094 C 2.726562 134.667969 0.949219 132.242188 0.949219 129.5 C 0.949219 126.757812 2.726562 124.332031 5.34375 123.503906 L 73.714844 101.886719 C 85.574219 98.136719 94.796875 88.746094 98.328125 76.824219 L 119.566406 5.175781 C 120.308594 2.671875 122.609375 0.953125 125.21875 0.953125 C 127.828125 0.953125 130.128906 2.671875 130.871094 5.175781 Z M 130.871094 5.175781 " clip-rule="nonzero"/></clipPath><clipPath id="c3fa93de69"><rect x="0" width="250" y="0" height="259"/></clipPath></defs><g clip-path="url(#fdf2907661)"><g clip-path="url(#3ea5db484f)"><g transform="matrix(1, 0, 0, 1, 63, 33)"><g clip-path="url(#bf79ee1bfe)"><g clip-path="url(#afa40b93c2)"><g clip-path="url(#7ecd986f64)"><path fill="#f4f4f4" d="M 0.507812 308.800781 L 0.507812 -0.210938 L 248.492188 -0.210938 L 248.492188 308.800781 Z M 0.507812 308.800781 " fill-opacity="1" fill-rule="nonzero"/></g></g></g></g></g></g><g clip-path="url(#03bccc878d)"><g clip-path="url(#da2a3f8513)"><g transform="matrix(1, 0, 0, 1, 62, 58)"><g clip-path="url(#c3fa93de69)"><g clip-path="url(#cb62b97c1f)"><g clip-path="url(#03c00aa7f6)"><rect x="-144.5" width="540" fill="#5087ff" height="539.999987" y="-140.499998" fill-opacity="1"/></g></g></g></g></g></g></svg>