<svg xmlns="http://www.w3.org/2000/svg" xmlns:xlink="http://www.w3.org/1999/xlink" width="500" zoomAndPan="magnify" viewBox="0 0 375 374.999991" height="500" preserveAspectRatio="xMidYMid meet" version="1.0"><defs><clipPath id="6ba38fe6a5"><path d="M 71.191406 42.375 L 303.804688 42.375 L 303.804688 333 L 71.191406 333 Z M 71.191406 42.375 " clip-rule="nonzero"/></clipPath><clipPath id="aa0aadb42f"><path d="M 295.445312 235.683594 C 300.492188 220.84375 303.804688 203.972656 303.804688 187.414062 C 303.804688 170.855469 300.964844 154.917969 295.917969 140.234375 C 295.757812 139.921875 295.757812 139.609375 295.601562 139.296875 C 275.414062 84.152344 222.105469 43.535156 162.554688 42.753906 L 116.875 42.753906 C 104.757812 42.753906 93.140625 47.566406 84.570312 56.132812 C 76.003906 64.699219 71.191406 76.320312 71.191406 88.4375 L 71.191406 286.582031 C 71.191406 298.6875 76 310.296875 84.5625 318.859375 C 93.121094 327.421875 104.734375 332.230469 116.839844 332.230469 L 162.488281 332.230469 C 222.421875 331.449219 275.730469 291.457031 295.445312 235.683594 Z M 295.445312 235.683594 " clip-rule="nonzero"/></clipPath><clipPath id="2babb9f3e3"><path d="M 0.191406 0.71875 L 232.804688 0.71875 L 232.804688 290.398438 L 0.191406 290.398438 Z M 0.191406 0.71875 " clip-rule="nonzero"/></clipPath><clipPath id="63cf23c1d0"><path d="M 224.445312 193.683594 C 229.492188 178.84375 232.804688 161.972656 232.804688 145.414062 C 232.804688 128.855469 229.964844 112.917969 224.917969 98.234375 C 224.757812 97.921875 224.757812 97.609375 224.601562 97.296875 C 204.414062 42.152344 151.105469 1.535156 91.554688 0.753906 L 45.875 0.753906 C 33.757812 0.753906 22.140625 5.566406 13.570312 14.132812 C 5.003906 22.699219 0.191406 34.320312 0.191406 46.4375 L 0.191406 244.582031 C 0.191406 256.6875 5 268.296875 13.5625 276.859375 C 22.121094 285.421875 33.734375 290.230469 45.839844 290.230469 L 91.488281 290.230469 C 151.421875 289.449219 204.730469 249.457031 224.445312 193.683594 Z M 224.445312 193.683594 " clip-rule="nonzero"/></clipPath><clipPath id="de835afbc8"><rect x="0" width="233" y="0" height="291"/></clipPath><clipPath id="d6c9cae223"><path d="M 66.300781 63 L 308 63 L 308 312.570312 L 66.300781 312.570312 Z M 66.300781 63 " clip-rule="nonzero"/></clipPath><clipPath id="90650292a6"><path d="M 191.144531 65.839844 L 214.128906 143.394531 C 216.488281 151.34375 222.632812 157.605469 230.539062 160.101562 L 304.964844 183.632812 C 306.707031 184.183594 307.894531 185.800781 307.894531 187.628906 C 307.894531 189.457031 306.707031 191.074219 304.964844 191.628906 L 230.539062 215.15625 C 222.632812 217.65625 216.488281 223.917969 214.128906 231.867188 L 191.144531 309.421875 C 190.648438 311.089844 189.117188 312.234375 187.375 312.234375 C 185.636719 312.234375 184.101562 311.089844 183.609375 309.421875 L 160.621094 231.867188 C 158.265625 223.917969 152.117188 217.65625 144.210938 215.15625 L 69.785156 191.628906 C 68.042969 191.074219 66.859375 189.457031 66.859375 187.628906 C 66.859375 185.800781 68.042969 184.183594 69.785156 183.632812 L 144.210938 160.101562 C 152.117188 157.605469 158.265625 151.34375 160.621094 143.394531 L 183.609375 65.839844 C 184.101562 64.167969 185.636719 63.023438 187.375 63.023438 C 189.117188 63.023438 190.648438 64.167969 191.144531 65.839844 Z M 191.144531 65.839844 " clip-rule="nonzero"/></clipPath><clipPath id="96dd38c815"><path d="M 0.71875 0 L 241.921875 0 L 241.921875 249.238281 L 0.71875 249.238281 Z M 0.71875 0 " clip-rule="nonzero"/></clipPath><clipPath id="4c10962bd7"><path d="M 125.144531 2.839844 L 148.128906 80.394531 C 150.488281 88.34375 156.632812 94.605469 164.539062 97.101562 L 238.964844 120.632812 C 240.707031 121.183594 241.894531 122.800781 241.894531 124.628906 C 241.894531 126.457031 240.707031 128.074219 238.964844 128.628906 L 164.539062 152.15625 C 156.632812 154.65625 150.488281 160.917969 148.128906 168.867188 L 125.144531 246.421875 C 124.648438 248.089844 123.117188 249.234375 121.375 249.234375 C 119.636719 249.234375 118.101562 248.089844 117.609375 246.421875 L 94.621094 168.867188 C 92.265625 160.917969 86.117188 154.65625 78.210938 152.15625 L 3.785156 128.628906 C 2.042969 128.074219 0.859375 126.457031 0.859375 124.628906 C 0.859375 122.800781 2.042969 121.183594 3.785156 120.632812 L 78.210938 97.101562 C 86.117188 94.605469 92.265625 88.34375 94.621094 80.394531 L 117.609375 2.839844 C 118.101562 1.167969 119.636719 0.0234375 121.375 0.0234375 C 123.117188 0.0234375 124.648438 1.167969 125.144531 2.839844 Z M 125.144531 2.839844 " clip-rule="nonzero"/></clipPath><clipPath id="999e33ba31"><rect x="0" width="242" y="0" height="250"/></clipPath></defs><g clip-path="url(#6ba38fe6a5)"><g clip-path="url(#aa0aadb42f)"><g transform="matrix(1, 0, 0, 1, 71, 42)"><g clip-path="url(#de835afbc8)"><g clip-path="url(#2babb9f3e3)"><g clip-path="url(#63cf23c1d0)"><path fill="#5087ff" d="M 0.191406 290.230469 L 0.191406 0.375 L 232.804688 0.375 L 232.804688 290.230469 Z M 0.191406 290.230469 " fill-opacity="1" fill-rule="nonzero"/></g></g></g></g></g></g><g clip-path="url(#d6c9cae223)"><g clip-path="url(#90650292a6)"><g transform="matrix(1, 0, 0, 1, 66, 63)"><g clip-path="url(#999e33ba31)"><g clip-path="url(#96dd38c815)"><g clip-path="url(#4c10962bd7)"><rect x="-148.5" width="540" fill="#f4f4f4" height="539.999987" y="-145.499998" fill-opacity="1"/></g></g></g></g></g></g></svg>