<svg xmlns="http://www.w3.org/2000/svg" xmlns:xlink="http://www.w3.org/1999/xlink" width="500" zoomAndPan="magnify" viewBox="0 0 375 374.999991" height="500" preserveAspectRatio="xMidYMid meet" version="1.0"><defs><g/><clipPath id="2c44d92c96"><path d="M 111.132812 43.308594 L 263.867188 43.308594 L 263.867188 234 L 111.132812 234 Z M 111.132812 43.308594 " clip-rule="nonzero"/></clipPath><clipPath id="e53685d786"><path d="M 258.378906 170.238281 C 261.691406 160.496094 263.867188 149.417969 263.867188 138.542969 C 263.867188 127.671875 262 117.207031 258.6875 107.566406 C 258.585938 107.359375 258.585938 107.15625 258.480469 106.949219 C 245.226562 70.742188 210.222656 44.074219 171.121094 43.558594 L 141.128906 43.558594 C 133.171875 43.558594 125.542969 46.71875 119.917969 52.34375 C 114.292969 57.96875 111.132812 65.601562 111.132812 73.554688 L 111.132812 203.65625 C 111.132812 211.605469 114.289062 219.230469 119.910156 224.851562 C 125.53125 230.472656 133.15625 233.628906 141.105469 233.628906 L 171.078125 233.628906 C 210.429688 233.117188 245.433594 206.859375 258.378906 170.238281 Z M 258.378906 170.238281 " clip-rule="nonzero"/></clipPath><clipPath id="b9b82a77dc"><path d="M 0.132812 0.441406 L 152.867188 0.441406 L 152.867188 190.761719 L 0.132812 190.761719 Z M 0.132812 0.441406 " clip-rule="nonzero"/></clipPath><clipPath id="da00652800"><path d="M 147.378906 127.238281 C 150.691406 117.496094 152.867188 106.417969 152.867188 95.542969 C 152.867188 84.671875 151 74.207031 147.6875 64.566406 C 147.585938 64.359375 147.585938 64.15625 147.480469 63.949219 C 134.226562 27.742188 99.222656 1.074219 60.121094 0.558594 L 30.128906 0.558594 C 22.171875 0.558594 14.542969 3.71875 8.917969 9.34375 C 3.292969 14.96875 0.132812 22.601562 0.132812 30.554688 L 0.132812 160.65625 C 0.132812 168.605469 3.289062 176.230469 8.910156 181.851562 C 14.53125 187.472656 22.15625 190.628906 30.105469 190.628906 L 60.078125 190.628906 C 99.429688 190.117188 134.433594 163.859375 147.378906 127.238281 Z M 147.378906 127.238281 " clip-rule="nonzero"/></clipPath><clipPath id="9467ba1c05"><rect x="0" width="153" y="0" height="191"/></clipPath><clipPath id="ea8f24f358"><path d="M 111.285156 60 L 263.597656 60 L 263.597656 217.378906 L 111.285156 217.378906 Z M 111.285156 60 " clip-rule="nonzero"/></clipPath><clipPath id="199026807e"><path d="M 191.207031 63.078125 L 203.714844 105.273438 C 206.070312 113.222656 212.21875 119.484375 220.125 121.980469 L 260.308594 134.6875 C 262.050781 135.238281 263.238281 136.855469 263.238281 138.683594 C 263.238281 140.511719 262.050781 142.128906 260.308594 142.679688 L 220.125 155.386719 C 212.21875 157.886719 206.070312 164.144531 203.714844 172.09375 L 191.207031 214.289062 C 190.714844 215.957031 189.179688 217.101562 187.441406 217.101562 C 185.699219 217.101562 184.167969 215.957031 183.671875 214.289062 L 171.167969 172.09375 C 168.8125 164.144531 162.664062 157.886719 154.757812 155.386719 L 114.570312 142.679688 C 112.828125 142.128906 111.644531 140.511719 111.644531 138.683594 C 111.644531 136.855469 112.828125 135.238281 114.570312 134.6875 L 154.757812 121.980469 C 162.664062 119.484375 168.8125 113.222656 171.167969 105.273438 L 183.671875 63.078125 C 184.167969 61.410156 185.699219 60.265625 187.441406 60.265625 C 189.179688 60.265625 190.714844 61.410156 191.207031 63.078125 Z M 191.207031 63.078125 " clip-rule="nonzero"/></clipPath><clipPath id="bcdef4ebde"><path d="M 0.601562 0.238281 L 152.28125 0.238281 L 152.28125 157.199219 L 0.601562 157.199219 Z M 0.601562 0.238281 " clip-rule="nonzero"/></clipPath><clipPath id="f69893c58c"><path d="M 80.207031 3.078125 L 92.714844 45.273438 C 95.070312 53.222656 101.21875 59.484375 109.125 61.980469 L 149.308594 74.6875 C 151.050781 75.238281 152.238281 76.855469 152.238281 78.683594 C 152.238281 80.511719 151.050781 82.128906 149.308594 82.679688 L 109.125 95.386719 C 101.21875 97.886719 95.070312 104.144531 92.714844 112.09375 L 80.207031 154.289062 C 79.714844 155.957031 78.179688 157.101562 76.441406 157.101562 C 74.699219 157.101562 73.167969 155.957031 72.671875 154.289062 L 60.167969 112.09375 C 57.8125 104.144531 51.664062 97.886719 43.757812 95.386719 L 3.570312 82.679688 C 1.828125 82.128906 0.644531 80.511719 0.644531 78.683594 C 0.644531 76.855469 1.828125 75.238281 3.570312 74.6875 L 43.757812 61.980469 C 51.664062 59.484375 57.8125 53.222656 60.167969 45.273438 L 72.671875 3.078125 C 73.167969 1.410156 74.699219 0.265625 76.441406 0.265625 C 78.179688 0.265625 79.714844 1.410156 80.207031 3.078125 Z M 80.207031 3.078125 " clip-rule="nonzero"/></clipPath><clipPath id="853b9b4303"><rect x="0" width="153" y="0" height="158"/></clipPath><clipPath id="1848af92ad"><rect x="0" width="318" y="0" height="28"/></clipPath></defs><g clip-path="url(#2c44d92c96)"><g clip-path="url(#e53685d786)"><g transform="matrix(1, 0, 0, 1, 111, 43)"><g clip-path="url(#9467ba1c05)"><g clip-path="url(#b9b82a77dc)"><g clip-path="url(#da00652800)"><path fill="#5087ff" d="M 0.132812 190.628906 L 0.132812 0.308594 L 152.867188 0.308594 L 152.867188 190.628906 Z M 0.132812 190.628906 " fill-opacity="1" fill-rule="nonzero"/></g></g></g></g></g></g><g clip-path="url(#ea8f24f358)"><g clip-path="url(#199026807e)"><g transform="matrix(1, 0, 0, 1, 111, 60)"><g clip-path="url(#853b9b4303)"><g clip-path="url(#bcdef4ebde)"><g clip-path="url(#f69893c58c)"><rect x="-193.5" width="540" fill="#f4f4f4" height="539.999987" y="-142.499998" fill-opacity="1"/></g></g></g></g></g></g><g fill="#5087ff" fill-opacity="1"><g transform="translate(61.207963, 300.780391)"><g><path d="M 16.171875 -33.390625 C 22.367188 -33.390625 26.972656 -31.984375 29.984375 -29.171875 C 33.003906 -26.359375 34.515625 -22.328125 34.515625 -17.078125 C 34.515625 -13.648438 33.773438 -10.65625 32.296875 -8.09375 C 30.816406 -5.53125 28.671875 -3.539062 25.859375 -2.125 C 23.046875 -0.707031 19.675781 0 15.75 0 C 15.25 0 14.585938 -0.015625 13.765625 -0.046875 C 12.953125 -0.078125 12.101562 -0.0976562 11.21875 -0.109375 C 10.34375 -0.128906 9.554688 -0.140625 8.859375 -0.140625 C 7.484375 -0.140625 6.125 -0.128906 4.78125 -0.109375 C 3.445312 -0.0976562 2.390625 -0.0625 1.609375 0 L 1.609375 -0.9375 C 2.609375 -1 3.359375 -1.125 3.859375 -1.3125 C 4.367188 -1.507812 4.707031 -1.890625 4.875 -2.453125 C 5.050781 -3.015625 5.140625 -3.863281 5.140625 -5 L 5.140625 -28.390625 C 5.140625 -29.554688 5.050781 -30.410156 4.875 -30.953125 C 4.707031 -31.503906 4.363281 -31.878906 3.84375 -32.078125 C 3.320312 -32.285156 2.578125 -32.40625 1.609375 -32.4375 L 1.609375 -33.390625 C 2.390625 -33.359375 3.445312 -33.316406 4.78125 -33.265625 C 6.125 -33.222656 7.453125 -33.21875 8.765625 -33.25 C 9.898438 -33.28125 11.179688 -33.3125 12.609375 -33.34375 C 14.046875 -33.375 15.234375 -33.390625 16.171875 -33.390625 Z M 16.125 -32.53125 C 14.675781 -32.53125 13.734375 -32.265625 13.296875 -31.734375 C 12.859375 -31.203125 12.640625 -30.117188 12.640625 -28.484375 L 12.640625 -4.90625 C 12.640625 -3.269531 12.863281 -2.179688 13.3125 -1.640625 C 13.769531 -1.109375 14.722656 -0.84375 16.171875 -0.84375 C 18.816406 -0.84375 20.898438 -1.460938 22.421875 -2.703125 C 23.941406 -3.953125 25.03125 -5.769531 25.6875 -8.15625 C 26.351562 -10.539062 26.6875 -13.445312 26.6875 -16.875 C 26.6875 -20.394531 26.332031 -23.3125 25.625 -25.625 C 24.914062 -27.9375 23.789062 -29.664062 22.25 -30.8125 C 20.71875 -31.957031 18.675781 -32.53125 16.125 -32.53125 Z M 16.125 -32.53125 "/></g></g></g><g fill="#5087ff" fill-opacity="1"><g transform="translate(97.792067, 300.780391)"><g><path d="M 16.171875 -33.390625 L 16.171875 -32.4375 C 15.171875 -32.40625 14.410156 -32.285156 13.890625 -32.078125 C 13.367188 -31.878906 13.03125 -31.503906 12.875 -30.953125 C 12.71875 -30.410156 12.640625 -29.554688 12.640625 -28.390625 L 12.640625 -5 C 12.640625 -3.863281 12.722656 -3.015625 12.890625 -2.453125 C 13.066406 -1.890625 13.40625 -1.507812 13.90625 -1.3125 C 14.414062 -1.125 15.171875 -1 16.171875 -0.9375 L 16.171875 0 C 15.328125 -0.0625 14.257812 -0.0976562 12.96875 -0.109375 C 11.675781 -0.128906 10.367188 -0.140625 9.046875 -0.140625 C 7.515625 -0.140625 6.09375 -0.128906 4.78125 -0.109375 C 3.476562 -0.0976562 2.421875 -0.0625 1.609375 0 L 1.609375 -0.9375 C 2.609375 -1 3.359375 -1.125 3.859375 -1.3125 C 4.367188 -1.507812 4.707031 -1.890625 4.875 -2.453125 C 5.050781 -3.015625 5.140625 -3.863281 5.140625 -5 L 5.140625 -28.390625 C 5.140625 -29.554688 5.050781 -30.410156 4.875 -30.953125 C 4.707031 -31.503906 4.363281 -31.878906 3.84375 -32.078125 C 3.320312 -32.285156 2.578125 -32.40625 1.609375 -32.4375 L 1.609375 -33.390625 C 2.421875 -33.359375 3.476562 -33.328125 4.78125 -33.296875 C 6.09375 -33.265625 7.515625 -33.25 9.046875 -33.25 C 10.367188 -33.25 11.675781 -33.265625 12.96875 -33.296875 C 14.257812 -33.328125 15.328125 -33.359375 16.171875 -33.390625 Z M 16.171875 -33.390625 "/></g></g></g><g fill="#5087ff" fill-opacity="1"><g transform="translate(115.518392, 300.780391)"><g><path d="M 13.390625 -34 C 15.242188 -34 16.671875 -33.800781 17.671875 -33.40625 C 18.679688 -33.019531 19.550781 -32.601562 20.28125 -32.15625 C 20.65625 -31.9375 20.957031 -31.769531 21.1875 -31.65625 C 21.425781 -31.550781 21.65625 -31.5 21.875 -31.5 C 22.195312 -31.5 22.425781 -31.671875 22.5625 -32.015625 C 22.707031 -32.359375 22.828125 -32.878906 22.921875 -33.578125 L 24 -33.578125 C 23.96875 -32.972656 23.925781 -32.253906 23.875 -31.421875 C 23.832031 -30.597656 23.800781 -29.507812 23.78125 -28.15625 C 23.769531 -26.800781 23.765625 -25.023438 23.765625 -22.828125 L 22.6875 -22.828125 C 22.5625 -24.460938 22.179688 -26.046875 21.546875 -27.578125 C 20.921875 -29.117188 20.035156 -30.382812 18.890625 -31.375 C 17.742188 -32.375 16.335938 -32.875 14.671875 -32.875 C 13.160156 -32.875 11.914062 -32.445312 10.9375 -31.59375 C 9.96875 -30.75 9.484375 -29.570312 9.484375 -28.0625 C 9.484375 -26.800781 9.796875 -25.722656 10.421875 -24.828125 C 11.046875 -23.929688 11.960938 -23.054688 13.171875 -22.203125 C 14.390625 -21.359375 15.863281 -20.335938 17.59375 -19.140625 C 19.101562 -18.171875 20.453125 -17.195312 21.640625 -16.21875 C 22.835938 -15.25 23.796875 -14.148438 24.515625 -12.921875 C 25.242188 -11.691406 25.609375 -10.226562 25.609375 -8.53125 C 25.609375 -6.457031 25.066406 -4.742188 23.984375 -3.390625 C 22.898438 -2.046875 21.476562 -1.035156 19.71875 -0.359375 C 17.957031 0.316406 16.019531 0.65625 13.90625 0.65625 C 11.957031 0.65625 10.398438 0.46875 9.234375 0.09375 C 8.078125 -0.28125 7.101562 -0.671875 6.3125 -1.078125 C 5.625 -1.523438 5.09375 -1.75 4.71875 -1.75 C 4.40625 -1.75 4.175781 -1.570312 4.03125 -1.21875 C 3.882812 -0.875 3.765625 -0.359375 3.671875 0.328125 L 2.59375 0.328125 C 2.65625 -0.421875 2.691406 -1.296875 2.703125 -2.296875 C 2.722656 -3.304688 2.738281 -4.617188 2.75 -6.234375 C 2.769531 -7.859375 2.78125 -9.914062 2.78125 -12.40625 L 3.859375 -12.40625 C 3.992188 -10.332031 4.347656 -8.390625 4.921875 -6.578125 C 5.503906 -4.765625 6.398438 -3.304688 7.609375 -2.203125 C 8.828125 -1.109375 10.441406 -0.5625 12.453125 -0.5625 C 13.546875 -0.5625 14.523438 -0.757812 15.390625 -1.15625 C 16.253906 -1.550781 16.953125 -2.140625 17.484375 -2.921875 C 18.023438 -3.710938 18.296875 -4.6875 18.296875 -5.84375 C 18.296875 -7.164062 17.988281 -8.3125 17.375 -9.28125 C 16.757812 -10.257812 15.925781 -11.171875 14.875 -12.015625 C 13.820312 -12.867188 12.601562 -13.738281 11.21875 -14.625 C 9.738281 -15.59375 8.351562 -16.5625 7.0625 -17.53125 C 5.78125 -18.507812 4.753906 -19.628906 3.984375 -20.890625 C 3.210938 -22.148438 2.828125 -23.644531 2.828125 -25.375 C 2.828125 -27.351562 3.320312 -28.976562 4.3125 -30.25 C 5.300781 -31.519531 6.601562 -32.460938 8.21875 -33.078125 C 9.84375 -33.691406 11.566406 -34 13.390625 -34 Z M 13.390625 -34 "/></g></g></g><g fill="#5087ff" fill-opacity="1"><g transform="translate(143.050758, 300.780391)"><g><path d="M 13.390625 -34 C 15.242188 -34 16.671875 -33.800781 17.671875 -33.40625 C 18.679688 -33.019531 19.550781 -32.601562 20.28125 -32.15625 C 20.65625 -31.9375 20.957031 -31.769531 21.1875 -31.65625 C 21.425781 -31.550781 21.65625 -31.5 21.875 -31.5 C 22.195312 -31.5 22.425781 -31.671875 22.5625 -32.015625 C 22.707031 -32.359375 22.828125 -32.878906 22.921875 -33.578125 L 24 -33.578125 C 23.96875 -32.972656 23.925781 -32.253906 23.875 -31.421875 C 23.832031 -30.597656 23.800781 -29.507812 23.78125 -28.15625 C 23.769531 -26.800781 23.765625 -25.023438 23.765625 -22.828125 L 22.6875 -22.828125 C 22.5625 -24.460938 22.179688 -26.046875 21.546875 -27.578125 C 20.921875 -29.117188 20.035156 -30.382812 18.890625 -31.375 C 17.742188 -32.375 16.335938 -32.875 14.671875 -32.875 C 13.160156 -32.875 11.914062 -32.445312 10.9375 -31.59375 C 9.96875 -30.75 9.484375 -29.570312 9.484375 -28.0625 C 9.484375 -26.800781 9.796875 -25.722656 10.421875 -24.828125 C 11.046875 -23.929688 11.960938 -23.054688 13.171875 -22.203125 C 14.390625 -21.359375 15.863281 -20.335938 17.59375 -19.140625 C 19.101562 -18.171875 20.453125 -17.195312 21.640625 -16.21875 C 22.835938 -15.25 23.796875 -14.148438 24.515625 -12.921875 C 25.242188 -11.691406 25.609375 -10.226562 25.609375 -8.53125 C 25.609375 -6.457031 25.066406 -4.742188 23.984375 -3.390625 C 22.898438 -2.046875 21.476562 -1.035156 19.71875 -0.359375 C 17.957031 0.316406 16.019531 0.65625 13.90625 0.65625 C 11.957031 0.65625 10.398438 0.46875 9.234375 0.09375 C 8.078125 -0.28125 7.101562 -0.671875 6.3125 -1.078125 C 5.625 -1.523438 5.09375 -1.75 4.71875 -1.75 C 4.40625 -1.75 4.175781 -1.570312 4.03125 -1.21875 C 3.882812 -0.875 3.765625 -0.359375 3.671875 0.328125 L 2.59375 0.328125 C 2.65625 -0.421875 2.691406 -1.296875 2.703125 -2.296875 C 2.722656 -3.304688 2.738281 -4.617188 2.75 -6.234375 C 2.769531 -7.859375 2.78125 -9.914062 2.78125 -12.40625 L 3.859375 -12.40625 C 3.992188 -10.332031 4.347656 -8.390625 4.921875 -6.578125 C 5.503906 -4.765625 6.398438 -3.304688 7.609375 -2.203125 C 8.828125 -1.109375 10.441406 -0.5625 12.453125 -0.5625 C 13.546875 -0.5625 14.523438 -0.757812 15.390625 -1.15625 C 16.253906 -1.550781 16.953125 -2.140625 17.484375 -2.921875 C 18.023438 -3.710938 18.296875 -4.6875 18.296875 -5.84375 C 18.296875 -7.164062 17.988281 -8.3125 17.375 -9.28125 C 16.757812 -10.257812 15.925781 -11.171875 14.875 -12.015625 C 13.820312 -12.867188 12.601562 -13.738281 11.21875 -14.625 C 9.738281 -15.59375 8.351562 -16.5625 7.0625 -17.53125 C 5.78125 -18.507812 4.753906 -19.628906 3.984375 -20.890625 C 3.210938 -22.148438 2.828125 -23.644531 2.828125 -25.375 C 2.828125 -27.351562 3.320312 -28.976562 4.3125 -30.25 C 5.300781 -31.519531 6.601562 -32.460938 8.21875 -33.078125 C 9.84375 -33.691406 11.566406 -34 13.390625 -34 Z M 13.390625 -34 "/></g></g></g><g fill="#5087ff" fill-opacity="1"><g transform="translate(170.583124, 300.780391)"><g><path d="M 26.828125 -33.390625 C 26.703125 -32.003906 26.613281 -30.664062 26.5625 -29.375 C 26.519531 -28.082031 26.5 -27.09375 26.5 -26.40625 C 26.5 -25.78125 26.515625 -25.179688 26.546875 -24.609375 C 26.578125 -24.046875 26.609375 -23.578125 26.640625 -23.203125 L 25.5625 -23.203125 C 25.25 -25.492188 24.757812 -27.304688 24.09375 -28.640625 C 23.4375 -29.984375 22.582031 -30.925781 21.53125 -31.46875 C 20.476562 -32.019531 19.242188 -32.296875 17.828125 -32.296875 L 15.890625 -32.296875 C 14.984375 -32.296875 14.289062 -32.21875 13.8125 -32.0625 C 13.34375 -31.90625 13.03125 -31.59375 12.875 -31.125 C 12.71875 -30.65625 12.640625 -29.929688 12.640625 -28.953125 L 12.640625 -4.4375 C 12.640625 -3.457031 12.71875 -2.734375 12.875 -2.265625 C 13.03125 -1.796875 13.34375 -1.476562 13.8125 -1.3125 C 14.289062 -1.15625 14.984375 -1.078125 15.890625 -1.078125 L 18.203125 -1.078125 C 19.617188 -1.078125 20.867188 -1.382812 21.953125 -2 C 23.035156 -2.613281 23.960938 -3.660156 24.734375 -5.140625 C 25.503906 -6.617188 26.09375 -8.613281 26.5 -11.125 L 27.59375 -11.125 C 27.488281 -10.125 27.4375 -8.804688 27.4375 -7.171875 C 27.4375 -6.441406 27.453125 -5.414062 27.484375 -4.09375 C 27.523438 -2.78125 27.625 -1.414062 27.78125 0 C 26.175781 -0.0625 24.363281 -0.0976562 22.34375 -0.109375 C 20.332031 -0.128906 18.539062 -0.140625 16.96875 -0.140625 C 16.1875 -0.140625 15.179688 -0.140625 13.953125 -0.140625 C 12.734375 -0.140625 11.414062 -0.128906 10 -0.109375 C 8.582031 -0.0976562 7.148438 -0.0820312 5.703125 -0.0625 C 4.253906 -0.0507812 2.890625 -0.03125 1.609375 0 L 1.609375 -0.9375 C 2.609375 -1 3.359375 -1.125 3.859375 -1.3125 C 4.367188 -1.507812 4.707031 -1.890625 4.875 -2.453125 C 5.050781 -3.015625 5.140625 -3.863281 5.140625 -5 L 5.140625 -28.390625 C 5.140625 -29.554688 5.050781 -30.410156 4.875 -30.953125 C 4.707031 -31.503906 4.363281 -31.878906 3.84375 -32.078125 C 3.320312 -32.285156 2.578125 -32.40625 1.609375 -32.4375 L 1.609375 -33.390625 C 2.890625 -33.359375 4.253906 -33.332031 5.703125 -33.3125 C 7.148438 -33.300781 8.582031 -33.285156 10 -33.265625 C 11.414062 -33.253906 12.734375 -33.25 13.953125 -33.25 C 15.179688 -33.25 16.1875 -33.25 16.96875 -33.25 C 18.414062 -33.25 20.054688 -33.253906 21.890625 -33.265625 C 23.734375 -33.285156 25.378906 -33.328125 26.828125 -33.390625 Z M 19.46875 -17.265625 C 19.46875 -17.265625 19.46875 -17.101562 19.46875 -16.78125 C 19.46875 -16.46875 19.46875 -16.3125 19.46875 -16.3125 L 11.21875 -16.3125 C 11.21875 -16.3125 11.21875 -16.46875 11.21875 -16.78125 C 11.21875 -17.101562 11.21875 -17.265625 11.21875 -17.265625 Z M 20.84375 -23.484375 C 20.71875 -21.691406 20.660156 -20.320312 20.671875 -19.375 C 20.691406 -18.4375 20.703125 -17.570312 20.703125 -16.78125 C 20.703125 -16 20.71875 -15.132812 20.75 -14.1875 C 20.78125 -13.25 20.859375 -11.882812 20.984375 -10.09375 L 19.90625 -10.09375 C 19.75 -11.1875 19.457031 -12.207031 19.03125 -13.15625 C 18.601562 -14.101562 17.992188 -14.863281 17.203125 -15.4375 C 16.421875 -16.019531 15.398438 -16.3125 14.140625 -16.3125 L 14.140625 -17.265625 C 15.085938 -17.265625 15.890625 -17.457031 16.546875 -17.84375 C 17.210938 -18.238281 17.753906 -18.757812 18.171875 -19.40625 C 18.597656 -20.050781 18.9375 -20.734375 19.1875 -21.453125 C 19.4375 -22.179688 19.628906 -22.859375 19.765625 -23.484375 Z M 20.84375 -23.484375 "/></g></g></g><g fill="#5087ff" fill-opacity="1"><g transform="translate(200.472721, 300.780391)"><g><path d="M 1.609375 -33.390625 C 2.390625 -33.359375 3.445312 -33.328125 4.78125 -33.296875 C 6.125 -33.265625 7.453125 -33.25 8.765625 -33.25 C 10.273438 -33.25 11.738281 -33.265625 13.15625 -33.296875 C 14.570312 -33.328125 15.578125 -33.34375 16.171875 -33.34375 C 19.097656 -33.34375 21.523438 -33.019531 23.453125 -32.375 C 25.390625 -31.726562 26.835938 -30.789062 27.796875 -29.5625 C 28.753906 -28.34375 29.234375 -26.867188 29.234375 -25.140625 C 29.234375 -24.066406 29.015625 -22.988281 28.578125 -21.90625 C 28.140625 -20.820312 27.390625 -19.816406 26.328125 -18.890625 C 25.273438 -17.960938 23.835938 -17.222656 22.015625 -16.671875 C 20.191406 -16.117188 17.898438 -15.84375 15.140625 -15.84375 L 10.609375 -15.84375 L 10.609375 -16.78125 L 14.671875 -16.78125 C 16.523438 -16.78125 17.929688 -17.132812 18.890625 -17.84375 C 19.847656 -18.550781 20.503906 -19.492188 20.859375 -20.671875 C 21.222656 -21.859375 21.40625 -23.171875 21.40625 -24.609375 C 21.40625 -27.097656 20.960938 -29.023438 20.078125 -30.390625 C 19.203125 -31.753906 17.695312 -32.4375 15.5625 -32.4375 C 14.332031 -32.4375 13.535156 -32.171875 13.171875 -31.640625 C 12.816406 -31.109375 12.640625 -30.023438 12.640625 -28.390625 L 12.640625 -5 C 12.640625 -3.863281 12.722656 -3.015625 12.890625 -2.453125 C 13.066406 -1.890625 13.40625 -1.507812 13.90625 -1.3125 C 14.414062 -1.125 15.171875 -1 16.171875 -0.9375 L 16.171875 0 C 15.328125 -0.0625 14.257812 -0.0976562 12.96875 -0.109375 C 11.675781 -0.128906 10.367188 -0.140625 9.046875 -0.140625 C 7.546875 -0.140625 6.125 -0.128906 4.78125 -0.109375 C 3.445312 -0.0976562 2.390625 -0.0625 1.609375 0 L 1.609375 -0.9375 C 2.609375 -1 3.359375 -1.125 3.859375 -1.3125 C 4.367188 -1.507812 4.707031 -1.890625 4.875 -2.453125 C 5.050781 -3.015625 5.140625 -3.863281 5.140625 -5 L 5.140625 -28.390625 C 5.140625 -29.554688 5.050781 -30.410156 4.875 -30.953125 C 4.707031 -31.503906 4.363281 -31.878906 3.84375 -32.078125 C 3.320312 -32.285156 2.578125 -32.40625 1.609375 -32.4375 Z M 10.515625 -16.640625 C 11.867188 -16.609375 13.039062 -16.546875 14.03125 -16.453125 C 15.019531 -16.359375 15.890625 -16.269531 16.640625 -16.1875 C 17.398438 -16.113281 18.078125 -16.0625 18.671875 -16.03125 C 21.535156 -15.78125 23.648438 -15.164062 25.015625 -14.1875 C 26.378906 -13.21875 27.269531 -11.757812 27.6875 -9.8125 L 28.765625 -4.953125 C 29.046875 -3.691406 29.34375 -2.8125 29.65625 -2.3125 C 29.976562 -1.8125 30.4375 -1.5625 31.03125 -1.5625 C 31.4375 -1.59375 31.769531 -1.691406 32.03125 -1.859375 C 32.300781 -2.035156 32.597656 -2.296875 32.921875 -2.640625 L 33.578125 -2.078125 C 32.722656 -1.097656 31.804688 -0.398438 30.828125 0.015625 C 29.859375 0.441406 28.679688 0.65625 27.296875 0.65625 C 25.597656 0.65625 24.195312 0.296875 23.09375 -0.421875 C 22 -1.148438 21.28125 -2.488281 20.9375 -4.4375 L 20.09375 -9.140625 C 19.875 -10.460938 19.601562 -11.617188 19.28125 -12.609375 C 18.96875 -13.597656 18.535156 -14.382812 17.984375 -14.96875 C 17.441406 -15.550781 16.679688 -15.84375 15.703125 -15.84375 L 10.609375 -15.84375 Z M 10.515625 -16.640625 "/></g></g></g><g fill="#5087ff" fill-opacity="1"><g transform="translate(233.096689, 300.780391)"><g><path d="M 30.28125 -33.390625 C 30.144531 -31.785156 30.050781 -30.242188 30 -28.765625 C 29.957031 -27.285156 29.9375 -26.15625 29.9375 -25.375 C 29.9375 -24.675781 29.953125 -24.015625 29.984375 -23.390625 C 30.015625 -22.765625 30.046875 -22.226562 30.078125 -21.78125 L 29 -21.78125 C 28.5 -24.425781 27.863281 -26.519531 27.09375 -28.0625 C 26.320312 -29.601562 25.398438 -30.691406 24.328125 -31.328125 C 23.265625 -31.972656 22.007812 -32.296875 20.5625 -32.296875 L 19.46875 -32.296875 L 19.46875 -5.375 C 19.46875 -4.113281 19.601562 -3.171875 19.875 -2.546875 C 20.144531 -1.921875 20.640625 -1.503906 21.359375 -1.296875 C 22.085938 -1.085938 23.140625 -0.96875 24.515625 -0.9375 L 24.515625 0 C 23.546875 -0.03125 22.25 -0.0625 20.625 -0.09375 C 19.007812 -0.125 17.320312 -0.140625 15.5625 -0.140625 C 13.832031 -0.140625 12.195312 -0.125 10.65625 -0.09375 C 9.113281 -0.0625 7.875 -0.03125 6.9375 0 L 6.9375 -0.9375 C 8.34375 -0.96875 9.40625 -1.085938 10.125 -1.296875 C 10.851562 -1.503906 11.34375 -1.921875 11.59375 -2.546875 C 11.851562 -3.171875 11.984375 -4.113281 11.984375 -5.375 L 11.984375 -32.296875 L 10.9375 -32.296875 C 9.488281 -32.296875 8.226562 -31.972656 7.15625 -31.328125 C 6.09375 -30.691406 5.179688 -29.609375 4.421875 -28.078125 C 3.671875 -26.554688 3.015625 -24.457031 2.453125 -21.78125 L 1.375 -21.78125 C 1.4375 -22.226562 1.472656 -22.765625 1.484375 -23.390625 C 1.503906 -24.015625 1.515625 -24.675781 1.515625 -25.375 C 1.515625 -26.15625 1.488281 -27.285156 1.4375 -28.765625 C 1.394531 -30.242188 1.304688 -31.785156 1.171875 -33.390625 C 2.617188 -33.359375 4.195312 -33.328125 5.90625 -33.296875 C 7.625 -33.265625 9.347656 -33.25 11.078125 -33.25 C 12.804688 -33.25 14.363281 -33.25 15.75 -33.25 C 17.164062 -33.25 18.726562 -33.25 20.4375 -33.25 C 22.15625 -33.25 23.878906 -33.265625 25.609375 -33.296875 C 27.335938 -33.328125 28.894531 -33.359375 30.28125 -33.390625 Z M 30.28125 -33.390625 "/></g></g></g><g fill="#d9d9d9" fill-opacity="1"><g transform="translate(264.598578, 300.780391)"><g><path d="M 17.359375 -33.484375 L 28.8125 -3.96875 C 29.25 -2.832031 29.742188 -2.050781 30.296875 -1.625 C 30.847656 -1.195312 31.34375 -0.96875 31.78125 -0.9375 L 31.78125 0 C 30.84375 -0.0625 29.734375 -0.0976562 28.453125 -0.109375 C 27.179688 -0.128906 25.898438 -0.140625 24.609375 -0.140625 C 23.171875 -0.140625 21.804688 -0.128906 20.515625 -0.109375 C 19.222656 -0.0976562 18.203125 -0.0625 17.453125 0 L 17.453125 -0.9375 C 19.054688 -1 20.066406 -1.273438 20.484375 -1.765625 C 20.910156 -2.253906 20.8125 -3.300781 20.1875 -4.90625 L 12.171875 -26.828125 L 13.015625 -28.0625 L 5.84375 -9.390625 C 5.15625 -7.660156 4.738281 -6.242188 4.59375 -5.140625 C 4.457031 -4.035156 4.535156 -3.1875 4.828125 -2.59375 C 5.128906 -2 5.617188 -1.582031 6.296875 -1.34375 C 6.972656 -1.101562 7.78125 -0.96875 8.71875 -0.9375 L 8.71875 0 C 7.6875 -0.0625 6.695312 -0.0976562 5.75 -0.109375 C 4.8125 -0.128906 3.851562 -0.140625 2.875 -0.140625 C 2.1875 -0.140625 1.535156 -0.128906 0.921875 -0.109375 C 0.304688 -0.0976562 -0.234375 -0.0625 -0.703125 0 L -0.703125 -0.9375 C -0.046875 -1.0625 0.625 -1.484375 1.3125 -2.203125 C 2.007812 -2.929688 2.6875 -4.160156 3.34375 -5.890625 L 14.09375 -33.484375 C 14.601562 -33.453125 15.144531 -33.4375 15.71875 -33.4375 C 16.300781 -33.4375 16.847656 -33.453125 17.359375 -33.484375 Z M 20.65625 -13.578125 L 20.65625 -12.640625 L 6.609375 -12.640625 L 7.078125 -13.578125 Z M 20.65625 -13.578125 "/></g></g></g><g fill="#d9d9d9" fill-opacity="1"><g transform="translate(296.043942, 300.780391)"><g><path d="M 16.171875 -33.390625 L 16.171875 -32.4375 C 15.171875 -32.40625 14.410156 -32.285156 13.890625 -32.078125 C 13.367188 -31.878906 13.03125 -31.503906 12.875 -30.953125 C 12.71875 -30.410156 12.640625 -29.554688 12.640625 -28.390625 L 12.640625 -5 C 12.640625 -3.863281 12.722656 -3.015625 12.890625 -2.453125 C 13.066406 -1.890625 13.40625 -1.507812 13.90625 -1.3125 C 14.414062 -1.125 15.171875 -1 16.171875 -0.9375 L 16.171875 0 C 15.328125 -0.0625 14.257812 -0.0976562 12.96875 -0.109375 C 11.675781 -0.128906 10.367188 -0.140625 9.046875 -0.140625 C 7.515625 -0.140625 6.09375 -0.128906 4.78125 -0.109375 C 3.476562 -0.0976562 2.421875 -0.0625 1.609375 0 L 1.609375 -0.9375 C 2.609375 -1 3.359375 -1.125 3.859375 -1.3125 C 4.367188 -1.507812 4.707031 -1.890625 4.875 -2.453125 C 5.050781 -3.015625 5.140625 -3.863281 5.140625 -5 L 5.140625 -28.390625 C 5.140625 -29.554688 5.050781 -30.410156 4.875 -30.953125 C 4.707031 -31.503906 4.363281 -31.878906 3.84375 -32.078125 C 3.320312 -32.285156 2.578125 -32.40625 1.609375 -32.4375 L 1.609375 -33.390625 C 2.421875 -33.359375 3.476562 -33.328125 4.78125 -33.296875 C 6.09375 -33.265625 7.515625 -33.25 9.046875 -33.25 C 10.367188 -33.25 11.675781 -33.265625 12.96875 -33.296875 C 14.257812 -33.328125 15.328125 -33.359375 16.171875 -33.390625 Z M 16.171875 -33.390625 "/></g></g></g><g transform="matrix(1, 0, 0, 1, 29, 306)"><g clip-path="url(#1848af92ad)"><g fill="#12143d" fill-opacity="1"><g transform="translate(0.474862, 19.411449)"><g><path d="M 6.1875 0.234375 C 5.21875 0.234375 4.367188 0.0703125 3.640625 -0.25 C 2.910156 -0.582031 2.34375 -1.050781 1.9375 -1.65625 C 1.539062 -2.269531 1.320312 -2.988281 1.28125 -3.8125 L 2.375 -3.8125 C 2.4375 -2.875 2.8125 -2.140625 3.5 -1.609375 C 4.1875 -1.085938 5.082031 -0.828125 6.1875 -0.828125 C 7.238281 -0.828125 8.070312 -1.039062 8.6875 -1.46875 C 9.300781 -1.90625 9.609375 -2.5 9.609375 -3.25 C 9.609375 -3.914062 9.328125 -4.457031 8.765625 -4.875 C 8.203125 -5.300781 7.269531 -5.65625 5.96875 -5.9375 C 4.394531 -6.300781 3.253906 -6.769531 2.546875 -7.34375 C 1.835938 -7.925781 1.484375 -8.695312 1.484375 -9.65625 C 1.484375 -10.6875 1.875 -11.507812 2.65625 -12.125 C 3.4375 -12.75 4.515625 -13.0625 5.890625 -13.0625 C 7.304688 -13.0625 8.421875 -12.71875 9.234375 -12.03125 C 10.046875 -11.351562 10.472656 -10.398438 10.515625 -9.171875 L 9.421875 -9.171875 C 9.367188 -10.066406 9.035156 -10.757812 8.421875 -11.25 C 7.804688 -11.75 6.960938 -12 5.890625 -12 C 4.847656 -12 4.039062 -11.785156 3.46875 -11.359375 C 2.894531 -10.929688 2.609375 -10.363281 2.609375 -9.65625 C 2.609375 -9.019531 2.878906 -8.488281 3.421875 -8.0625 C 3.960938 -7.644531 4.90625 -7.285156 6.25 -6.984375 C 7.875 -6.609375 9.023438 -6.125 9.703125 -5.53125 C 10.390625 -4.9375 10.734375 -4.179688 10.734375 -3.265625 C 10.734375 -2.191406 10.320312 -1.335938 9.5 -0.703125 C 8.6875 -0.078125 7.582031 0.234375 6.1875 0.234375 Z M 6.1875 0.234375 "/></g></g></g><g fill="#12143d" fill-opacity="1"><g transform="translate(12.699396, 19.411449)"><g><path d="M 2.078125 0 L 2.078125 -12.828125 L 9.625 -12.828125 L 9.625 -11.78125 L 3.1875 -11.78125 L 3.1875 -7.0625 L 9.140625 -7.0625 L 9.140625 -6.03125 L 3.1875 -6.03125 L 3.1875 -1.046875 L 9.828125 -1.046875 L 9.828125 0 Z M 2.078125 0 "/></g></g></g><g fill="#12143d" fill-opacity="1"><g transform="translate(24.044218, 19.411449)"><g><path d="M 6.75 0.21875 C 5.238281 0.21875 4.050781 -0.242188 3.1875 -1.171875 C 2.332031 -2.109375 1.90625 -3.40625 1.90625 -5.0625 L 1.90625 -12.828125 L 3 -12.828125 L 3 -5.109375 C 3 -3.742188 3.328125 -2.691406 3.984375 -1.953125 C 4.640625 -1.222656 5.5625 -0.859375 6.75 -0.859375 C 7.945312 -0.859375 8.867188 -1.222656 9.515625 -1.953125 C 10.160156 -2.691406 10.484375 -3.742188 10.484375 -5.109375 L 10.484375 -12.828125 L 11.578125 -12.828125 L 11.578125 -5.0625 C 11.578125 -3.40625 11.144531 -2.109375 10.28125 -1.171875 C 9.425781 -0.242188 8.25 0.21875 6.75 0.21875 Z M 6.75 0.21875 "/></g></g></g><g fill="#12143d" fill-opacity="1"><g transform="translate(37.716627, 19.411449)"><g/></g></g><g fill="#12143d" fill-opacity="1"><g transform="translate(42.811769, 19.411449)"><g><path d="M 5.109375 0 L 5.109375 -11.765625 L 0.703125 -11.765625 L 0.703125 -12.828125 L 10.65625 -12.828125 L 10.65625 -11.765625 L 6.21875 -11.765625 L 6.21875 0 Z M 5.109375 0 "/></g></g></g><g fill="#12143d" fill-opacity="1"><g transform="translate(54.339857, 19.411449)"><g><path d="M 6.75 0.21875 C 5.238281 0.21875 4.050781 -0.242188 3.1875 -1.171875 C 2.332031 -2.109375 1.90625 -3.40625 1.90625 -5.0625 L 1.90625 -12.828125 L 3 -12.828125 L 3 -5.109375 C 3 -3.742188 3.328125 -2.691406 3.984375 -1.953125 C 4.640625 -1.222656 5.5625 -0.859375 6.75 -0.859375 C 7.945312 -0.859375 8.867188 -1.222656 9.515625 -1.953125 C 10.160156 -2.691406 10.484375 -3.742188 10.484375 -5.109375 L 10.484375 -12.828125 L 11.578125 -12.828125 L 11.578125 -5.0625 C 11.578125 -3.40625 11.144531 -2.109375 10.28125 -1.171875 C 9.425781 -0.242188 8.25 0.21875 6.75 0.21875 Z M 6.75 0.21875 "/></g></g></g><g fill="#12143d" fill-opacity="1"><g transform="translate(68.012266, 19.411449)"><g><path d="M 5.109375 0 L 5.109375 -11.765625 L 0.703125 -11.765625 L 0.703125 -12.828125 L 10.65625 -12.828125 L 10.65625 -11.765625 L 6.21875 -11.765625 L 6.21875 0 Z M 5.109375 0 "/></g></g></g><g fill="#12143d" fill-opacity="1"><g transform="translate(79.540354, 19.411449)"><g><path d="M 7.796875 0.234375 C 6.492188 0.234375 5.34375 -0.046875 4.34375 -0.609375 C 3.351562 -1.171875 2.578125 -1.953125 2.015625 -2.953125 C 1.453125 -3.953125 1.171875 -5.109375 1.171875 -6.421875 C 1.171875 -7.722656 1.453125 -8.875 2.015625 -9.875 C 2.578125 -10.875 3.351562 -11.65625 4.34375 -12.21875 C 5.34375 -12.78125 6.492188 -13.0625 7.796875 -13.0625 C 9.097656 -13.0625 10.242188 -12.78125 11.234375 -12.21875 C 12.234375 -11.65625 13.007812 -10.875 13.5625 -9.875 C 14.125 -8.875 14.40625 -7.722656 14.40625 -6.421875 C 14.40625 -5.109375 14.125 -3.953125 13.5625 -2.953125 C 13.007812 -1.953125 12.234375 -1.171875 11.234375 -0.609375 C 10.242188 -0.046875 9.097656 0.234375 7.796875 0.234375 Z M 2.3125 -6.421875 C 2.3125 -5.328125 2.539062 -4.359375 3 -3.515625 C 3.46875 -2.679688 4.113281 -2.03125 4.9375 -1.5625 C 5.757812 -1.101562 6.710938 -0.875 7.796875 -0.875 C 8.878906 -0.875 9.832031 -1.101562 10.65625 -1.5625 C 11.476562 -2.03125 12.117188 -2.679688 12.578125 -3.515625 C 13.046875 -4.359375 13.28125 -5.328125 13.28125 -6.421875 C 13.28125 -7.515625 13.046875 -8.476562 12.578125 -9.3125 C 12.117188 -10.144531 11.476562 -10.789062 10.65625 -11.25 C 9.832031 -11.71875 8.878906 -11.953125 7.796875 -11.953125 C 6.710938 -11.953125 5.757812 -11.71875 4.9375 -11.25 C 4.113281 -10.789062 3.46875 -10.144531 3 -9.3125 C 2.539062 -8.476562 2.3125 -7.515625 2.3125 -6.421875 Z M 2.3125 -6.421875 "/></g></g></g><g fill="#12143d" fill-opacity="1"><g transform="translate(95.302101, 19.411449)"><g><path d="M 2.078125 0 L 2.078125 -12.828125 L 6.8125 -12.828125 C 7.6875 -12.828125 8.441406 -12.660156 9.078125 -12.328125 C 9.710938 -12.003906 10.207031 -11.546875 10.5625 -10.953125 C 10.914062 -10.359375 11.09375 -9.648438 11.09375 -8.828125 C 11.09375 -7.765625 10.796875 -6.890625 10.203125 -6.203125 C 9.617188 -5.515625 8.820312 -5.082031 7.8125 -4.90625 L 11.296875 0 L 9.953125 0 L 6.5 -4.828125 L 3.1875 -4.828125 L 3.1875 0 Z M 3.1875 -5.890625 L 6.703125 -5.890625 C 7.722656 -5.890625 8.519531 -6.148438 9.09375 -6.671875 C 9.664062 -7.191406 9.953125 -7.910156 9.953125 -8.828125 C 9.953125 -9.734375 9.664062 -10.445312 9.09375 -10.96875 C 8.519531 -11.5 7.722656 -11.765625 6.703125 -11.765625 L 3.1875 -11.765625 Z M 3.1875 -5.890625 "/></g></g></g><g fill="#12143d" fill-opacity="1"><g transform="translate(108.021481, 19.411449)"><g/></g></g><g fill="#12143d" fill-opacity="1"><g transform="translate(113.116624, 19.411449)"><g><path d="M 2.078125 0 L 2.078125 -12.828125 L 6.140625 -12.828125 C 7.628906 -12.828125 8.789062 -12.457031 9.625 -11.71875 C 10.457031 -10.976562 10.875 -9.941406 10.875 -8.609375 C 10.875 -7.273438 10.457031 -6.238281 9.625 -5.5 C 8.789062 -4.769531 7.628906 -4.40625 6.140625 -4.40625 L 3.1875 -4.40625 L 3.1875 0 Z M 3.1875 -5.421875 L 6.125 -5.421875 C 8.539062 -5.421875 9.75 -6.476562 9.75 -8.59375 C 9.75 -10.707031 8.539062 -11.765625 6.125 -11.765625 L 3.1875 -11.765625 Z M 3.1875 -5.421875 "/></g></g></g><g fill="#12143d" fill-opacity="1"><g transform="translate(125.029593, 19.411449)"><g><path d="M 2.078125 0 L 2.078125 -12.828125 L 9.625 -12.828125 L 9.625 -11.78125 L 3.1875 -11.78125 L 3.1875 -7.0625 L 9.140625 -7.0625 L 9.140625 -6.03125 L 3.1875 -6.03125 L 3.1875 -1.046875 L 9.828125 -1.046875 L 9.828125 0 Z M 2.078125 0 "/></g></g></g><g fill="#12143d" fill-opacity="1"><g transform="translate(136.374415, 19.411449)"><g><path d="M 6.1875 0.234375 C 5.21875 0.234375 4.367188 0.0703125 3.640625 -0.25 C 2.910156 -0.582031 2.34375 -1.050781 1.9375 -1.65625 C 1.539062 -2.269531 1.320312 -2.988281 1.28125 -3.8125 L 2.375 -3.8125 C 2.4375 -2.875 2.8125 -2.140625 3.5 -1.609375 C 4.1875 -1.085938 5.082031 -0.828125 6.1875 -0.828125 C 7.238281 -0.828125 8.070312 -1.039062 8.6875 -1.46875 C 9.300781 -1.90625 9.609375 -2.5 9.609375 -3.25 C 9.609375 -3.914062 9.328125 -4.457031 8.765625 -4.875 C 8.203125 -5.300781 7.269531 -5.65625 5.96875 -5.9375 C 4.394531 -6.300781 3.253906 -6.769531 2.546875 -7.34375 C 1.835938 -7.925781 1.484375 -8.695312 1.484375 -9.65625 C 1.484375 -10.6875 1.875 -11.507812 2.65625 -12.125 C 3.4375 -12.75 4.515625 -13.0625 5.890625 -13.0625 C 7.304688 -13.0625 8.421875 -12.71875 9.234375 -12.03125 C 10.046875 -11.351562 10.472656 -10.398438 10.515625 -9.171875 L 9.421875 -9.171875 C 9.367188 -10.066406 9.035156 -10.757812 8.421875 -11.25 C 7.804688 -11.75 6.960938 -12 5.890625 -12 C 4.847656 -12 4.039062 -11.785156 3.46875 -11.359375 C 2.894531 -10.929688 2.609375 -10.363281 2.609375 -9.65625 C 2.609375 -9.019531 2.878906 -8.488281 3.421875 -8.0625 C 3.960938 -7.644531 4.90625 -7.285156 6.25 -6.984375 C 7.875 -6.609375 9.023438 -6.125 9.703125 -5.53125 C 10.390625 -4.9375 10.734375 -4.179688 10.734375 -3.265625 C 10.734375 -2.191406 10.320312 -1.335938 9.5 -0.703125 C 8.6875 -0.078125 7.582031 0.234375 6.1875 0.234375 Z M 6.1875 0.234375 "/></g></g></g><g fill="#12143d" fill-opacity="1"><g transform="translate(148.598949, 19.411449)"><g><path d="M 6.1875 0.234375 C 5.21875 0.234375 4.367188 0.0703125 3.640625 -0.25 C 2.910156 -0.582031 2.34375 -1.050781 1.9375 -1.65625 C 1.539062 -2.269531 1.320312 -2.988281 1.28125 -3.8125 L 2.375 -3.8125 C 2.4375 -2.875 2.8125 -2.140625 3.5 -1.609375 C 4.1875 -1.085938 5.082031 -0.828125 6.1875 -0.828125 C 7.238281 -0.828125 8.070312 -1.039062 8.6875 -1.46875 C 9.300781 -1.90625 9.609375 -2.5 9.609375 -3.25 C 9.609375 -3.914062 9.328125 -4.457031 8.765625 -4.875 C 8.203125 -5.300781 7.269531 -5.65625 5.96875 -5.9375 C 4.394531 -6.300781 3.253906 -6.769531 2.546875 -7.34375 C 1.835938 -7.925781 1.484375 -8.695312 1.484375 -9.65625 C 1.484375 -10.6875 1.875 -11.507812 2.65625 -12.125 C 3.4375 -12.75 4.515625 -13.0625 5.890625 -13.0625 C 7.304688 -13.0625 8.421875 -12.71875 9.234375 -12.03125 C 10.046875 -11.351562 10.472656 -10.398438 10.515625 -9.171875 L 9.421875 -9.171875 C 9.367188 -10.066406 9.035156 -10.757812 8.421875 -11.25 C 7.804688 -11.75 6.960938 -12 5.890625 -12 C 4.847656 -12 4.039062 -11.785156 3.46875 -11.359375 C 2.894531 -10.929688 2.609375 -10.363281 2.609375 -9.65625 C 2.609375 -9.019531 2.878906 -8.488281 3.421875 -8.0625 C 3.960938 -7.644531 4.90625 -7.285156 6.25 -6.984375 C 7.875 -6.609375 9.023438 -6.125 9.703125 -5.53125 C 10.390625 -4.9375 10.734375 -4.179688 10.734375 -3.265625 C 10.734375 -2.191406 10.320312 -1.335938 9.5 -0.703125 C 8.6875 -0.078125 7.582031 0.234375 6.1875 0.234375 Z M 6.1875 0.234375 "/></g></g></g><g fill="#12143d" fill-opacity="1"><g transform="translate(160.823483, 19.411449)"><g><path d="M 7.796875 0.234375 C 6.492188 0.234375 5.34375 -0.046875 4.34375 -0.609375 C 3.351562 -1.171875 2.578125 -1.953125 2.015625 -2.953125 C 1.453125 -3.953125 1.171875 -5.109375 1.171875 -6.421875 C 1.171875 -7.722656 1.453125 -8.875 2.015625 -9.875 C 2.578125 -10.875 3.351562 -11.65625 4.34375 -12.21875 C 5.34375 -12.78125 6.492188 -13.0625 7.796875 -13.0625 C 9.097656 -13.0625 10.242188 -12.78125 11.234375 -12.21875 C 12.234375 -11.65625 13.007812 -10.875 13.5625 -9.875 C 14.125 -8.875 14.40625 -7.722656 14.40625 -6.421875 C 14.40625 -5.109375 14.125 -3.953125 13.5625 -2.953125 C 13.007812 -1.953125 12.234375 -1.171875 11.234375 -0.609375 C 10.242188 -0.046875 9.097656 0.234375 7.796875 0.234375 Z M 2.3125 -6.421875 C 2.3125 -5.328125 2.539062 -4.359375 3 -3.515625 C 3.46875 -2.679688 4.113281 -2.03125 4.9375 -1.5625 C 5.757812 -1.101562 6.710938 -0.875 7.796875 -0.875 C 8.878906 -0.875 9.832031 -1.101562 10.65625 -1.5625 C 11.476562 -2.03125 12.117188 -2.679688 12.578125 -3.515625 C 13.046875 -4.359375 13.28125 -5.328125 13.28125 -6.421875 C 13.28125 -7.515625 13.046875 -8.476562 12.578125 -9.3125 C 12.117188 -10.144531 11.476562 -10.789062 10.65625 -11.25 C 9.832031 -11.71875 8.878906 -11.953125 7.796875 -11.953125 C 6.710938 -11.953125 5.757812 -11.71875 4.9375 -11.25 C 4.113281 -10.789062 3.46875 -10.144531 3 -9.3125 C 2.539062 -8.476562 2.3125 -7.515625 2.3125 -6.421875 Z M 2.3125 -6.421875 "/></g></g></g><g fill="#12143d" fill-opacity="1"><g transform="translate(176.585229, 19.411449)"><g><path d="M 0.40625 0 L 5.71875 -12.828125 L 6.78125 -12.828125 L 12.09375 0 L 10.921875 0 L 9.578125 -3.21875 L 2.921875 -3.21875 L 1.59375 0 Z M 3.359375 -4.25 L 9.171875 -4.25 L 6.25 -11.3125 Z M 3.359375 -4.25 "/></g></g></g><g fill="#12143d" fill-opacity="1"><g transform="translate(189.286277, 19.411449)"><g><path d="M 2.078125 0 L 2.078125 -12.828125 L 3.1875 -12.828125 L 3.1875 -1.0625 L 9.703125 -1.0625 L 9.703125 0 Z M 2.078125 0 "/></g></g></g><g fill="#12143d" fill-opacity="1"><g transform="translate(199.788022, 19.411449)"><g/></g></g><g fill="#12143d" fill-opacity="1"><g transform="translate(204.883164, 19.411449)"><g><path d="M 2.078125 0 L 2.078125 -12.828125 L 6.125 -12.828125 C 7.488281 -12.828125 8.664062 -12.5625 9.65625 -12.03125 C 10.65625 -11.5 11.425781 -10.753906 11.96875 -9.796875 C 12.519531 -8.835938 12.796875 -7.710938 12.796875 -6.421875 C 12.796875 -5.128906 12.519531 -4 11.96875 -3.03125 C 11.425781 -2.070312 10.65625 -1.328125 9.65625 -0.796875 C 8.664062 -0.265625 7.488281 0 6.125 0 Z M 3.1875 -1.0625 L 6.125 -1.0625 C 7.257812 -1.0625 8.238281 -1.28125 9.0625 -1.71875 C 9.894531 -2.15625 10.535156 -2.773438 10.984375 -3.578125 C 11.429688 -4.378906 11.65625 -5.328125 11.65625 -6.421875 C 11.65625 -7.503906 11.425781 -8.445312 10.96875 -9.25 C 10.519531 -10.050781 9.878906 -10.671875 9.046875 -11.109375 C 8.222656 -11.546875 7.234375 -11.765625 6.078125 -11.765625 L 3.1875 -11.765625 Z M 3.1875 -1.0625 "/></g></g></g><g fill="#12143d" fill-opacity="1"><g transform="translate(219.032087, 19.411449)"><g><path d="M 2.078125 0 L 2.078125 -12.828125 L 9.625 -12.828125 L 9.625 -11.78125 L 3.1875 -11.78125 L 3.1875 -7.0625 L 9.140625 -7.0625 L 9.140625 -6.03125 L 3.1875 -6.03125 L 3.1875 -1.046875 L 9.828125 -1.046875 L 9.828125 0 Z M 2.078125 0 "/></g></g></g><g fill="#12143d" fill-opacity="1"><g transform="translate(230.376909, 19.411449)"><g/></g></g><g fill="#12143d" fill-opacity="1"><g transform="translate(235.472051, 19.411449)"><g><path d="M 2.078125 0 L 2.078125 -12.828125 L 9.625 -12.828125 L 9.625 -11.78125 L 3.1875 -11.78125 L 3.1875 -7.0625 L 9.140625 -7.0625 L 9.140625 -6.03125 L 3.1875 -6.03125 L 3.1875 -1.046875 L 9.828125 -1.046875 L 9.828125 0 Z M 2.078125 0 "/></g></g></g><g fill="#12143d" fill-opacity="1"><g transform="translate(246.816873, 19.411449)"><g><path d="M 6.1875 0.234375 C 5.21875 0.234375 4.367188 0.0703125 3.640625 -0.25 C 2.910156 -0.582031 2.34375 -1.050781 1.9375 -1.65625 C 1.539062 -2.269531 1.320312 -2.988281 1.28125 -3.8125 L 2.375 -3.8125 C 2.4375 -2.875 2.8125 -2.140625 3.5 -1.609375 C 4.1875 -1.085938 5.082031 -0.828125 6.1875 -0.828125 C 7.238281 -0.828125 8.070312 -1.039062 8.6875 -1.46875 C 9.300781 -1.90625 9.609375 -2.5 9.609375 -3.25 C 9.609375 -3.914062 9.328125 -4.457031 8.765625 -4.875 C 8.203125 -5.300781 7.269531 -5.65625 5.96875 -5.9375 C 4.394531 -6.300781 3.253906 -6.769531 2.546875 -7.34375 C 1.835938 -7.925781 1.484375 -8.695312 1.484375 -9.65625 C 1.484375 -10.6875 1.875 -11.507812 2.65625 -12.125 C 3.4375 -12.75 4.515625 -13.0625 5.890625 -13.0625 C 7.304688 -13.0625 8.421875 -12.71875 9.234375 -12.03125 C 10.046875 -11.351562 10.472656 -10.398438 10.515625 -9.171875 L 9.421875 -9.171875 C 9.367188 -10.066406 9.035156 -10.757812 8.421875 -11.25 C 7.804688 -11.75 6.960938 -12 5.890625 -12 C 4.847656 -12 4.039062 -11.785156 3.46875 -11.359375 C 2.894531 -10.929688 2.609375 -10.363281 2.609375 -9.65625 C 2.609375 -9.019531 2.878906 -8.488281 3.421875 -8.0625 C 3.960938 -7.644531 4.90625 -7.285156 6.25 -6.984375 C 7.875 -6.609375 9.023438 -6.125 9.703125 -5.53125 C 10.390625 -4.9375 10.734375 -4.179688 10.734375 -3.265625 C 10.734375 -2.191406 10.320312 -1.335938 9.5 -0.703125 C 8.6875 -0.078125 7.582031 0.234375 6.1875 0.234375 Z M 6.1875 0.234375 "/></g></g></g><g fill="#12143d" fill-opacity="1"><g transform="translate(259.041422, 19.411449)"><g><path d="M 7.671875 0.234375 C 6.421875 0.234375 5.304688 -0.046875 4.328125 -0.609375 C 3.347656 -1.179688 2.578125 -1.96875 2.015625 -2.96875 C 1.453125 -3.96875 1.171875 -5.117188 1.171875 -6.421875 C 1.171875 -7.722656 1.453125 -8.867188 2.015625 -9.859375 C 2.578125 -10.859375 3.347656 -11.640625 4.328125 -12.203125 C 5.304688 -12.773438 6.421875 -13.0625 7.671875 -13.0625 C 8.648438 -13.0625 9.554688 -12.878906 10.390625 -12.515625 C 11.222656 -12.160156 11.9375 -11.65625 12.53125 -11 C 13.132812 -10.351562 13.578125 -9.578125 13.859375 -8.671875 L 12.6875 -8.671875 C 12.320312 -9.679688 11.691406 -10.476562 10.796875 -11.0625 C 9.898438 -11.65625 8.867188 -11.953125 7.703125 -11.953125 C 6.660156 -11.953125 5.734375 -11.71875 4.921875 -11.25 C 4.109375 -10.789062 3.46875 -10.144531 3 -9.3125 C 2.539062 -8.476562 2.3125 -7.515625 2.3125 -6.421875 C 2.3125 -5.328125 2.539062 -4.359375 3 -3.515625 C 3.46875 -2.679688 4.109375 -2.03125 4.921875 -1.5625 C 5.734375 -1.101562 6.660156 -0.875 7.703125 -0.875 C 8.898438 -0.875 9.957031 -1.179688 10.875 -1.796875 C 11.800781 -2.410156 12.441406 -3.25 12.796875 -4.3125 L 13.96875 -4.3125 C 13.707031 -3.394531 13.269531 -2.59375 12.65625 -1.90625 C 12.050781 -1.21875 11.320312 -0.6875 10.46875 -0.3125 C 9.625 0.0507812 8.691406 0.234375 7.671875 0.234375 Z M 7.671875 0.234375 "/></g></g></g><g fill="#12143d" fill-opacity="1"><g transform="translate(274.289989, 19.411449)"><g><path d="M 2.078125 0 L 2.078125 -12.828125 L 6.8125 -12.828125 C 7.6875 -12.828125 8.441406 -12.660156 9.078125 -12.328125 C 9.710938 -12.003906 10.207031 -11.546875 10.5625 -10.953125 C 10.914062 -10.359375 11.09375 -9.648438 11.09375 -8.828125 C 11.09375 -7.765625 10.796875 -6.890625 10.203125 -6.203125 C 9.617188 -5.515625 8.820312 -5.082031 7.8125 -4.90625 L 11.296875 0 L 9.953125 0 L 6.5 -4.828125 L 3.1875 -4.828125 L 3.1875 0 Z M 3.1875 -5.890625 L 6.703125 -5.890625 C 7.722656 -5.890625 8.519531 -6.148438 9.09375 -6.671875 C 9.664062 -7.191406 9.953125 -7.910156 9.953125 -8.828125 C 9.953125 -9.734375 9.664062 -10.445312 9.09375 -10.96875 C 8.519531 -11.5 7.722656 -11.765625 6.703125 -11.765625 L 3.1875 -11.765625 Z M 3.1875 -5.890625 "/></g></g></g><g fill="#12143d" fill-opacity="1"><g transform="translate(287.00934, 19.411449)"><g><path d="M 2.078125 0 L 2.078125 -12.828125 L 3.1875 -12.828125 L 3.1875 0 Z M 2.078125 0 "/></g></g></g><g fill="#12143d" fill-opacity="1"><g transform="translate(292.452713, 19.411449)"><g><path d="M 5.109375 0 L 5.109375 -11.765625 L 0.703125 -11.765625 L 0.703125 -12.828125 L 10.65625 -12.828125 L 10.65625 -11.765625 L 6.21875 -11.765625 L 6.21875 0 Z M 5.109375 0 "/></g></g></g><g fill="#12143d" fill-opacity="1"><g transform="translate(303.980786, 19.411449)"><g><path d="M 0.40625 0 L 5.71875 -12.828125 L 6.78125 -12.828125 L 12.09375 0 L 10.921875 0 L 9.578125 -3.21875 L 2.921875 -3.21875 L 1.59375 0 Z M 3.359375 -4.25 L 9.171875 -4.25 L 6.25 -11.3125 Z M 3.359375 -4.25 "/></g></g></g></g></g></svg>