<svg xmlns="http://www.w3.org/2000/svg" xmlns:xlink="http://www.w3.org/1999/xlink" width="500" zoomAndPan="magnify" viewBox="0 0 375 374.999991" height="500" preserveAspectRatio="xMidYMid meet" version="1.0"><defs><g/><clipPath id="80cb6ec13e"><path d="M 18.863281 164.628906 L 59.117188 164.628906 L 59.117188 214.789062 L 18.863281 214.789062 Z M 18.863281 164.628906 " clip-rule="nonzero"/></clipPath><clipPath id="8d750a6a82"><path d="M 57.671875 198.082031 C 58.542969 195.511719 59.117188 192.59375 59.117188 189.726562 C 59.117188 186.863281 58.625 184.105469 57.753906 181.5625 C 57.726562 181.511719 57.726562 181.457031 57.699219 181.402344 C 54.207031 171.859375 44.980469 164.832031 34.675781 164.695312 L 23.363281 164.695312 C 22.171875 164.695312 21.027344 165.167969 20.183594 166.011719 C 19.339844 166.855469 18.863281 168.003906 18.863281 169.195312 L 18.863281 210.289062 C 18.863281 211.480469 19.339844 212.625 20.183594 213.46875 C 21.027344 214.3125 22.171875 214.789062 23.363281 214.789062 L 34.664062 214.789062 C 45.035156 214.652344 54.257812 207.734375 57.671875 198.082031 Z M 57.671875 198.082031 " clip-rule="nonzero"/></clipPath><clipPath id="b95db02225"><path d="M 0.863281 0.640625 L 41.117188 0.640625 L 41.117188 50.789062 L 0.863281 50.789062 Z M 0.863281 0.640625 " clip-rule="nonzero"/></clipPath><clipPath id="9f4b606803"><path d="M 39.671875 34.082031 C 40.542969 31.511719 41.117188 28.59375 41.117188 25.726562 C 41.117188 22.863281 40.625 20.105469 39.753906 17.5625 C 39.726562 17.511719 39.726562 17.457031 39.699219 17.402344 C 36.207031 7.859375 26.980469 0.832031 16.675781 0.695312 L 5.363281 0.695312 C 4.171875 0.695312 3.027344 1.167969 2.183594 2.011719 C 1.339844 2.855469 0.863281 4.003906 0.863281 5.195312 L 0.863281 46.289062 C 0.863281 47.480469 1.339844 48.625 2.183594 49.46875 C 3.027344 50.3125 4.171875 50.789062 5.363281 50.789062 L 16.664062 50.789062 C 27.035156 50.652344 36.257812 43.734375 39.671875 34.082031 Z M 39.671875 34.082031 " clip-rule="nonzero"/></clipPath><clipPath id="6aa6cd8094"><rect x="0" width="42" y="0" height="51"/></clipPath><clipPath id="a1b0396ea4"><path d="M 20.667969 170.371094 L 57.992188 170.371094 L 57.992188 209.105469 L 20.667969 209.105469 Z M 20.667969 170.371094 " clip-rule="nonzero"/></clipPath><clipPath id="b211fac8bb"><path d="M 40.5625 171.503906 L 42.671875 180.039062 C 43.433594 183.125 45.820312 185.546875 48.890625 186.359375 L 56.878906 188.460938 C 57.476562 188.617188 57.890625 189.15625 57.890625 189.773438 C 57.890625 190.390625 57.476562 190.929688 56.878906 191.085938 L 48.890625 193.1875 C 45.820312 193.996094 43.433594 196.421875 42.671875 199.507812 L 40.5625 208.042969 C 40.425781 208.609375 39.914062 209.011719 39.328125 209.011719 C 38.742188 209.011719 38.234375 208.609375 38.09375 208.042969 L 35.988281 199.507812 C 35.226562 196.421875 32.839844 193.996094 29.765625 193.1875 L 21.777344 191.085938 C 21.183594 190.929688 20.765625 190.390625 20.765625 189.773438 C 20.765625 189.15625 21.183594 188.617188 21.777344 188.460938 L 29.765625 186.359375 C 32.839844 185.546875 35.226562 183.125 35.988281 180.039062 L 38.09375 171.503906 C 38.234375 170.933594 38.742188 170.535156 39.328125 170.535156 C 39.914062 170.535156 40.425781 170.933594 40.5625 171.503906 Z M 40.5625 171.503906 " clip-rule="nonzero"/></clipPath><clipPath id="3637265aae"><path d="M 0.667969 0.398438 L 37.992188 0.398438 L 37.992188 39.039062 L 0.667969 39.039062 Z M 0.667969 0.398438 " clip-rule="nonzero"/></clipPath><clipPath id="e6c9d56874"><path d="M 20.5625 1.503906 L 22.671875 10.039062 C 23.433594 13.125 25.820312 15.546875 28.890625 16.359375 L 36.878906 18.460938 C 37.476562 18.617188 37.890625 19.15625 37.890625 19.773438 C 37.890625 20.390625 37.476562 20.929688 36.878906 21.085938 L 28.890625 23.1875 C 25.820312 23.996094 23.433594 26.421875 22.671875 29.507812 L 20.5625 38.042969 C 20.425781 38.609375 19.914062 39.011719 19.328125 39.011719 C 18.742188 39.011719 18.234375 38.609375 18.09375 38.042969 L 15.988281 29.507812 C 15.226562 26.421875 12.839844 23.996094 9.765625 23.1875 L 1.777344 21.085938 C 1.183594 20.929688 0.765625 20.390625 0.765625 19.773438 C 0.765625 19.15625 1.183594 18.617188 1.777344 18.460938 L 9.765625 16.359375 C 12.839844 15.546875 15.226562 13.125 15.988281 10.039062 L 18.09375 1.503906 C 18.234375 0.933594 18.742188 0.535156 19.328125 0.535156 C 19.914062 0.535156 20.425781 0.933594 20.5625 1.503906 Z M 20.5625 1.503906 " clip-rule="nonzero"/></clipPath><clipPath id="208ef7d211"><rect x="0" width="38" y="0" height="40"/></clipPath><clipPath id="826aebd9d3"><rect x="0" width="300" y="0" height="88"/></clipPath></defs><g clip-path="url(#80cb6ec13e)"><g clip-path="url(#8d750a6a82)"><g transform="matrix(1, 0, 0, 1, 18, 164)"><g clip-path="url(#6aa6cd8094)"><g clip-path="url(#b95db02225)"><g clip-path="url(#9f4b606803)"><path fill="#f4f4f4" d="M 0.863281 50.789062 L 0.863281 0.628906 L 41.117188 0.628906 L 41.117188 50.789062 Z M 0.863281 50.789062 " fill-opacity="1" fill-rule="nonzero"/></g></g></g></g></g></g><g clip-path="url(#a1b0396ea4)"><g clip-path="url(#b211fac8bb)"><g transform="matrix(1, 0, 0, 1, 20, 170)"><g clip-path="url(#208ef7d211)"><g clip-path="url(#3637265aae)"><g clip-path="url(#e6c9d56874)"><rect x="-102.5" width="540" fill="#5087ff" height="539.999987" y="-252.499998" fill-opacity="1"/></g></g></g></g></g></g><g transform="matrix(1, 0, 0, 1, 59, 143)"><g clip-path="url(#826aebd9d3)"><g fill="#f4f4f4" fill-opacity="1"><g transform="translate(1.307064, 70.948509)"><g><path d="M 22.28125 -45.96875 L 22.28125 -44.671875 C 20.894531 -44.628906 19.84375 -44.46875 19.125 -44.1875 C 18.40625 -43.90625 17.9375 -43.382812 17.71875 -42.625 C 17.507812 -41.875 17.40625 -40.695312 17.40625 -39.09375 L 17.40625 -6.890625 C 17.40625 -5.328125 17.523438 -4.15625 17.765625 -3.375 C 18.003906 -2.59375 18.46875 -2.070312 19.15625 -1.8125 C 19.851562 -1.550781 20.894531 -1.378906 22.28125 -1.296875 L 22.28125 0 C 21.101562 -0.0820312 19.628906 -0.132812 17.859375 -0.15625 C 16.085938 -0.175781 14.289062 -0.1875 12.46875 -0.1875 C 10.34375 -0.1875 8.378906 -0.175781 6.578125 -0.15625 C 4.785156 -0.132812 3.328125 -0.0820312 2.203125 0 L 2.203125 -1.296875 C 3.585938 -1.378906 4.625 -1.550781 5.3125 -1.8125 C 6.007812 -2.070312 6.476562 -2.59375 6.71875 -3.375 C 6.957031 -4.15625 7.078125 -5.328125 7.078125 -6.890625 L 7.078125 -39.09375 C 7.078125 -40.695312 6.957031 -41.875 6.71875 -42.625 C 6.476562 -43.382812 6 -43.90625 5.28125 -44.1875 C 4.570312 -44.46875 3.546875 -44.628906 2.203125 -44.671875 L 2.203125 -45.96875 C 3.328125 -45.925781 4.785156 -45.882812 6.578125 -45.84375 C 8.378906 -45.800781 10.34375 -45.78125 12.46875 -45.78125 C 14.289062 -45.78125 16.085938 -45.800781 17.859375 -45.84375 C 19.628906 -45.882812 21.101562 -45.925781 22.28125 -45.96875 Z M 22.28125 -45.96875 "/></g></g></g><g fill="#f4f4f4" fill-opacity="1"><g transform="translate(25.720768, 70.948509)"><g><path d="M 18.4375 -46.8125 C 21 -46.8125 22.96875 -46.539062 24.34375 -46 C 25.726562 -45.46875 26.921875 -44.894531 27.921875 -44.28125 C 28.441406 -43.976562 28.863281 -43.75 29.1875 -43.59375 C 29.507812 -43.445312 29.820312 -43.375 30.125 -43.375 C 30.5625 -43.375 30.875 -43.613281 31.0625 -44.09375 C 31.257812 -44.570312 31.425781 -45.285156 31.5625 -46.234375 L 33.046875 -46.234375 C 33.003906 -45.410156 32.953125 -44.425781 32.890625 -43.28125 C 32.828125 -42.132812 32.785156 -40.628906 32.765625 -38.765625 C 32.742188 -36.898438 32.734375 -34.457031 32.734375 -31.4375 L 31.234375 -31.4375 C 31.054688 -33.6875 30.535156 -35.867188 29.671875 -37.984375 C 28.804688 -40.109375 27.582031 -41.851562 26 -43.21875 C 24.425781 -44.582031 22.492188 -45.265625 20.203125 -45.265625 C 18.117188 -45.265625 16.40625 -44.675781 15.0625 -43.5 C 13.71875 -42.332031 13.046875 -40.710938 13.046875 -38.640625 C 13.046875 -36.910156 13.476562 -35.425781 14.34375 -34.1875 C 15.21875 -32.957031 16.488281 -31.753906 18.15625 -30.578125 C 19.820312 -29.410156 21.84375 -28.003906 24.21875 -26.359375 C 26.300781 -25.023438 28.164062 -23.6875 29.8125 -22.34375 C 31.457031 -21 32.773438 -19.484375 33.765625 -17.796875 C 34.765625 -16.109375 35.265625 -14.09375 35.265625 -11.75 C 35.265625 -8.894531 34.515625 -6.535156 33.015625 -4.671875 C 31.523438 -2.816406 29.566406 -1.421875 27.140625 -0.484375 C 24.710938 0.441406 22.050781 0.90625 19.15625 0.90625 C 16.46875 0.90625 14.320312 0.644531 12.71875 0.125 C 11.125 -0.394531 9.785156 -0.9375 8.703125 -1.5 C 7.742188 -2.101562 7.007812 -2.40625 6.5 -2.40625 C 6.0625 -2.40625 5.742188 -2.164062 5.546875 -1.6875 C 5.359375 -1.207031 5.195312 -0.492188 5.0625 0.453125 L 3.578125 0.453125 C 3.660156 -0.585938 3.710938 -1.800781 3.734375 -3.1875 C 3.753906 -4.570312 3.773438 -6.378906 3.796875 -8.609375 C 3.816406 -10.835938 3.828125 -13.660156 3.828125 -17.078125 L 5.328125 -17.078125 C 5.492188 -14.222656 5.976562 -11.550781 6.78125 -9.0625 C 7.582031 -6.570312 8.816406 -4.566406 10.484375 -3.046875 C 12.148438 -1.535156 14.367188 -0.78125 17.140625 -0.78125 C 18.660156 -0.78125 20.015625 -1.050781 21.203125 -1.59375 C 22.390625 -2.132812 23.351562 -2.945312 24.09375 -4.03125 C 24.832031 -5.113281 25.203125 -6.453125 25.203125 -8.046875 C 25.203125 -9.867188 24.773438 -11.453125 23.921875 -12.796875 C 23.078125 -14.140625 21.929688 -15.394531 20.484375 -16.5625 C 19.035156 -17.726562 17.359375 -18.914062 15.453125 -20.125 C 13.421875 -21.46875 11.515625 -22.8125 9.734375 -24.15625 C 7.960938 -25.5 6.546875 -27.035156 5.484375 -28.765625 C 4.421875 -30.492188 3.890625 -32.550781 3.890625 -34.9375 C 3.890625 -37.664062 4.570312 -39.90625 5.9375 -41.65625 C 7.300781 -43.40625 9.097656 -44.703125 11.328125 -45.546875 C 13.554688 -46.390625 15.925781 -46.8125 18.4375 -46.8125 Z M 18.4375 -46.8125 "/></g></g></g><g fill="#f4f4f4" fill-opacity="1"><g transform="translate(63.639935, 70.948509)"><g><path d="M 18.4375 -46.8125 C 21 -46.8125 22.96875 -46.539062 24.34375 -46 C 25.726562 -45.46875 26.921875 -44.894531 27.921875 -44.28125 C 28.441406 -43.976562 28.863281 -43.75 29.1875 -43.59375 C 29.507812 -43.445312 29.820312 -43.375 30.125 -43.375 C 30.5625 -43.375 30.875 -43.613281 31.0625 -44.09375 C 31.257812 -44.570312 31.425781 -45.285156 31.5625 -46.234375 L 33.046875 -46.234375 C 33.003906 -45.410156 32.953125 -44.425781 32.890625 -43.28125 C 32.828125 -42.132812 32.785156 -40.628906 32.765625 -38.765625 C 32.742188 -36.898438 32.734375 -34.457031 32.734375 -31.4375 L 31.234375 -31.4375 C 31.054688 -33.6875 30.535156 -35.867188 29.671875 -37.984375 C 28.804688 -40.109375 27.582031 -41.851562 26 -43.21875 C 24.425781 -44.582031 22.492188 -45.265625 20.203125 -45.265625 C 18.117188 -45.265625 16.40625 -44.675781 15.0625 -43.5 C 13.71875 -42.332031 13.046875 -40.710938 13.046875 -38.640625 C 13.046875 -36.910156 13.476562 -35.425781 14.34375 -34.1875 C 15.21875 -32.957031 16.488281 -31.753906 18.15625 -30.578125 C 19.820312 -29.410156 21.84375 -28.003906 24.21875 -26.359375 C 26.300781 -25.023438 28.164062 -23.6875 29.8125 -22.34375 C 31.457031 -21 32.773438 -19.484375 33.765625 -17.796875 C 34.765625 -16.109375 35.265625 -14.09375 35.265625 -11.75 C 35.265625 -8.894531 34.515625 -6.535156 33.015625 -4.671875 C 31.523438 -2.816406 29.566406 -1.421875 27.140625 -0.484375 C 24.710938 0.441406 22.050781 0.90625 19.15625 0.90625 C 16.46875 0.90625 14.320312 0.644531 12.71875 0.125 C 11.125 -0.394531 9.785156 -0.9375 8.703125 -1.5 C 7.742188 -2.101562 7.007812 -2.40625 6.5 -2.40625 C 6.0625 -2.40625 5.742188 -2.164062 5.546875 -1.6875 C 5.359375 -1.207031 5.195312 -0.492188 5.0625 0.453125 L 3.578125 0.453125 C 3.660156 -0.585938 3.710938 -1.800781 3.734375 -3.1875 C 3.753906 -4.570312 3.773438 -6.378906 3.796875 -8.609375 C 3.816406 -10.835938 3.828125 -13.660156 3.828125 -17.078125 L 5.328125 -17.078125 C 5.492188 -14.222656 5.976562 -11.550781 6.78125 -9.0625 C 7.582031 -6.570312 8.816406 -4.566406 10.484375 -3.046875 C 12.148438 -1.535156 14.367188 -0.78125 17.140625 -0.78125 C 18.660156 -0.78125 20.015625 -1.050781 21.203125 -1.59375 C 22.390625 -2.132812 23.351562 -2.945312 24.09375 -4.03125 C 24.832031 -5.113281 25.203125 -6.453125 25.203125 -8.046875 C 25.203125 -9.867188 24.773438 -11.453125 23.921875 -12.796875 C 23.078125 -14.140625 21.929688 -15.394531 20.484375 -16.5625 C 19.035156 -17.726562 17.359375 -18.914062 15.453125 -20.125 C 13.421875 -21.46875 11.515625 -22.8125 9.734375 -24.15625 C 7.960938 -25.5 6.546875 -27.035156 5.484375 -28.765625 C 4.421875 -30.492188 3.890625 -32.550781 3.890625 -34.9375 C 3.890625 -37.664062 4.570312 -39.90625 5.9375 -41.65625 C 7.300781 -43.40625 9.097656 -44.703125 11.328125 -45.546875 C 13.554688 -46.390625 15.925781 -46.8125 18.4375 -46.8125 Z M 18.4375 -46.8125 "/></g></g></g><g fill="#f4f4f4" fill-opacity="1"><g transform="translate(101.559103, 70.948509)"><g><path d="M 36.953125 -45.96875 C 36.773438 -44.070312 36.65625 -42.234375 36.59375 -40.453125 C 36.53125 -38.679688 36.5 -37.316406 36.5 -36.359375 C 36.5 -35.492188 36.519531 -34.671875 36.5625 -33.890625 C 36.601562 -33.117188 36.644531 -32.472656 36.6875 -31.953125 L 35.203125 -31.953125 C 34.765625 -35.109375 34.085938 -37.601562 33.171875 -39.4375 C 32.265625 -41.28125 31.085938 -42.582031 29.640625 -43.34375 C 28.191406 -44.101562 26.492188 -44.484375 24.546875 -44.484375 L 21.890625 -44.484375 C 20.628906 -44.484375 19.671875 -44.375 19.015625 -44.15625 C 18.367188 -43.9375 17.9375 -43.503906 17.71875 -42.859375 C 17.507812 -42.210938 17.40625 -41.21875 17.40625 -39.875 L 17.40625 -6.109375 C 17.40625 -4.765625 17.507812 -3.765625 17.71875 -3.109375 C 17.9375 -2.460938 18.367188 -2.03125 19.015625 -1.8125 C 19.671875 -1.601562 20.628906 -1.5 21.890625 -1.5 L 25.0625 -1.5 C 27.007812 -1.5 28.726562 -1.921875 30.21875 -2.765625 C 31.71875 -3.609375 33 -5.046875 34.0625 -7.078125 C 35.125 -9.109375 35.9375 -11.859375 36.5 -15.328125 L 37.984375 -15.328125 C 37.859375 -13.941406 37.796875 -12.125 37.796875 -9.875 C 37.796875 -8.875 37.816406 -7.460938 37.859375 -5.640625 C 37.898438 -3.828125 38.03125 -1.945312 38.25 0 C 36.039062 -0.0820312 33.550781 -0.132812 30.78125 -0.15625 C 28.007812 -0.175781 25.539062 -0.1875 23.375 -0.1875 C 22.289062 -0.1875 20.90625 -0.1875 19.21875 -0.1875 C 17.53125 -0.1875 15.710938 -0.175781 13.765625 -0.15625 C 11.816406 -0.132812 9.847656 -0.113281 7.859375 -0.09375 C 5.867188 -0.0703125 3.984375 -0.0390625 2.203125 0 L 2.203125 -1.296875 C 3.585938 -1.378906 4.625 -1.550781 5.3125 -1.8125 C 6.007812 -2.070312 6.476562 -2.59375 6.71875 -3.375 C 6.957031 -4.15625 7.078125 -5.328125 7.078125 -6.890625 L 7.078125 -39.09375 C 7.078125 -40.695312 6.957031 -41.875 6.71875 -42.625 C 6.476562 -43.382812 6 -43.90625 5.28125 -44.1875 C 4.570312 -44.46875 3.546875 -44.628906 2.203125 -44.671875 L 2.203125 -45.96875 C 3.984375 -45.925781 5.867188 -45.894531 7.859375 -45.875 C 9.847656 -45.851562 11.816406 -45.832031 13.765625 -45.8125 C 15.710938 -45.789062 17.53125 -45.78125 19.21875 -45.78125 C 20.90625 -45.78125 22.289062 -45.78125 23.375 -45.78125 C 25.363281 -45.78125 27.625 -45.789062 30.15625 -45.8125 C 32.695312 -45.832031 34.960938 -45.882812 36.953125 -45.96875 Z M 26.8125 -23.765625 C 26.8125 -23.765625 26.8125 -23.546875 26.8125 -23.109375 C 26.8125 -22.679688 26.8125 -22.46875 26.8125 -22.46875 L 15.453125 -22.46875 C 15.453125 -22.46875 15.453125 -22.679688 15.453125 -23.109375 C 15.453125 -23.546875 15.453125 -23.765625 15.453125 -23.765625 Z M 28.703125 -32.34375 C 28.523438 -29.875 28.445312 -27.988281 28.46875 -26.6875 C 28.488281 -25.382812 28.5 -24.195312 28.5 -23.125 C 28.5 -22.039062 28.519531 -20.847656 28.5625 -19.546875 C 28.613281 -18.242188 28.722656 -16.359375 28.890625 -13.890625 L 27.40625 -13.890625 C 27.1875 -15.410156 26.785156 -16.816406 26.203125 -18.109375 C 25.617188 -19.410156 24.785156 -20.460938 23.703125 -21.265625 C 22.617188 -22.066406 21.210938 -22.46875 19.484375 -22.46875 L 19.484375 -23.765625 C 20.773438 -23.765625 21.875 -24.035156 22.78125 -24.578125 C 23.695312 -25.117188 24.445312 -25.832031 25.03125 -26.71875 C 25.613281 -27.601562 26.078125 -28.546875 26.421875 -29.546875 C 26.773438 -30.546875 27.035156 -31.476562 27.203125 -32.34375 Z M 28.703125 -32.34375 "/></g></g></g><g fill="#f4f4f4" fill-opacity="1"><g transform="translate(142.724773, 70.948509)"><g><path d="M 2.203125 -45.96875 C 3.285156 -45.925781 4.742188 -45.882812 6.578125 -45.84375 C 8.421875 -45.800781 10.253906 -45.78125 12.078125 -45.78125 C 14.160156 -45.78125 16.175781 -45.800781 18.125 -45.84375 C 20.070312 -45.882812 21.457031 -45.90625 22.28125 -45.90625 C 26.300781 -45.90625 29.640625 -45.460938 32.296875 -44.578125 C 34.960938 -43.691406 36.957031 -42.40625 38.28125 -40.71875 C 39.601562 -39.03125 40.265625 -36.992188 40.265625 -34.609375 C 40.265625 -33.140625 39.957031 -31.65625 39.34375 -30.15625 C 38.738281 -28.664062 37.710938 -27.28125 36.265625 -26 C 34.816406 -24.726562 32.835938 -23.710938 30.328125 -22.953125 C 27.816406 -22.191406 24.65625 -21.8125 20.84375 -21.8125 L 14.609375 -21.8125 L 14.609375 -23.125 L 20.203125 -23.125 C 22.753906 -23.125 24.6875 -23.609375 26 -24.578125 C 27.320312 -25.554688 28.234375 -26.851562 28.734375 -28.46875 C 29.234375 -30.09375 29.484375 -31.898438 29.484375 -33.890625 C 29.484375 -37.316406 28.875 -39.96875 27.65625 -41.84375 C 26.445312 -43.726562 24.367188 -44.671875 21.421875 -44.671875 C 19.734375 -44.671875 18.640625 -44.300781 18.140625 -43.5625 C 17.648438 -42.832031 17.40625 -41.34375 17.40625 -39.09375 L 17.40625 -6.890625 C 17.40625 -5.328125 17.523438 -4.15625 17.765625 -3.375 C 18.003906 -2.59375 18.46875 -2.070312 19.15625 -1.8125 C 19.851562 -1.550781 20.894531 -1.378906 22.28125 -1.296875 L 22.28125 0 C 21.101562 -0.0820312 19.628906 -0.132812 17.859375 -0.15625 C 16.085938 -0.175781 14.289062 -0.1875 12.46875 -0.1875 C 10.382812 -0.1875 8.421875 -0.175781 6.578125 -0.15625 C 4.742188 -0.132812 3.285156 -0.0820312 2.203125 0 L 2.203125 -1.296875 C 3.585938 -1.378906 4.625 -1.550781 5.3125 -1.8125 C 6.007812 -2.070312 6.476562 -2.59375 6.71875 -3.375 C 6.957031 -4.15625 7.078125 -5.328125 7.078125 -6.890625 L 7.078125 -39.09375 C 7.078125 -40.695312 6.957031 -41.875 6.71875 -42.625 C 6.476562 -43.382812 6 -43.90625 5.28125 -44.1875 C 4.570312 -44.46875 3.546875 -44.628906 2.203125 -44.671875 Z M 14.484375 -22.921875 C 16.335938 -22.878906 17.945312 -22.789062 19.3125 -22.65625 C 20.675781 -22.53125 21.878906 -22.410156 22.921875 -22.296875 C 23.960938 -22.191406 24.894531 -22.117188 25.71875 -22.078125 C 29.65625 -21.734375 32.566406 -20.890625 34.453125 -19.546875 C 36.335938 -18.203125 37.5625 -16.1875 38.125 -13.5 L 39.609375 -6.8125 C 40.003906 -5.082031 40.414062 -3.867188 40.84375 -3.171875 C 41.28125 -2.484375 41.910156 -2.140625 42.734375 -2.140625 C 43.296875 -2.179688 43.757812 -2.320312 44.125 -2.5625 C 44.488281 -2.800781 44.890625 -3.160156 45.328125 -3.640625 L 46.234375 -2.859375 C 45.066406 -1.515625 43.8125 -0.550781 42.46875 0.03125 C 41.125 0.613281 39.5 0.90625 37.59375 0.90625 C 35.257812 0.90625 33.332031 0.410156 31.8125 -0.578125 C 30.300781 -1.578125 29.304688 -3.421875 28.828125 -6.109375 L 27.65625 -12.59375 C 27.351562 -14.414062 26.984375 -16.007812 26.546875 -17.375 C 26.117188 -18.738281 25.523438 -19.816406 24.765625 -20.609375 C 24.015625 -21.410156 22.96875 -21.8125 21.625 -21.8125 L 14.609375 -21.8125 Z M 14.484375 -22.921875 "/></g></g></g><g fill="#f4f4f4" fill-opacity="1"><g transform="translate(187.656389, 70.948509)"><g><path d="M 41.6875 -45.96875 C 41.519531 -43.757812 41.398438 -41.640625 41.328125 -39.609375 C 41.265625 -37.578125 41.234375 -36.019531 41.234375 -34.9375 C 41.234375 -33.976562 41.253906 -33.066406 41.296875 -32.203125 C 41.335938 -31.335938 41.382812 -30.601562 41.4375 -30 L 39.9375 -30 C 39.238281 -33.632812 38.359375 -36.507812 37.296875 -38.625 C 36.242188 -40.75 34.976562 -42.253906 33.5 -43.140625 C 32.03125 -44.035156 30.300781 -44.484375 28.3125 -44.484375 L 26.8125 -44.484375 L 26.8125 -7.40625 C 26.8125 -5.675781 26.992188 -4.375 27.359375 -3.5 C 27.734375 -2.632812 28.414062 -2.0625 29.40625 -1.78125 C 30.40625 -1.5 31.859375 -1.335938 33.765625 -1.296875 L 33.765625 0 C 32.421875 -0.0390625 30.632812 -0.0820312 28.40625 -0.125 C 26.175781 -0.164062 23.847656 -0.1875 21.421875 -0.1875 C 19.046875 -0.1875 16.796875 -0.164062 14.671875 -0.125 C 12.554688 -0.0820312 10.847656 -0.0390625 9.546875 0 L 9.546875 -1.296875 C 11.492188 -1.335938 12.960938 -1.5 13.953125 -1.78125 C 14.953125 -2.0625 15.625 -2.632812 15.96875 -3.5 C 16.320312 -4.375 16.5 -5.675781 16.5 -7.40625 L 16.5 -44.484375 L 15.0625 -44.484375 C 13.070312 -44.484375 11.335938 -44.035156 9.859375 -43.140625 C 8.390625 -42.253906 7.132812 -40.757812 6.09375 -38.65625 C 5.0625 -36.5625 4.15625 -33.675781 3.375 -30 L 1.890625 -30 C 1.972656 -30.601562 2.023438 -31.335938 2.046875 -32.203125 C 2.066406 -33.066406 2.078125 -33.976562 2.078125 -34.9375 C 2.078125 -36.019531 2.046875 -37.578125 1.984375 -39.609375 C 1.921875 -41.640625 1.800781 -43.757812 1.625 -45.96875 C 3.613281 -45.925781 5.785156 -45.882812 8.140625 -45.84375 C 10.503906 -45.800781 12.875 -45.78125 15.25 -45.78125 C 17.632812 -45.78125 19.78125 -45.78125 21.6875 -45.78125 C 23.632812 -45.78125 25.785156 -45.78125 28.140625 -45.78125 C 30.503906 -45.78125 32.875 -45.800781 35.25 -45.84375 C 37.632812 -45.882812 39.78125 -45.925781 41.6875 -45.96875 Z M 41.6875 -45.96875 "/></g></g></g><g fill="#5087ff" fill-opacity="1"><g transform="translate(231.02992, 70.948509)"><g><path d="M 23.890625 -46.109375 L 39.671875 -5.453125 C 40.285156 -3.890625 40.96875 -2.816406 41.71875 -2.234375 C 42.476562 -1.648438 43.160156 -1.335938 43.765625 -1.296875 L 43.765625 0 C 42.460938 -0.0820312 40.9375 -0.132812 39.1875 -0.15625 C 37.4375 -0.175781 35.671875 -0.1875 33.890625 -0.1875 C 31.898438 -0.1875 30.015625 -0.175781 28.234375 -0.15625 C 26.460938 -0.132812 25.0625 -0.0820312 24.03125 0 L 24.03125 -1.296875 C 26.238281 -1.378906 27.632812 -1.753906 28.21875 -2.421875 C 28.800781 -3.097656 28.660156 -4.539062 27.796875 -6.75 L 16.75 -36.953125 L 17.921875 -38.640625 L 8.046875 -12.921875 C 7.097656 -10.535156 6.523438 -8.585938 6.328125 -7.078125 C 6.140625 -5.566406 6.25 -4.398438 6.65625 -3.578125 C 7.0625 -2.753906 7.726562 -2.175781 8.65625 -1.84375 C 9.59375 -1.519531 10.710938 -1.335938 12.015625 -1.296875 L 12.015625 0 C 10.585938 -0.0820312 9.222656 -0.132812 7.921875 -0.15625 C 6.617188 -0.175781 5.300781 -0.1875 3.96875 -0.1875 C 3.007812 -0.1875 2.109375 -0.175781 1.265625 -0.15625 C 0.421875 -0.132812 -0.320312 -0.0820312 -0.96875 0 L -0.96875 -1.296875 C -0.0625 -1.472656 0.863281 -2.054688 1.8125 -3.046875 C 2.769531 -4.046875 3.703125 -5.738281 4.609375 -8.125 L 19.421875 -46.109375 C 20.109375 -46.066406 20.851562 -46.046875 21.65625 -46.046875 C 22.457031 -46.046875 23.203125 -46.066406 23.890625 -46.109375 Z M 28.4375 -18.703125 L 28.4375 -17.40625 L 9.09375 -17.40625 L 9.734375 -18.703125 Z M 28.4375 -18.703125 "/></g></g></g><g fill="#5087ff" fill-opacity="1"><g transform="translate(274.338274, 70.948509)"><g><path d="M 22.28125 -45.96875 L 22.28125 -44.671875 C 20.894531 -44.628906 19.84375 -44.46875 19.125 -44.1875 C 18.40625 -43.90625 17.9375 -43.382812 17.71875 -42.625 C 17.507812 -41.875 17.40625 -40.695312 17.40625 -39.09375 L 17.40625 -6.890625 C 17.40625 -5.328125 17.523438 -4.15625 17.765625 -3.375 C 18.003906 -2.59375 18.46875 -2.070312 19.15625 -1.8125 C 19.851562 -1.550781 20.894531 -1.378906 22.28125 -1.296875 L 22.28125 0 C 21.101562 -0.0820312 19.628906 -0.132812 17.859375 -0.15625 C 16.085938 -0.175781 14.289062 -0.1875 12.46875 -0.1875 C 10.34375 -0.1875 8.378906 -0.175781 6.578125 -0.15625 C 4.785156 -0.132812 3.328125 -0.0820312 2.203125 0 L 2.203125 -1.296875 C 3.585938 -1.378906 4.625 -1.550781 5.3125 -1.8125 C 6.007812 -2.070312 6.476562 -2.59375 6.71875 -3.375 C 6.957031 -4.15625 7.078125 -5.328125 7.078125 -6.890625 L 7.078125 -39.09375 C 7.078125 -40.695312 6.957031 -41.875 6.71875 -42.625 C 6.476562 -43.382812 6 -43.90625 5.28125 -44.1875 C 4.570312 -44.46875 3.546875 -44.628906 2.203125 -44.671875 L 2.203125 -45.96875 C 3.328125 -45.925781 4.785156 -45.882812 6.578125 -45.84375 C 8.378906 -45.800781 10.34375 -45.78125 12.46875 -45.78125 C 14.289062 -45.78125 16.085938 -45.800781 17.859375 -45.84375 C 19.628906 -45.882812 21.101562 -45.925781 22.28125 -45.96875 Z M 22.28125 -45.96875 "/></g></g></g></g></g></svg>