<svg xmlns="http://www.w3.org/2000/svg" xmlns:xlink="http://www.w3.org/1999/xlink" width="500" zoomAndPan="magnify" viewBox="0 0 375 374.999991" height="500" preserveAspectRatio="xMidYMid meet" version="1.0"><defs><g/><clipPath id="615ad2da4d"><path d="M 20.730469 164.90625 L 60.65625 164.90625 L 60.65625 214.617188 L 20.730469 214.617188 Z M 20.730469 164.90625 " clip-rule="nonzero"/></clipPath><clipPath id="372a3cc822"><path d="M 59.226562 197.957031 C 60.089844 195.417969 60.65625 192.535156 60.65625 189.703125 C 60.65625 186.871094 60.171875 184.148438 59.308594 181.636719 C 59.28125 181.585938 59.28125 181.53125 59.253906 181.476562 C 55.804688 172.050781 46.6875 165.105469 36.507812 164.972656 L 25.386719 164.972656 C 24.195312 164.972656 23.050781 165.445312 22.203125 166.289062 C 21.359375 167.132812 20.886719 168.277344 20.886719 169.472656 L 20.886719 209.964844 C 20.886719 211.15625 21.359375 212.300781 22.203125 213.144531 C 23.050781 213.988281 24.195312 214.464844 25.386719 214.464844 L 36.496094 214.464844 C 46.742188 214.328125 55.855469 207.492188 59.226562 197.957031 Z M 59.226562 197.957031 " clip-rule="nonzero"/></clipPath><clipPath id="582160d7e3"><path d="M 0.878906 0.90625 L 40.65625 0.90625 L 40.65625 50.558594 L 0.878906 50.558594 Z M 0.878906 0.90625 " clip-rule="nonzero"/></clipPath><clipPath id="7aca7bd87a"><path d="M 39.226562 33.957031 C 40.089844 31.417969 40.65625 28.535156 40.65625 25.703125 C 40.65625 22.871094 40.171875 20.148438 39.308594 17.636719 C 39.28125 17.585938 39.28125 17.53125 39.253906 17.476562 C 35.804688 8.050781 26.6875 1.105469 16.507812 0.972656 L 5.386719 0.972656 C 4.195312 0.972656 3.050781 1.445312 2.203125 2.289062 C 1.359375 3.132812 0.886719 4.277344 0.886719 5.472656 L 0.886719 45.964844 C 0.886719 47.15625 1.359375 48.300781 2.203125 49.144531 C 3.050781 49.988281 4.195312 50.464844 5.386719 50.464844 L 16.496094 50.464844 C 26.742188 50.328125 35.855469 43.492188 39.226562 33.957031 Z M 39.226562 33.957031 " clip-rule="nonzero"/></clipPath><clipPath id="e613d340f0"><rect x="0" width="41" y="0" height="51"/></clipPath><clipPath id="37a1dc0869"><path d="M 22.675781 170.75 L 59.550781 170.75 L 59.550781 208.84375 L 22.675781 208.84375 Z M 22.675781 170.75 " clip-rule="nonzero"/></clipPath><clipPath id="c9db8dc471"><path d="M 42.347656 171.753906 L 44.402344 180.070312 C 45.164062 183.15625 47.550781 185.578125 50.621094 186.386719 L 58.394531 188.433594 C 58.988281 188.589844 59.40625 189.128906 59.40625 189.746094 C 59.40625 190.363281 58.988281 190.902344 58.394531 191.058594 L 50.621094 193.105469 C 47.550781 193.914062 45.164062 196.335938 44.402344 199.421875 L 42.347656 207.734375 C 42.210938 208.304688 41.699219 208.703125 41.113281 208.703125 C 40.527344 208.703125 40.019531 208.304688 39.878906 207.734375 L 37.828125 199.421875 C 37.066406 196.335938 34.679688 193.914062 31.605469 193.105469 L 23.835938 191.058594 C 23.238281 190.902344 22.824219 190.363281 22.824219 189.746094 C 22.824219 189.128906 23.238281 188.589844 23.835938 188.433594 L 31.605469 186.386719 C 34.679688 185.578125 37.066406 183.15625 37.828125 180.070312 L 39.878906 171.753906 C 40.019531 171.1875 40.527344 170.789062 41.113281 170.789062 C 41.699219 170.789062 42.210938 171.1875 42.347656 171.753906 Z M 42.347656 171.753906 " clip-rule="nonzero"/></clipPath><clipPath id="32231dccb3"><path d="M 0.800781 0.75 L 37.519531 0.75 L 37.519531 38.800781 L 0.800781 38.800781 Z M 0.800781 0.75 " clip-rule="nonzero"/></clipPath><clipPath id="981f62ec60"><path d="M 20.347656 1.753906 L 22.402344 10.070312 C 23.164062 13.15625 25.550781 15.578125 28.621094 16.386719 L 36.394531 18.433594 C 36.988281 18.589844 37.40625 19.128906 37.40625 19.746094 C 37.40625 20.363281 36.988281 20.902344 36.394531 21.058594 L 28.621094 23.105469 C 25.550781 23.914062 23.164062 26.335938 22.402344 29.421875 L 20.347656 37.734375 C 20.210938 38.304688 19.699219 38.703125 19.113281 38.703125 C 18.527344 38.703125 18.019531 38.304688 17.878906 37.734375 L 15.828125 29.421875 C 15.066406 26.335938 12.679688 23.914062 9.605469 23.105469 L 1.835938 21.058594 C 1.238281 20.902344 0.824219 20.363281 0.824219 19.746094 C 0.824219 19.128906 1.238281 18.589844 1.835938 18.433594 L 9.605469 16.386719 C 12.679688 15.578125 15.066406 13.15625 15.828125 10.070312 L 17.878906 1.753906 C 18.019531 1.1875 18.527344 0.789062 19.113281 0.789062 C 19.699219 0.789062 20.210938 1.1875 20.347656 1.753906 Z M 20.347656 1.753906 " clip-rule="nonzero"/></clipPath><clipPath id="a380f0e639"><rect x="0" width="38" y="0" height="39"/></clipPath><clipPath id="c88e5586aa"><rect x="0" width="296" y="0" height="86"/></clipPath></defs><g clip-path="url(#615ad2da4d)"><g clip-path="url(#372a3cc822)"><g transform="matrix(1, 0, 0, 1, 20, 164)"><g clip-path="url(#e613d340f0)"><g clip-path="url(#582160d7e3)"><g clip-path="url(#7aca7bd87a)"><path fill="#5087ff" d="M 0.886719 50.464844 L 0.886719 0.90625 L 40.65625 0.90625 L 40.65625 50.464844 Z M 0.886719 50.464844 " fill-opacity="1" fill-rule="nonzero"/></g></g></g></g></g></g><g clip-path="url(#37a1dc0869)"><g clip-path="url(#c9db8dc471)"><g transform="matrix(1, 0, 0, 1, 22, 170)"><g clip-path="url(#a380f0e639)"><g clip-path="url(#32231dccb3)"><g clip-path="url(#981f62ec60)"><rect x="-104.5" width="540" fill="#f4f4f4" height="539.999987" y="-252.499998" fill-opacity="1"/></g></g></g></g></g></g><g transform="matrix(1, 0, 0, 1, 61, 144)"><g clip-path="url(#c88e5586aa)"><g fill="#5087ff" fill-opacity="1"><g transform="translate(0.831722, 69.631422)"><g><path d="M 22 -45.421875 L 22 -44.140625 C 20.632812 -44.097656 19.597656 -43.9375 18.890625 -43.65625 C 18.179688 -43.375 17.71875 -42.859375 17.5 -42.109375 C 17.289062 -41.367188 17.1875 -40.207031 17.1875 -38.625 L 17.1875 -6.796875 C 17.1875 -5.253906 17.304688 -4.097656 17.546875 -3.328125 C 17.785156 -2.566406 18.242188 -2.054688 18.921875 -1.796875 C 19.609375 -1.535156 20.632812 -1.363281 22 -1.28125 L 22 0 C 20.84375 -0.0820312 19.390625 -0.132812 17.640625 -0.15625 C 15.890625 -0.175781 14.113281 -0.1875 12.3125 -0.1875 C 10.21875 -0.1875 8.28125 -0.175781 6.5 -0.15625 C 4.726562 -0.132812 3.289062 -0.0820312 2.1875 0 L 2.1875 -1.28125 C 3.550781 -1.363281 4.570312 -1.535156 5.25 -1.796875 C 5.9375 -2.054688 6.398438 -2.566406 6.640625 -3.328125 C 6.878906 -4.097656 7 -5.253906 7 -6.796875 L 7 -38.625 C 7 -40.207031 6.878906 -41.367188 6.640625 -42.109375 C 6.398438 -42.859375 5.925781 -43.375 5.21875 -43.65625 C 4.519531 -43.9375 3.507812 -44.097656 2.1875 -44.140625 L 2.1875 -45.421875 C 3.289062 -45.378906 4.726562 -45.335938 6.5 -45.296875 C 8.28125 -45.253906 10.21875 -45.234375 12.3125 -45.234375 C 14.113281 -45.234375 15.890625 -45.253906 17.640625 -45.296875 C 19.390625 -45.335938 20.84375 -45.378906 22 -45.421875 Z M 22 -45.421875 "/></g></g></g><g fill="#5087ff" fill-opacity="1"><g transform="translate(24.952779, 69.631422)"><g><path d="M 18.21875 -46.25 C 20.738281 -46.25 22.679688 -45.984375 24.046875 -45.453125 C 25.421875 -44.921875 26.601562 -44.351562 27.59375 -43.75 C 28.101562 -43.457031 28.515625 -43.234375 28.828125 -43.078125 C 29.148438 -42.929688 29.460938 -42.859375 29.765625 -42.859375 C 30.191406 -42.859375 30.5 -43.09375 30.6875 -43.5625 C 30.882812 -44.03125 31.050781 -44.734375 31.1875 -45.671875 L 32.65625 -45.671875 C 32.613281 -44.859375 32.5625 -43.882812 32.5 -42.75 C 32.4375 -41.625 32.390625 -40.140625 32.359375 -38.296875 C 32.335938 -36.460938 32.328125 -34.046875 32.328125 -31.046875 L 30.859375 -31.046875 C 30.691406 -33.273438 30.175781 -35.4375 29.3125 -37.53125 C 28.457031 -39.625 27.25 -41.34375 25.6875 -42.6875 C 24.132812 -44.039062 22.222656 -44.71875 19.953125 -44.71875 C 17.898438 -44.71875 16.207031 -44.140625 14.875 -42.984375 C 13.550781 -41.828125 12.890625 -40.222656 12.890625 -38.171875 C 12.890625 -36.460938 13.316406 -35 14.171875 -33.78125 C 15.035156 -32.5625 16.289062 -31.375 17.9375 -30.21875 C 19.582031 -29.0625 21.582031 -27.671875 23.9375 -26.046875 C 25.988281 -24.722656 27.828125 -23.394531 29.453125 -22.0625 C 31.078125 -20.738281 32.378906 -19.242188 33.359375 -17.578125 C 34.347656 -15.910156 34.84375 -13.921875 34.84375 -11.609375 C 34.84375 -8.785156 34.101562 -6.453125 32.625 -4.609375 C 31.144531 -2.773438 29.207031 -1.398438 26.8125 -0.484375 C 24.414062 0.429688 21.785156 0.890625 18.921875 0.890625 C 16.273438 0.890625 14.160156 0.632812 12.578125 0.125 C 10.992188 -0.382812 9.664062 -0.914062 8.59375 -1.46875 C 7.65625 -2.070312 6.929688 -2.375 6.421875 -2.375 C 5.992188 -2.375 5.679688 -2.140625 5.484375 -1.671875 C 5.296875 -1.203125 5.132812 -0.492188 5 0.453125 L 3.53125 0.453125 C 3.613281 -0.578125 3.664062 -1.773438 3.6875 -3.140625 C 3.707031 -4.515625 3.726562 -6.300781 3.75 -8.5 C 3.769531 -10.707031 3.78125 -13.5 3.78125 -16.875 L 5.265625 -16.875 C 5.429688 -14.050781 5.910156 -11.410156 6.703125 -8.953125 C 7.492188 -6.492188 8.710938 -4.515625 10.359375 -3.015625 C 12.003906 -1.515625 14.195312 -0.765625 16.9375 -0.765625 C 18.4375 -0.765625 19.773438 -1.03125 20.953125 -1.5625 C 22.128906 -2.101562 23.078125 -2.90625 23.796875 -3.96875 C 24.523438 -5.039062 24.890625 -6.367188 24.890625 -7.953125 C 24.890625 -9.753906 24.472656 -11.316406 23.640625 -12.640625 C 22.804688 -13.960938 21.671875 -15.203125 20.234375 -16.359375 C 18.804688 -17.515625 17.148438 -18.691406 15.265625 -19.890625 C 13.253906 -21.210938 11.375 -22.535156 9.625 -23.859375 C 7.875 -25.191406 6.472656 -26.710938 5.421875 -28.421875 C 4.367188 -30.128906 3.84375 -32.160156 3.84375 -34.515625 C 3.84375 -37.210938 4.515625 -39.425781 5.859375 -41.15625 C 7.210938 -42.882812 8.988281 -44.164062 11.1875 -45 C 13.394531 -45.832031 15.738281 -46.25 18.21875 -46.25 Z M 18.21875 -46.25 "/></g></g></g><g fill="#5087ff" fill-opacity="1"><g transform="translate(62.417413, 69.631422)"><g><path d="M 18.21875 -46.25 C 20.738281 -46.25 22.679688 -45.984375 24.046875 -45.453125 C 25.421875 -44.921875 26.601562 -44.351562 27.59375 -43.75 C 28.101562 -43.457031 28.515625 -43.234375 28.828125 -43.078125 C 29.148438 -42.929688 29.460938 -42.859375 29.765625 -42.859375 C 30.191406 -42.859375 30.5 -43.09375 30.6875 -43.5625 C 30.882812 -44.03125 31.050781 -44.734375 31.1875 -45.671875 L 32.65625 -45.671875 C 32.613281 -44.859375 32.5625 -43.882812 32.5 -42.75 C 32.4375 -41.625 32.390625 -40.140625 32.359375 -38.296875 C 32.335938 -36.460938 32.328125 -34.046875 32.328125 -31.046875 L 30.859375 -31.046875 C 30.691406 -33.273438 30.175781 -35.4375 29.3125 -37.53125 C 28.457031 -39.625 27.25 -41.34375 25.6875 -42.6875 C 24.132812 -44.039062 22.222656 -44.71875 19.953125 -44.71875 C 17.898438 -44.71875 16.207031 -44.140625 14.875 -42.984375 C 13.550781 -41.828125 12.890625 -40.222656 12.890625 -38.171875 C 12.890625 -36.460938 13.316406 -35 14.171875 -33.78125 C 15.035156 -32.5625 16.289062 -31.375 17.9375 -30.21875 C 19.582031 -29.0625 21.582031 -27.671875 23.9375 -26.046875 C 25.988281 -24.722656 27.828125 -23.394531 29.453125 -22.0625 C 31.078125 -20.738281 32.378906 -19.242188 33.359375 -17.578125 C 34.347656 -15.910156 34.84375 -13.921875 34.84375 -11.609375 C 34.84375 -8.785156 34.101562 -6.453125 32.625 -4.609375 C 31.144531 -2.773438 29.207031 -1.398438 26.8125 -0.484375 C 24.414062 0.429688 21.785156 0.890625 18.921875 0.890625 C 16.273438 0.890625 14.160156 0.632812 12.578125 0.125 C 10.992188 -0.382812 9.664062 -0.914062 8.59375 -1.46875 C 7.65625 -2.070312 6.929688 -2.375 6.421875 -2.375 C 5.992188 -2.375 5.679688 -2.140625 5.484375 -1.671875 C 5.296875 -1.203125 5.132812 -0.492188 5 0.453125 L 3.53125 0.453125 C 3.613281 -0.578125 3.664062 -1.773438 3.6875 -3.140625 C 3.707031 -4.515625 3.726562 -6.300781 3.75 -8.5 C 3.769531 -10.707031 3.78125 -13.5 3.78125 -16.875 L 5.265625 -16.875 C 5.429688 -14.050781 5.910156 -11.410156 6.703125 -8.953125 C 7.492188 -6.492188 8.710938 -4.515625 10.359375 -3.015625 C 12.003906 -1.515625 14.195312 -0.765625 16.9375 -0.765625 C 18.4375 -0.765625 19.773438 -1.03125 20.953125 -1.5625 C 22.128906 -2.101562 23.078125 -2.90625 23.796875 -3.96875 C 24.523438 -5.039062 24.890625 -6.367188 24.890625 -7.953125 C 24.890625 -9.753906 24.472656 -11.316406 23.640625 -12.640625 C 22.804688 -13.960938 21.671875 -15.203125 20.234375 -16.359375 C 18.804688 -17.515625 17.148438 -18.691406 15.265625 -19.890625 C 13.253906 -21.210938 11.375 -22.535156 9.625 -23.859375 C 7.875 -25.191406 6.472656 -26.710938 5.421875 -28.421875 C 4.367188 -30.128906 3.84375 -32.160156 3.84375 -34.515625 C 3.84375 -37.210938 4.515625 -39.425781 5.859375 -41.15625 C 7.210938 -42.882812 8.988281 -44.164062 11.1875 -45 C 13.394531 -45.832031 15.738281 -46.25 18.21875 -46.25 Z M 18.21875 -46.25 "/></g></g></g><g fill="#5087ff" fill-opacity="1"><g transform="translate(99.882046, 69.631422)"><g><path d="M 36.5 -45.421875 C 36.332031 -43.535156 36.21875 -41.71875 36.15625 -39.96875 C 36.09375 -38.21875 36.0625 -36.867188 36.0625 -35.921875 C 36.0625 -35.066406 36.082031 -34.253906 36.125 -33.484375 C 36.164062 -32.710938 36.207031 -32.070312 36.25 -31.5625 L 34.765625 -31.5625 C 34.335938 -34.6875 33.675781 -37.15625 32.78125 -38.96875 C 31.882812 -40.789062 30.71875 -42.078125 29.28125 -42.828125 C 27.851562 -43.578125 26.175781 -43.953125 24.25 -43.953125 L 21.625 -43.953125 C 20.382812 -43.953125 19.441406 -43.84375 18.796875 -43.625 C 18.148438 -43.414062 17.71875 -42.988281 17.5 -42.34375 C 17.289062 -41.695312 17.1875 -40.710938 17.1875 -39.390625 L 17.1875 -6.03125 C 17.1875 -4.707031 17.289062 -3.722656 17.5 -3.078125 C 17.71875 -2.429688 18.148438 -2 18.796875 -1.78125 C 19.441406 -1.570312 20.382812 -1.46875 21.625 -1.46875 L 24.765625 -1.46875 C 26.691406 -1.46875 28.390625 -1.882812 29.859375 -2.71875 C 31.335938 -3.5625 32.597656 -4.988281 33.640625 -7 C 34.691406 -9.007812 35.5 -11.722656 36.0625 -15.140625 L 37.53125 -15.140625 C 37.40625 -13.773438 37.34375 -11.976562 37.34375 -9.75 C 37.34375 -8.769531 37.363281 -7.378906 37.40625 -5.578125 C 37.445312 -3.785156 37.570312 -1.925781 37.78125 0 C 35.601562 -0.0820312 33.144531 -0.132812 30.40625 -0.15625 C 27.664062 -0.175781 25.226562 -0.1875 23.09375 -0.1875 C 22.03125 -0.1875 20.660156 -0.1875 18.984375 -0.1875 C 17.316406 -0.1875 15.519531 -0.175781 13.59375 -0.15625 C 11.675781 -0.132812 9.734375 -0.113281 7.765625 -0.09375 C 5.796875 -0.0703125 3.9375 -0.0390625 2.1875 0 L 2.1875 -1.28125 C 3.550781 -1.363281 4.570312 -1.535156 5.25 -1.796875 C 5.9375 -2.054688 6.398438 -2.566406 6.640625 -3.328125 C 6.878906 -4.097656 7 -5.253906 7 -6.796875 L 7 -38.625 C 7 -40.207031 6.878906 -41.367188 6.640625 -42.109375 C 6.398438 -42.859375 5.925781 -43.375 5.21875 -43.65625 C 4.519531 -43.9375 3.507812 -44.097656 2.1875 -44.140625 L 2.1875 -45.421875 C 3.9375 -45.378906 5.796875 -45.347656 7.765625 -45.328125 C 9.734375 -45.304688 11.675781 -45.285156 13.59375 -45.265625 C 15.519531 -45.242188 17.316406 -45.234375 18.984375 -45.234375 C 20.660156 -45.234375 22.03125 -45.234375 23.09375 -45.234375 C 25.0625 -45.234375 27.296875 -45.242188 29.796875 -45.265625 C 32.296875 -45.285156 34.53125 -45.335938 36.5 -45.421875 Z M 26.5 -23.484375 C 26.5 -23.484375 26.5 -23.269531 26.5 -22.84375 C 26.5 -22.414062 26.5 -22.203125 26.5 -22.203125 L 15.265625 -22.203125 C 15.265625 -22.203125 15.265625 -22.414062 15.265625 -22.84375 C 15.265625 -23.269531 15.265625 -23.484375 15.265625 -23.484375 Z M 28.359375 -31.953125 C 28.179688 -29.515625 28.101562 -27.648438 28.125 -26.359375 C 28.15625 -25.078125 28.171875 -23.90625 28.171875 -22.84375 C 28.171875 -21.769531 28.191406 -20.59375 28.234375 -19.3125 C 28.273438 -18.03125 28.378906 -16.171875 28.546875 -13.734375 L 27.078125 -13.734375 C 26.859375 -15.222656 26.457031 -16.609375 25.875 -17.890625 C 25.300781 -19.179688 24.476562 -20.222656 23.40625 -21.015625 C 22.34375 -21.804688 20.957031 -22.203125 19.25 -22.203125 L 19.25 -23.484375 C 20.53125 -23.484375 21.617188 -23.75 22.515625 -24.28125 C 23.410156 -24.8125 24.144531 -25.515625 24.71875 -26.390625 C 25.300781 -27.273438 25.765625 -28.207031 26.109375 -29.1875 C 26.453125 -30.175781 26.707031 -31.097656 26.875 -31.953125 Z M 28.359375 -31.953125 "/></g></g></g><g fill="#5087ff" fill-opacity="1"><g transform="translate(140.554266, 69.631422)"><g><path d="M 2.1875 -45.421875 C 3.25 -45.378906 4.6875 -45.335938 6.5 -45.296875 C 8.320312 -45.253906 10.132812 -45.234375 11.9375 -45.234375 C 13.988281 -45.234375 15.972656 -45.253906 17.890625 -45.296875 C 19.816406 -45.335938 21.1875 -45.359375 22 -45.359375 C 25.976562 -45.359375 29.28125 -44.921875 31.90625 -44.046875 C 34.539062 -43.171875 36.507812 -41.894531 37.8125 -40.21875 C 39.125 -38.550781 39.78125 -36.539062 39.78125 -34.1875 C 39.78125 -32.738281 39.476562 -31.273438 38.875 -29.796875 C 38.28125 -28.328125 37.265625 -26.957031 35.828125 -25.6875 C 34.398438 -24.425781 32.441406 -23.421875 29.953125 -22.671875 C 27.472656 -21.929688 24.351562 -21.5625 20.59375 -21.5625 L 14.4375 -21.5625 L 14.4375 -22.84375 L 19.953125 -22.84375 C 22.472656 -22.84375 24.382812 -23.320312 25.6875 -24.28125 C 27 -25.25 27.898438 -26.53125 28.390625 -28.125 C 28.878906 -29.726562 29.125 -31.515625 29.125 -33.484375 C 29.125 -36.867188 28.523438 -39.488281 27.328125 -41.34375 C 26.128906 -43.207031 24.078125 -44.140625 21.171875 -44.140625 C 19.503906 -44.140625 18.421875 -43.773438 17.921875 -43.046875 C 17.429688 -42.316406 17.1875 -40.84375 17.1875 -38.625 L 17.1875 -6.796875 C 17.1875 -5.253906 17.304688 -4.097656 17.546875 -3.328125 C 17.785156 -2.566406 18.242188 -2.054688 18.921875 -1.796875 C 19.609375 -1.535156 20.632812 -1.363281 22 -1.28125 L 22 0 C 20.84375 -0.0820312 19.390625 -0.132812 17.640625 -0.15625 C 15.890625 -0.175781 14.113281 -0.1875 12.3125 -0.1875 C 10.257812 -0.1875 8.320312 -0.175781 6.5 -0.15625 C 4.6875 -0.132812 3.25 -0.0820312 2.1875 0 L 2.1875 -1.28125 C 3.550781 -1.363281 4.570312 -1.535156 5.25 -1.796875 C 5.9375 -2.054688 6.398438 -2.566406 6.640625 -3.328125 C 6.878906 -4.097656 7 -5.253906 7 -6.796875 L 7 -38.625 C 7 -40.207031 6.878906 -41.367188 6.640625 -42.109375 C 6.398438 -42.859375 5.925781 -43.375 5.21875 -43.65625 C 4.519531 -43.9375 3.507812 -44.097656 2.1875 -44.140625 Z M 14.3125 -22.640625 C 16.144531 -22.597656 17.734375 -22.515625 19.078125 -22.390625 C 20.429688 -22.265625 21.617188 -22.144531 22.640625 -22.03125 C 23.671875 -21.925781 24.59375 -21.851562 25.40625 -21.8125 C 29.300781 -21.46875 32.175781 -20.632812 34.03125 -19.3125 C 35.894531 -17.988281 37.101562 -16 37.65625 -13.34375 L 39.140625 -6.734375 C 39.523438 -5.023438 39.929688 -3.828125 40.359375 -3.140625 C 40.785156 -2.453125 41.40625 -2.109375 42.21875 -2.109375 C 42.769531 -2.160156 43.226562 -2.300781 43.59375 -2.53125 C 43.957031 -2.769531 44.351562 -3.125 44.78125 -3.59375 L 45.671875 -2.828125 C 44.523438 -1.492188 43.285156 -0.539062 41.953125 0.03125 C 40.628906 0.601562 39.023438 0.890625 37.140625 0.890625 C 34.835938 0.890625 32.9375 0.398438 31.4375 -0.578125 C 29.9375 -1.554688 28.953125 -3.375 28.484375 -6.03125 L 27.328125 -12.453125 C 27.023438 -14.242188 26.660156 -15.8125 26.234375 -17.15625 C 25.804688 -18.507812 25.21875 -19.582031 24.46875 -20.375 C 23.726562 -21.164062 22.691406 -21.5625 21.359375 -21.5625 L 14.4375 -21.5625 Z M 14.3125 -22.640625 "/></g></g></g><g fill="#5087ff" fill-opacity="1"><g transform="translate(184.947291, 69.631422)"><g><path d="M 41.1875 -45.421875 C 41.019531 -43.242188 40.898438 -41.148438 40.828125 -39.140625 C 40.765625 -37.128906 40.734375 -35.585938 40.734375 -34.515625 C 40.734375 -33.578125 40.753906 -32.675781 40.796875 -31.8125 C 40.847656 -30.957031 40.894531 -30.234375 40.9375 -29.640625 L 39.453125 -29.640625 C 38.765625 -33.234375 37.894531 -36.078125 36.84375 -38.171875 C 35.800781 -40.265625 34.550781 -41.75 33.09375 -42.625 C 31.644531 -43.507812 29.9375 -43.953125 27.96875 -43.953125 L 26.5 -43.953125 L 26.5 -7.3125 C 26.5 -5.601562 26.679688 -4.320312 27.046875 -3.46875 C 27.410156 -2.613281 28.082031 -2.046875 29.0625 -1.765625 C 30.039062 -1.484375 31.472656 -1.320312 33.359375 -1.28125 L 33.359375 0 C 32.035156 -0.0390625 30.269531 -0.0820312 28.0625 -0.125 C 25.863281 -0.164062 23.566406 -0.1875 21.171875 -0.1875 C 18.816406 -0.1875 16.59375 -0.164062 14.5 -0.125 C 12.40625 -0.0820312 10.71875 -0.0390625 9.4375 0 L 9.4375 -1.28125 C 11.351562 -1.320312 12.800781 -1.484375 13.78125 -1.765625 C 14.769531 -2.046875 15.4375 -2.613281 15.78125 -3.46875 C 16.125 -4.320312 16.296875 -5.601562 16.296875 -7.3125 L 16.296875 -43.953125 L 14.890625 -43.953125 C 12.921875 -43.953125 11.207031 -43.507812 9.75 -42.625 C 8.300781 -41.75 7.0625 -40.273438 6.03125 -38.203125 C 5 -36.128906 4.101562 -33.273438 3.34375 -29.640625 L 1.859375 -29.640625 C 1.941406 -30.234375 1.992188 -30.957031 2.015625 -31.8125 C 2.035156 -32.675781 2.046875 -33.578125 2.046875 -34.515625 C 2.046875 -35.585938 2.015625 -37.128906 1.953125 -39.140625 C 1.890625 -41.148438 1.773438 -43.242188 1.609375 -45.421875 C 3.578125 -45.378906 5.722656 -45.335938 8.046875 -45.296875 C 10.378906 -45.253906 12.722656 -45.234375 15.078125 -45.234375 C 17.429688 -45.234375 19.546875 -45.234375 21.421875 -45.234375 C 23.347656 -45.234375 25.476562 -45.234375 27.8125 -45.234375 C 30.144531 -45.234375 32.484375 -45.253906 34.828125 -45.296875 C 37.179688 -45.335938 39.300781 -45.378906 41.1875 -45.421875 Z M 41.1875 -45.421875 "/></g></g></g><g fill="#c9c9c9" fill-opacity="1"><g transform="translate(227.800906, 69.631422)"><g><path d="M 23.609375 -45.546875 L 39.203125 -5.390625 C 39.796875 -3.847656 40.46875 -2.785156 41.21875 -2.203125 C 41.96875 -1.628906 42.640625 -1.320312 43.234375 -1.28125 L 43.234375 0 C 41.953125 -0.0820312 40.445312 -0.132812 38.71875 -0.15625 C 36.988281 -0.175781 35.242188 -0.1875 33.484375 -0.1875 C 31.515625 -0.1875 29.65625 -0.175781 27.90625 -0.15625 C 26.15625 -0.132812 24.765625 -0.0820312 23.734375 0 L 23.734375 -1.28125 C 25.921875 -1.363281 27.300781 -1.738281 27.875 -2.40625 C 28.445312 -3.070312 28.304688 -4.492188 27.453125 -6.671875 L 16.546875 -36.5 L 17.703125 -38.171875 L 7.953125 -12.765625 C 7.015625 -10.410156 6.445312 -8.484375 6.25 -6.984375 C 6.0625 -5.492188 6.171875 -4.34375 6.578125 -3.53125 C 6.984375 -2.71875 7.644531 -2.148438 8.5625 -1.828125 C 9.476562 -1.503906 10.582031 -1.320312 11.875 -1.28125 L 11.875 0 C 10.457031 -0.0820312 9.109375 -0.132812 7.828125 -0.15625 C 6.546875 -0.175781 5.238281 -0.1875 3.90625 -0.1875 C 2.96875 -0.1875 2.082031 -0.175781 1.25 -0.15625 C 0.414062 -0.132812 -0.320312 -0.0820312 -0.96875 0 L -0.96875 -1.28125 C -0.0625 -1.457031 0.859375 -2.035156 1.796875 -3.015625 C 2.734375 -3.992188 3.65625 -5.660156 4.5625 -8.015625 L 19.1875 -45.546875 C 19.863281 -45.503906 20.597656 -45.484375 21.390625 -45.484375 C 22.179688 -45.484375 22.921875 -45.503906 23.609375 -45.546875 Z M 28.09375 -18.484375 L 28.09375 -17.1875 L 8.984375 -17.1875 L 9.625 -18.484375 Z M 28.09375 -18.484375 "/></g></g></g><g fill="#c9c9c9" fill-opacity="1"><g transform="translate(270.590126, 69.631422)"><g><path d="M 22 -45.421875 L 22 -44.140625 C 20.632812 -44.097656 19.597656 -43.9375 18.890625 -43.65625 C 18.179688 -43.375 17.71875 -42.859375 17.5 -42.109375 C 17.289062 -41.367188 17.1875 -40.207031 17.1875 -38.625 L 17.1875 -6.796875 C 17.1875 -5.253906 17.304688 -4.097656 17.546875 -3.328125 C 17.785156 -2.566406 18.242188 -2.054688 18.921875 -1.796875 C 19.609375 -1.535156 20.632812 -1.363281 22 -1.28125 L 22 0 C 20.84375 -0.0820312 19.390625 -0.132812 17.640625 -0.15625 C 15.890625 -0.175781 14.113281 -0.1875 12.3125 -0.1875 C 10.21875 -0.1875 8.28125 -0.175781 6.5 -0.15625 C 4.726562 -0.132812 3.289062 -0.0820312 2.1875 0 L 2.1875 -1.28125 C 3.550781 -1.363281 4.570312 -1.535156 5.25 -1.796875 C 5.9375 -2.054688 6.398438 -2.566406 6.640625 -3.328125 C 6.878906 -4.097656 7 -5.253906 7 -6.796875 L 7 -38.625 C 7 -40.207031 6.878906 -41.367188 6.640625 -42.109375 C 6.398438 -42.859375 5.925781 -43.375 5.21875 -43.65625 C 4.519531 -43.9375 3.507812 -44.097656 2.1875 -44.140625 L 2.1875 -45.421875 C 3.289062 -45.378906 4.726562 -45.335938 6.5 -45.296875 C 8.28125 -45.253906 10.21875 -45.234375 12.3125 -45.234375 C 14.113281 -45.234375 15.890625 -45.253906 17.640625 -45.296875 C 19.390625 -45.335938 20.84375 -45.378906 22 -45.421875 Z M 22 -45.421875 "/></g></g></g></g></g></svg>